<svg width="118" height="139" viewBox="0 0 118 139" fill="none" xmlns="http://www.w3.org/2000/svg">
<g clip-path="url(#clip0_1021_9291)">
<path d="M20.6302 10.54V10.29H20.0702V6.86C20.0702 6.86 20.1602 6.86 20.2002 6.87V6.49C20.2002 6.49 20.2802 6.49 20.3202 6.5C20.3202 6.5 20.3302 6.5 20.3402 6.5V6.1C20.2902 6.1 20.2302 6.09 20.1802 6.08C20.0802 6.07 19.9802 6.06 19.8802 6.05V4.93C19.8802 4.69 19.8202 4.46 19.7202 4.26C19.5302 3.87 19.1602 3.57 18.7202 3.47C18.7202 3.44 18.7002 3.41 18.6902 3.38C18.6902 3.36 18.6702 3.34 18.6602 3.31C18.6502 3.28 18.6302 3.26 18.6202 3.23C18.6102 3.21 18.6002 3.19 18.5802 3.17C18.5602 3.15 18.5502 3.12 18.5302 3.1C18.5202 3.08 18.5002 3.06 18.4802 3.05C18.4602 3.03 18.4402 3.01 18.4202 2.99C18.4002 2.97 18.3802 2.96 18.3602 2.94C18.3402 2.93 18.3202 2.91 18.3002 2.9C18.2802 2.89 18.2602 2.87 18.2302 2.86C18.2202 2.86 18.2102 2.85 18.2002 2.84L18.1802 2.75L18.1302 2.52C18.1302 2.52 18.1102 2.47 18.1002 2.45C18.0802 2.41 18.0402 2.39 18.0102 2.37C18.0202 2.36 18.0302 2.34 18.0402 2.32C18.0402 2.32 18.0402 2.32 18.0402 2.31C18.0502 2.29 18.0602 2.27 18.0702 2.24C18.0702 2.24 18.0702 2.24 18.0702 2.22C18.0802 2.18 18.0902 2.13 18.0902 2.08C18.0902 2.03 18.0902 1.99 18.0702 1.95C18.0702 1.93 18.0602 1.91 18.0502 1.9C18.0502 1.88 18.0402 1.86 18.0302 1.85C18.0202 1.83 18.0002 1.82 17.9902 1.8C17.9902 1.8 17.9802 1.78 17.9702 1.77C17.9502 1.76 17.9402 1.75 17.9202 1.75C17.9502 1.75 17.9702 1.74 18.0002 1.73C18.0002 1.73 18.0202 1.73 18.0202 1.72C18.0502 1.7 18.0702 1.68 18.0902 1.65C18.0902 1.63 18.1102 1.61 18.1102 1.59C18.1102 1.57 18.1102 1.55 18.0902 1.53C18.0902 1.53 18.0902 1.52 18.0802 1.51C18.0802 1.5 18.0602 1.49 18.0502 1.48C18.0502 1.48 18.0402 1.47 18.0302 1.46C18.0202 1.46 18.0002 1.45 17.9902 1.44C17.9902 1.44 17.9702 1.44 17.9602 1.43C18.0002 1.42 18.0302 1.39 18.0402 1.36C18.0402 1.34 18.0502 1.33 18.0502 1.31C18.0502 1.29 18.0502 1.28 18.0402 1.26C18.0202 1.22 17.9702 1.19 17.9202 1.19C18.2102 1.14 18.4302 0.89 18.4302 0.6C18.4302 0.27 18.1502 0 17.8102 0H17.7902C17.9602 0.07 18.0902 0.19 18.1502 0.33C18.2002 0.44 18.2202 0.57 18.1702 0.68C18.1102 0.84 17.9602 0.94 17.7802 0.97C17.6602 0.99 17.5302 0.97 17.4102 0.93C17.3502 0.91 17.2902 0.87 17.2402 0.84C17.2702 0.91 17.3202 0.98 17.3702 1.03C17.4202 1.08 17.4702 1.11 17.5402 1.14C17.6202 1.18 17.7002 1.2 17.7902 1.2C17.7902 1.2 17.8002 1.2 17.8102 1.2C17.8102 1.2 17.8202 1.2 17.8302 1.2C17.8102 1.2 17.7902 1.22 17.7802 1.23C17.7602 1.25 17.7502 1.28 17.7502 1.3C17.7502 1.32 17.7502 1.33 17.7602 1.35C17.7602 1.35 17.7702 1.37 17.7802 1.37C17.7802 1.37 17.7802 1.38 17.7902 1.38C17.7902 1.38 17.8102 1.39 17.8202 1.4C17.8202 1.4 17.8302 1.4 17.8402 1.41C17.8402 1.41 17.8302 1.41 17.8202 1.41C17.7402 1.44 17.6902 1.5 17.6902 1.57C17.6902 1.66 17.7702 1.72 17.8802 1.74C17.8702 1.74 17.8502 1.74 17.8402 1.75C17.8302 1.75 17.8202 1.77 17.8102 1.78C17.8102 1.78 17.7902 1.8 17.7802 1.81C17.7602 1.84 17.7502 1.87 17.7402 1.9V1.92C17.7302 1.96 17.7202 2.01 17.7202 2.06C17.7202 2.19 17.7602 2.29 17.8302 2.35C17.8102 2.36 17.7902 2.37 17.7802 2.39C17.7502 2.42 17.7302 2.45 17.7202 2.5L17.6502 2.82C17.5902 2.85 17.5402 2.88 17.4902 2.92C17.4802 2.92 17.4702 2.94 17.4602 2.95C17.4102 3 17.3602 3.05 17.3202 3.11C17.2802 3.17 17.2502 3.23 17.2202 3.3C17.2202 3.32 17.2102 3.33 17.2002 3.35C17.2002 3.38 17.1802 3.4 17.1702 3.43C17.1002 3.45 17.0202 3.47 16.9602 3.49C16.6002 3.63 16.3102 3.92 16.1502 4.27C16.0702 4.46 16.0202 4.67 16.0202 4.88V6C15.9402 6 15.8602 6.01 15.7802 6.02C15.7102 6.02 15.6302 6.04 15.5602 6.05V6.27V6.46C15.6102 6.46 15.6502 6.46 15.7002 6.45V6.83C15.7002 6.83 15.7902 6.83 15.8302 6.82V10.24H15.2302V10.49C15.1502 10.5 15.0702 10.51 14.9902 10.52V11.85C15.0602 11.84 15.1202 11.83 15.1902 11.82L15.3302 12.13L15.3802 12.69C15.3802 12.69 15.4102 12.69 15.4202 12.69V14.85C15.4202 14.85 15.4302 14.83 15.4402 14.83C15.6802 14.55 15.9902 14.25 16.4102 13.97C16.6602 13.81 16.9402 13.65 17.2602 13.51C17.9602 13.2 18.7602 12.84 19.3902 12.55C19.4902 12.51 19.5802 12.46 19.6702 12.42C19.9602 12.29 20.2102 12.19 20.3602 12.13C20.3602 12.13 20.3702 12.13 20.3802 12.13C20.3802 12.13 20.4602 12.13 20.5002 12.14L20.6502 11.82C20.7302 11.83 20.8202 11.84 20.9002 11.86V10.53C20.8202 10.52 20.7402 10.51 20.6602 10.5L20.6302 10.54ZM16.6802 10.3H16.0302V8.39C16.1202 8.1 16.2502 7.93 16.3602 7.82C16.4702 7.93 16.5902 8.1 16.6802 8.38V10.3ZM17.2002 10.3H16.8202V8.39C16.8802 8.22 16.9402 8.08 17.0102 7.98C17.0802 8.08 17.1402 8.21 17.2002 8.38V10.3ZM18.0102 10.3H17.3602V8.39C17.4502 8.1 17.5802 7.93 17.6902 7.82C17.8002 7.93 17.9202 8.11 18.0102 8.39V10.3ZM18.5302 10.3H18.1502V8.39C18.2102 8.22 18.2702 8.08 18.3402 7.98C18.3802 8.05 18.4302 8.12 18.4702 8.21C18.4902 8.26 18.5102 8.32 18.5402 8.39V10.3H18.5302ZM19.3302 10.3H18.6802V8.39C18.7702 8.1 18.8902 7.93 19.0102 7.82C19.0502 7.86 19.0802 7.9 19.1202 7.95C19.2602 8.15 19.3302 8.39 19.3302 8.64V10.3ZM19.8502 10.3H19.5602C19.5602 10.3 19.5602 10.09 19.5402 9.86C19.5002 9.32 19.4402 8.45 19.6802 8.01C19.7402 8.11 19.8002 8.23 19.8502 8.39V10.3Z" fill="#B78C4D"/>
<path d="M35.2701 35.85C37.5101 33.13 39.7301 30.63 42.9101 29.02C40.2101 25.11 39.4801 19.94 40.1601 12.94C39.4501 12.74 38.7201 12.54 37.6401 12.24C38.8701 9.37996 40.0001 6.72996 41.1401 4.07996C40.2701 4.14996 39.5101 4.41996 39.2401 4.94996C37.2901 8.76996 34.9801 12.49 33.6801 16.53C32.0301 21.67 33.5201 26.89 34.7501 32.01C35.0701 33.33 34.9101 33.61 35.2601 35.85H35.2701Z" fill="#317F86"/>
<path d="M33.4402 38.02C31.6602 38.02 29.4302 38.02 27.4902 38.02V43.48C27.9502 43.67 28.1502 43.91 28.7802 44.2L33.4402 38.02Z" fill="#317F86"/>
<path d="M45.7702 32.0901C45.2602 31.6501 45.0002 31.3001 44.5602 30.8101C41.5502 35.9301 42.0402 42.5001 43.5302 48.6801C44.3302 48.6201 44.9402 48.5901 45.7702 48.5201C45.7702 43.0901 45.7702 37.5201 45.7702 32.0901Z" fill="#317F86"/>
<path d="M87.77 13.7099V13.6999L87.75 13.6899L87.76 13.7099H87.77Z" fill="#1A4760"/>
<path d="M90.2898 16L90.2598 15.97V16H90.2898Z" fill="#1A4760"/>
<path d="M87.7698 13.71H87.7598V13.72L87.7698 13.71Z" fill="#1A4760"/>
<path d="M90.1602 16H90.2102C90.2102 16 90.2102 15.95 90.2102 15.93L87.7402 13.75L87.7002 13.82L90.1502 16H90.1602Z" fill="#1A4760"/>
<path d="M90.26 15.97L90.31 8.96997C90.31 9.24997 90.27 11.98 90.21 15.93L90.26 15.97Z" fill="#1A4760"/>
<path d="M90.26 15.9999V15.9799L90.21 15.9399C90.21 15.9599 90.21 15.9899 90.21 16.0099H90.26V15.9999Z" fill="#1A4760"/>
<path d="M90.1596 16H85.3696L85.3496 16.02H90.1896L90.1596 16Z" fill="#1A4760"/>
<path d="M85.3203 16.04L85.3603 16H85.3203C85.3203 16 85.3203 16.03 85.3203 16.04Z" fill="#1A4760"/>
<path d="M85.3195 16.04C85.3195 16.04 85.3195 16.01 85.3195 16H85.2695V16.09L85.3195 16.04Z" fill="#1A4760"/>
<path d="M90.31 16H90.29L90.31 16.02V16Z" fill="#1A4760"/>
<path d="M90.2598 16.02H90.3098L90.2898 16H90.2598V16.02Z" fill="#1A4760"/>
<path d="M90.2102 16.02C90.2102 16.02 90.2102 16.01 90.2102 16H90.1602L90.1802 16.02H90.2001H90.2102Z" fill="#1A4760"/>
<path d="M90.26 16.02V16H90.21C90.21 16 90.21 16.01 90.21 16.02H90.26Z" fill="#1A4760"/>
<path d="M92.3699 17.66H92.3398C92.3398 17.74 92.3398 17.83 92.3398 17.92L92.3699 17.66Z" fill="#1A4760"/>
<path d="M92.3697 28.1299L92.2297 28.0699C92.2297 28.4799 92.2297 28.8999 92.2197 29.3199L92.3797 28.1399L92.3697 28.1299Z" fill="#1A4760"/>
<path d="M92.3699 38.59L92.1399 38.49C92.1399 39.15 92.1399 39.8 92.1299 40.42L92.3699 38.59Z" fill="#1A4760"/>
<path d="M90.4696 16.02H90.3096V16.14H90.4696V16.02Z" fill="#1A4760"/>
<path d="M85.22 8.94994L83.09 9.63994C83.09 9.63994 83.13 12.9099 83.19 17.5899L83.04 17.6599L83.21 18.9399C83.24 21.6799 83.28 24.8099 83.31 27.9999L83.04 28.1199L83.33 30.3099C83.36 33.0899 83.38 35.8599 83.39 38.4299L83.04 38.5899L83.41 41.3899C83.41 41.6799 83.41 41.9699 83.41 42.2499C83.41 44.5699 83.41 46.5599 83.41 47.9999C84.06 47.9999 84.7 47.9999 85.34 47.9999C85.51 47.9999 85.67 47.9999 85.84 47.9999C85.89 47.9999 85.94 47.9999 86 47.9999C87.25 47.9999 88.49 47.9999 89.7 48.0299C89.91 48.0299 90.11 48.0299 90.32 48.0299C90.93 48.0399 91.54 48.0499 92.14 48.0699C92.14 47.1599 92.13 46.0199 92.13 44.7199C92.09 43.6899 92.05 42.5899 92 41.4499C91.96 40.4599 91.92 39.4299 91.88 38.3699C91.79 36.0099 91.69 33.5099 91.58 30.9799C91.54 29.8899 91.49 28.7899 91.44 27.6999C91.34 25.2399 91.23 22.8099 91.13 20.5099C91.08 19.3099 91.02 18.1399 90.97 17.0199C90.82 13.7799 90.68 10.9899 90.56 9.01994L90.32 8.93994C90.32 8.93994 90.32 8.93994 90.32 8.95994V8.93994L88.69 11.9799H86.86L87.78 13.6899" fill="#1A4760"/>
<path d="M87.7598 13.7099L87.7498 13.6899L85.2598 11.9399" fill="#1A4760"/>
<path d="M90.26 16.08L90.21 16.04C90.21 16.04 90.21 16.1 90.21 16.13H90.31V16.01H90.26V16.08Z" fill="#1A4760"/>
<path d="M90.1904 16.02L90.2104 16.04C90.2104 16.04 90.2104 16.03 90.2104 16.02H90.1904Z" fill="#1A4760"/>
<path d="M90.21 16.04L90.26 16.08V16.01H90.21C90.21 16.01 90.21 16.02 90.21 16.03V16.04Z" fill="#1A4760"/>
<path d="M91.1299 20.52C91.2299 22.82 91.3399 25.25 91.4399 27.71L92.2299 28.07C92.2699 24.45 92.2999 20.91 92.3399 17.92L91.9999 20.52H91.1299Z" fill="#1A4760"/>
<path d="M91.5703 30.9801C91.6703 33.5001 91.7703 36.0001 91.8703 38.3701L92.1403 38.4901C92.1603 35.6001 92.1803 32.4501 92.2103 29.3101L91.9903 30.9801H91.5703Z" fill="#1A4760"/>
<path d="M92.3396 17.65C92.3996 12.94 92.4396 9.64003 92.4396 9.64003L90.5596 9.03003C90.6796 11 90.8196 13.8 90.9696 17.03L92.3396 17.65Z" fill="#1A4760"/>
<path d="M91.9902 41.45C92.0302 42.6 92.0802 43.69 92.1202 44.72C92.1202 43.43 92.1202 41.98 92.1302 40.42L92.0002 41.45H91.9902Z" fill="#1A4760"/>
<path d="M91.1297 20.52H91.9997L92.3397 17.92C92.3397 17.83 92.3397 17.74 92.3397 17.65L90.9697 17.03C91.0197 18.14 91.0697 19.31 91.1297 20.52Z" fill="#1A4760"/>
<path d="M91.5697 30.9799H91.9897L92.2097 29.3099C92.2097 28.8899 92.2097 28.4799 92.2197 28.0599L91.4297 27.7C91.4797 28.79 91.5197 29.88 91.5697 30.9799Z" fill="#1A4760"/>
<path d="M91.9903 41.45L92.1204 40.42C92.1204 39.79 92.1203 39.15 92.1303 38.49L91.8604 38.37C91.9004 39.43 91.9404 40.46 91.9804 41.45H91.9903Z" fill="#1A4760"/>
<path d="M87.7497 13.69L86.4597 11.99H86.8497L85.2197 8.94995C85.2197 8.94995 85.2397 10.07 85.2597 11.94L87.7497 13.69Z" fill="#1A4760"/>
<path d="M87.75 13.69L87.77 13.7L86.85 11.99H86.46L87.75 13.69Z" fill="#1A4760"/>
<path d="M90.5596 9.02991C90.6796 10.9999 90.8196 13.7999 90.9696 17.0299C91.0196 18.1399 91.0696 19.3099 91.1296 20.5199C91.2296 22.8199 91.3396 25.2499 91.4396 27.7099C91.4896 28.7999 91.5296 29.8899 91.5796 30.9899C91.6796 33.5099 91.7796 36.0099 91.8796 38.3799C91.9196 39.4399 91.9596 40.4699 91.9996 41.4599C92.0396 42.6099 92.0896 43.6999 92.1296 44.7299C92.1296 43.4399 92.1296 41.9899 92.1396 40.4299C92.1396 39.7999 92.1396 39.1599 92.1496 38.4999C92.1696 35.6099 92.1896 32.4599 92.2196 29.3199C92.2196 28.8999 92.2196 28.4899 92.2296 28.0699C92.2696 24.4499 92.2996 20.9099 92.3396 17.9199C92.3396 17.8299 92.3396 17.7399 92.3396 17.6499C92.3996 12.9399 92.4396 9.63991 92.4396 9.63991L90.5596 9.02991Z" fill="#002256"/>
<path d="M85.2197 8.94995C85.2197 8.94995 85.2397 10.07 85.2597 11.94L87.7497 13.69H87.7697V13.7L86.8497 11.99L85.2197 8.94995Z" fill="#002256"/>
<path d="M105.08 48.7501C105.54 45.1501 105.67 41.1501 105.71 36.7901C105.71 36.1601 105.71 35.5401 105.71 34.9301C105.67 39.8901 105.53 44.4601 105.08 48.5601C105.07 48.6801 105.05 48.7901 105.04 48.9001C105.04 48.9001 105.05 48.9001 105.06 48.9001C105.06 48.8501 105.07 48.8101 105.08 48.7601V48.7501Z" fill="#99C1CB"/>
<path d="M107.3 16.98H104.4V17.48H104.64C104.73 18.26 104.82 19.05 104.9 19.87H104.92C105.07 21.16 105.2 22.49 105.32 23.87C105.6 27.25 105.75 30.89 105.72 34.77C105.72 34.82 105.72 34.88 105.72 34.93C105.72 35.54 105.72 36.17 105.72 36.79C105.68 41.15 105.55 45.16 105.09 48.75C105.09 48.8 105.08 48.85 105.07 48.89C106.96 49.11 108.69 49.38 110.24 49.7C112.1 49.16 113.54 48.97 114.59 48.93C114.84 48.93 115.07 48.92 115.28 48.93C114.78 44.69 114.64 39.94 114.6 34.76C114.56 29.31 114.88 24.32 115.4 19.87H115.42C115.5 19.06 115.59 18.26 115.68 17.48H115.9V16.98H107.32H107.3Z" fill="#99C1CB"/>
<path d="M98.9604 4.61002C99.0304 4.61002 99.1403 4.60002 99.2703 4.61002C99.2803 4.61002 99.2903 4.61002 99.3103 4.61002C99.2503 4.05002 99.1003 0.590024 99.1003 0.590024L98.8803 0.150024L98.7104 0.590024L98.6104 4.61002C98.7604 4.60002 98.8804 4.61002 98.9604 4.61002Z" fill="#418594"/>
<path d="M98.4804 4.61999C98.4804 4.61999 98.5604 4.61999 98.6004 4.60999C98.5604 4.60999 98.5204 4.60999 98.4804 4.61999C98.4504 4.61999 98.4104 4.61999 98.3704 4.62999C98.4104 4.62999 98.4404 4.61999 98.4804 4.60999V4.61999Z" fill="#407E8F"/>
<path d="M93.9805 18.0699C93.4505 25.8899 93.3605 36.0699 93.4105 48.1099C93.6005 48.1099 93.7905 48.1199 93.9805 48.1299V18.0699Z" fill="#407E8F"/>
<path d="M95.7397 6.92004C95.7397 6.92004 95.7297 6.94004 95.7197 6.96004C95.7197 6.96004 95.7297 6.94004 95.7397 6.92004Z" fill="#407E8F"/>
<path d="M98.9604 4.62005C99.0304 4.62005 99.1403 4.61005 99.2703 4.62005C99.1403 4.62005 99.0304 4.62005 98.9604 4.62005Z" fill="#407E8F"/>
<path d="M103.78 15.87C103.36 14.18 102.88 12.85 102.35 11.8C101.96 11.03 101.54 10.42 101.12 9.93997C100.21 8.91997 99.2305 8.49997 98.2905 8.41997C97.9005 8.38997 97.5105 8.41997 97.1405 8.47997C96.6405 8.56997 96.1605 8.73997 95.7305 8.93997V48.18C95.9505 48.18 96.1805 48.2 96.4005 48.21C96.9605 48.24 97.5105 48.26 98.0605 48.3C99.2005 48.36 100.31 48.44 101.38 48.53C101.94 48.58 102.49 48.62 103.03 48.68C103.54 48.73 104.03 48.78 104.52 48.83C104.58 35.3 104.47 24.08 103.79 15.87H103.78Z" fill="#407E8F"/>
<g style="mix-blend-mode:overlay" opacity="0.55">
<path d="M97.3902 5C97.3302 5.04 97.2602 5.08 97.2002 5.12C97.2602 5.08 97.3302 5.03 97.3902 5Z" fill="#407E8F"/>
</g>
<path d="M95.7197 8.95001C96.1497 8.75001 96.6297 8.58001 97.1297 8.49001C97.1897 7.69001 97.2497 6.91001 97.3097 6.17001C97.3297 5.76001 97.3597 5.38001 97.3897 5.01001C97.3297 5.05001 97.2597 5.09001 97.1997 5.13001C97.1797 5.14001 97.1597 5.16001 97.1497 5.17001C97.0997 5.20001 97.0597 5.24001 97.0097 5.28001C96.9897 5.30001 96.9697 5.32001 96.9397 5.33001C96.8897 5.37001 96.8497 5.41001 96.7997 5.45001C96.7797 5.47001 96.7597 5.49001 96.7397 5.51001C96.6797 5.57001 96.6097 5.64001 96.5497 5.71001C96.4897 5.78001 96.4197 5.86001 96.3597 5.94001C96.3397 5.97001 96.3197 6.00001 96.2997 6.02001C96.2597 6.08001 96.2097 6.14001 96.1697 6.20001C96.1497 6.23001 96.1197 6.27001 96.0997 6.31001C96.0597 6.37001 96.0197 6.44001 95.9797 6.51001C95.9597 6.55001 95.9397 6.58001 95.9097 6.62001C95.8597 6.71001 95.7997 6.81001 95.7497 6.92001C95.7497 6.93001 95.7397 6.94001 95.7297 6.96001V8.95001H95.7197Z" fill="#407E8F"/>
<path d="M101.86 6.35999C101.96 7.06999 102.05 7.87998 102.1 8.77998C102.19 9.73998 102.27 10.75 102.34 11.81C102.87 12.85 103.36 14.18 103.77 15.88C103.66 14.51 103.53 13.23 103.38 12.03C103.15 9.20999 102.55 7.44999 101.85 6.35999H101.86Z" fill="#407E8F"/>
<path d="M102.1 8.77995C102.04 7.86995 101.96 7.06995 101.86 6.35995C101.57 5.90995 101.27 5.56995 100.97 5.31995C101.02 6.76995 101.07 8.30995 101.11 9.93995C101.54 10.4199 101.95 11.0299 102.34 11.7999C102.27 10.7399 102.18 9.72995 102.1 8.76995V8.77995Z" fill="#407E8F"/>
<path d="M97.3099 6.17001C97.2499 6.91001 97.1899 7.69001 97.1299 8.49001C97.4999 8.42001 97.8899 8.39002 98.2799 8.43002C98.3099 7.12002 98.3399 5.85001 98.3699 4.64001C98.1699 4.67001 97.9399 4.74001 97.6899 4.85001C97.5899 4.89001 97.4899 4.94001 97.3899 5.00001C97.3599 5.37001 97.3299 5.76001 97.3099 6.16001V6.17001Z" fill="#407E8F"/>
<path d="M100.97 5.31999C100.33 4.77999 99.7098 4.63999 99.2998 4.60999C99.6998 4.63999 100.32 4.77999 100.97 5.31999Z" fill="#407E8F"/>
<g style="mix-blend-mode:overlay" opacity="0.55">
<path d="M100.97 5.31999C100.33 4.77999 99.7098 4.63999 99.2998 4.60999C99.6998 4.63999 100.32 4.77999 100.97 5.31999Z" fill="#407E8F"/>
</g>
<path d="M98.38 4.64C98.35 5.85 98.31 7.11 98.29 8.43C99.23 8.51 100.2 8.93 101.12 9.95C101.08 8.31999 101.03 6.77 100.98 5.33C100.34 4.79 99.72 4.65 99.31 4.62C99.31 4.66 99.31 4.68 99.32 4.69C99.38 4.86 98.6 4.91 98.6 4.91V4.62C98.6 4.62 98.53 4.62 98.48 4.63C98.45 4.63 98.41 4.63 98.37 4.65L98.38 4.64Z" fill="#407E8F"/>
<path d="M99.3204 4.68003C99.3204 4.68003 99.3203 4.64004 99.3103 4.61004C99.3003 4.61004 99.2903 4.61004 99.2703 4.61004C99.1403 4.61004 99.0304 4.61004 98.9604 4.61004C98.8804 4.61004 98.7604 4.60004 98.6104 4.61004V4.90004C98.6104 4.90004 99.3804 4.84003 99.3204 4.68003Z" fill="#407E8F"/>
<path d="M95.7197 48.1899V8.94995C95.4297 9.08995 95.1497 9.22995 94.9097 9.37995C94.9097 9.37995 94.9097 9.36995 94.9097 9.35995C94.9097 9.35995 94.9097 9.36995 94.9097 9.37995C94.7397 10.14 94.6097 11.01 94.5297 12.03C94.3097 13.85 94.1197 15.86 93.9697 18.07V48.13C94.5597 48.15 95.1397 48.17 95.7097 48.2L95.7197 48.1899Z" fill="#407E8F"/>
<path d="M95.7199 8.94996V6.95996C95.7199 6.95996 95.7199 6.95996 95.7199 6.96996C95.6499 7.09996 95.5899 7.24996 95.5299 7.38996C95.5099 7.42996 95.4899 7.47996 95.4699 7.52996C95.4099 7.67996 95.3499 7.83996 95.2899 7.99996C95.2899 8.01996 95.2799 8.02996 95.2699 8.04996C95.2099 8.21996 95.1599 8.39996 95.1099 8.58996C95.0999 8.63996 95.0799 8.69996 95.0699 8.74996C95.0199 8.94996 94.9699 9.14996 94.9199 9.35996C94.9199 9.35996 94.9199 9.36996 94.9199 9.37996C95.1599 9.22996 95.4399 9.08996 95.7299 8.94996H95.7199Z" fill="#407E8F"/>
<g style="mix-blend-mode:overlay" opacity="0.55">
<path d="M95.7199 8.94996V6.95996C95.7199 6.95996 95.7199 6.95996 95.7199 6.96996C95.6499 7.09996 95.5899 7.24996 95.5299 7.38996C95.5099 7.42996 95.4899 7.47996 95.4699 7.52996C95.4099 7.67996 95.3499 7.83996 95.2899 7.99996C95.2899 8.01996 95.2799 8.02996 95.2699 8.04996C95.2099 8.21996 95.1599 8.39996 95.1099 8.58996C95.0999 8.63996 95.0799 8.69996 95.0699 8.74996C95.0199 8.94996 94.9699 9.14996 94.9199 9.35996C94.9199 9.35996 94.9199 9.36996 94.9199 9.37996C95.1599 9.22996 95.4399 9.08996 95.7299 8.94996H95.7199Z" fill="#407E8F"/>
</g>
<path d="M103.39 12.03C103.16 9.21004 102.56 7.45004 101.86 6.36004C101.57 5.91004 101.27 5.57004 100.97 5.32004C100.33 4.78004 99.7102 4.64004 99.3002 4.61004C99.2902 4.61004 99.2802 4.61004 99.2602 4.61004C99.1302 4.61004 99.0202 4.61004 98.9502 4.61004C98.8702 4.61004 98.7502 4.60004 98.6002 4.61004C98.5602 4.61004 98.5202 4.61004 98.4802 4.62004C98.4502 4.62004 98.4102 4.62003 98.3702 4.64003C98.1702 4.67003 97.9402 4.74004 97.6902 4.85004C97.5902 4.89004 97.4902 4.94004 97.3902 5.00004C97.3302 5.04004 97.2602 5.08004 97.2002 5.12003C97.1802 5.13003 97.1602 5.15003 97.1502 5.16003C97.1002 5.19003 97.0602 5.23004 97.0102 5.27004C96.9902 5.29004 96.9702 5.31004 96.9402 5.32004C96.8902 5.36004 96.8502 5.40004 96.8002 5.44004C96.7802 5.46004 96.7602 5.48004 96.7402 5.50004C96.6802 5.56004 96.6102 5.63003 96.5502 5.70003C96.4902 5.77004 96.4202 5.85003 96.3602 5.93003C96.3402 5.96003 96.3202 5.99004 96.3002 6.01004C96.2602 6.07004 96.2102 6.13004 96.1702 6.19004C96.1502 6.22004 96.1202 6.26004 96.1002 6.30004C96.0602 6.36004 96.0202 6.43004 95.9802 6.50004C95.9602 6.54004 95.9402 6.57004 95.9102 6.61004C95.8602 6.70004 95.8002 6.80003 95.7502 6.91003C95.7502 6.92003 95.7402 6.93003 95.7302 6.95003C95.7302 6.95003 95.7302 6.95004 95.7302 6.96004C95.6602 7.09003 95.6002 7.24004 95.5402 7.38004C95.5202 7.42004 95.5002 7.47004 95.4802 7.52004C95.4202 7.67004 95.3602 7.83003 95.3002 7.99003C95.3002 8.01003 95.2902 8.02004 95.2802 8.04004C95.2202 8.21004 95.1702 8.39003 95.1202 8.58003C95.1102 8.63003 95.0902 8.69003 95.0802 8.74004C95.0302 8.94003 94.9802 9.14004 94.9302 9.35004C94.9302 9.35004 94.9302 9.36003 94.9302 9.37004C94.7602 10.13 94.6302 11 94.5502 12.02C94.3302 13.84 94.1402 15.85 93.9902 18.06V48.12C94.5802 48.14 95.1602 48.16 95.7302 48.19V8.95004C96.1602 8.75004 96.6402 8.58003 97.1402 8.49003C97.5102 8.42003 97.9002 8.39004 98.2902 8.43004C99.2302 8.51004 100.2 8.93004 101.12 9.95004C101.55 10.43 101.96 11.04 102.35 11.81C102.88 12.85 103.37 14.18 103.78 15.88C103.67 14.51 103.54 13.23 103.39 12.03Z" fill="#418594"/>
<path d="M25.1003 38.6L25.0303 38.67C25.0303 38.67 25.0903 38.67 25.1303 38.67L25.1003 38.6Z" fill="#B78C4D"/>
<path d="M25.4598 39.5L25.4098 39.37L25.2998 39.49C25.3598 39.49 25.4098 39.49 25.4698 39.49L25.4598 39.5Z" fill="#B78C4D"/>
<path d="M25.3599 38.6801C25.2799 38.6801 25.2099 38.6801 25.1299 38.6801L25.1999 38.8601L25.3599 38.6901V38.6801Z" fill="#B78C4D"/>
<path d="M25.6696 36.83H25.6496C25.6496 36.83 25.6196 36.84 25.5996 36.85C25.6196 36.85 25.6396 36.84 25.6596 36.83H25.6696Z" fill="#B87D2E"/>
<path d="M15.8599 26.47C16.9999 26.1 18.0999 25.72 19.1099 25.34C19.1999 25.31 19.2899 25.27 19.3799 25.24C19.4299 25.22 19.4799 25.2 19.5299 25.18H19.5499C19.8199 25.07 20.0899 24.97 20.3499 24.86C21.1399 24.53 21.8499 24.21 22.4399 23.9C22.8899 23.66 23.2699 23.43 23.5699 23.21C22.8499 22.99 21.4699 22.58 20.3499 22.36V12.78C20.3499 12.78 20.3499 12.78 20.3399 12.78C20.3299 12.78 20.2999 12.79 20.2299 12.81C20.0099 12.88 19.4599 13.06 18.5099 13.44C18.1999 13.56 17.8599 13.71 17.4599 13.88C17.3799 13.91 17.2999 13.95 17.2199 13.99C16.8999 14.13 16.6099 14.29 16.3699 14.45C16.2599 14.52 16.1599 14.6 16.0599 14.67C16.0299 14.69 16.0099 14.71 15.9799 14.73C15.9099 14.78 15.8499 14.84 15.7899 14.89C15.7899 14.89 15.7799 14.89 15.7799 14.9C15.7399 14.94 15.6999 14.98 15.6599 15.01C15.6299 15.04 15.6099 15.06 15.5799 15.09C15.5099 15.16 15.4499 15.23 15.3899 15.3C15.3899 15.3 15.3799 15.32 15.3699 15.32C14.7799 16.03 14.6699 16.65 14.6699 16.65V26.9C15.0099 26.76 15.3899 26.62 15.8099 26.48C15.8299 26.48 15.8399 26.47 15.8599 26.46V26.47Z" fill="#B78C4D"/>
<path d="M23.97 22.88C23.97 22.88 23.97 22.88 23.96 22.89C23.96 22.89 23.96 22.89 23.97 22.89V22.88Z" fill="#B78C4D"/>
<path d="M14.1796 38.99C15.8296 38.69 17.4896 38.45 19.1496 38.2C21.5896 37.83 23.9696 37.27 26.3496 36.59C26.6996 36.49 27.1896 36.37 27.3896 36.04C26.9796 35.78 26.4296 35.71 25.9596 35.58C25.2896 35.4 24.6296 35.23 23.9596 35.06C23.7796 35.01 23.9596 30.42 23.9596 29.92C23.9596 27.69 23.9596 25.47 23.9596 23.24C23.9396 23.26 23.9096 23.29 23.8796 23.31C23.6896 23.48 23.4396 23.67 23.1396 23.86C23.0896 23.89 23.0496 23.92 22.9896 23.95C22.9496 23.98 22.8996 24 22.8496 24.03C22.1896 24.42 21.3396 24.83 20.3396 25.24C20.1096 25.34 19.8696 25.43 19.6296 25.53C19.5896 25.55 19.5496 25.56 19.5096 25.58C19.3996 25.62 19.2896 25.66 19.1796 25.71C18.7496 25.88 18.3096 26.04 17.8496 26.2C17.2296 26.42 16.5896 26.64 15.9296 26.85C15.8996 26.85 15.8796 26.87 15.8496 26.88C15.8296 26.88 15.8196 26.89 15.7996 26.9C15.3796 27.04 15.0096 27.18 14.6596 27.32C14.2596 27.49 13.8996 27.66 13.5896 27.83C13.4496 27.91 13.3196 27.98 13.1996 28.06C11.8296 28.92 11.5996 29.68 11.5996 29.68V31.45C11.5996 34.15 11.5996 36.84 11.5996 39.54C11.6396 39.53 11.6896 39.52 11.7296 39.51C12.5396 39.32 13.3496 39.15 14.1596 39L14.1796 38.99Z" fill="#B78C4D"/>
<path d="M14.2998 39.3701C14.2998 39.3701 14.3898 39.3601 14.4298 39.3501C14.4598 39.3501 14.4898 39.3401 14.5198 39.3301C14.4498 39.3401 14.3698 39.3601 14.2998 39.3701Z" fill="#B78C4D"/>
<path d="M27.2702 36.64C26.7102 36.97 26.0602 37.13 25.4502 37.31C22.7402 38.11 19.9402 38.53 17.1602 38.95C16.2502 39.09 15.3502 39.22 14.4402 39.36C11.7102 39.89 9.03016 40.71 6.37016 41.5C5.98016 41.62 5.60016 41.73 5.21016 41.85C5.17016 41.86 5.21016 43.25 5.21016 43.34V44.66C5.46016 44.61 5.71016 44.56 5.98016 44.5C6.44016 44.41 6.92016 44.32 7.43016 44.23C12.4702 43.34 16.4102 42.67 26.2902 43.1C26.4202 43.1 26.6702 43.17 27.0002 43.29C27.1402 43.34 27.3102 43.41 27.4902 43.48V36.4C27.4902 36.48 27.4002 36.56 27.2702 36.63V36.64ZM25.1302 38.67C25.1302 38.67 25.0702 38.67 25.0302 38.67L25.1002 38.6L25.1302 38.67C25.2102 38.67 25.2802 38.67 25.3602 38.67L25.2002 38.84L25.1302 38.66V38.67ZM25.2902 39.49L25.4002 39.37L25.4502 39.5C25.3902 39.5 25.3402 39.5 25.2802 39.5L25.2902 39.49Z" fill="#B78C4D"/>
<path d="M26.8902 46.92C26.5602 47.43 26.2302 48.43 26.4102 49.5C5.02024 50.19 0.240234 47.99 0.240234 47.99V47.76V46.33C0.670234 46.17 1.11023 46.04 1.55023 45.91C2.84023 45.53 4.15023 45.22 5.46023 44.95C6.81023 44.67 8.17024 44.44 9.52024 44.21C10.8702 43.98 12.2302 43.79 13.5902 43.64C14.9602 43.5 16.3402 43.41 17.7102 43.36C19.0902 43.31 20.4702 43.3 21.8502 43.31C23.2402 43.31 24.6202 43.42 26.0002 43.42C26.5002 43.42 27.0002 43.57 27.4702 43.76C28.0002 43.98 28.0702 44.1 28.6002 44.33" fill="#B78C4D"/>
<path d="M0.240234 54.6199V57.0099H26.7202C25.7202 56.0199 24.5202 55.32 23.1002 54.9C22.2802 54.65 21.9802 54.52 21.3302 54.45C12.2702 54.75 1.36023 55.08 0.250234 54.63L0.240234 54.6199Z" fill="#D79552"/>
<path d="M45.4203 55.4001C45.6903 56.1101 45.7003 56.7101 45.5903 57.0101H45.7903L45.7603 55.9801C45.7603 54.7601 45.7603 53.9001 45.7603 52.6801C45.2903 52.7101 44.9903 52.7301 44.5303 52.7601" fill="#D79552"/>
<path d="M105.06 48.9C105.06 48.9 105.05 48.9 105.04 48.9C104.99 49.29 104.95 49.69 104.9 50.07C104.96 49.69 105.01 49.29 105.07 48.9H105.06Z" fill="#D79552"/>
<path d="M0.240234 48.51V50.07V50.43V54.11C1.35023 54.57 11.9602 54.31 21.0102 54.01C20.6402 53.8 20.3102 53.56 20.0002 53.3C19.5302 52.9 19.1902 52.5 18.9502 52.06C18.8102 51.8 18.7102 51.52 18.6302 51.22L18.4702 50.8L19.2202 51C19.4202 51.05 19.6202 51.1 19.8202 51.15C20.2502 51.25 20.6502 51.35 21.0502 51.46C21.3502 51.54 21.6502 51.63 21.9502 51.71C24.2802 52.35 26.3302 52.92 28.6602 53.56L33.1002 53.46C32.9102 53.4 33.0002 53.43 32.8202 53.37C31.6702 53.02 30.5102 52.74 29.7302 52.45C28.9502 52.16 28.0102 51.92 27.3402 51.26C27.1002 51.02 26.8902 50.75 26.7302 50.42C26.7102 50.37 26.6802 50.32 26.6602 50.27C26.5902 50.12 26.5902 50.14 26.5502 49.96L21.5002 50.07C20.3002 50.07 19.1002 50.06 17.9102 50.05C15.6502 50.04 13.3802 50.01 11.1202 49.97C9.16023 49.97 7.37023 49.91 5.24023 49.67C4.54023 49.59 4.01023 49.49 3.39023 49.37C2.30023 49.17 1.29023 48.84 0.240234 48.5V48.51Z" fill="#C06829"/>
<path d="M44.5098 52.1699C44.9698 52.1399 45.2598 52.1199 45.7398 52.0899C45.7398 51.2999 45.7698 50.7499 45.7698 49.9599C45.7698 49.8899 45.7698 49.8199 45.7698 49.7399C45.7698 49.2899 45.7698 49.2699 45.7698 48.8199C44.9398 48.8899 44.3898 48.9299 43.5898 48.9899" fill="#C06829"/>
<path d="M46.3203 57.01H49.1903L48.2103 56.01L48.4203 55.99L62.2203 54.52L62.4203 55.16C62.5603 55.61 62.7003 56.06 62.8303 56.51C62.8303 56.52 62.8303 56.54 62.8403 56.55L62.9203 56.53C63.0903 56.48 63.2603 56.44 63.4303 56.39L63.9303 56.25L62.9603 57.01H115.46V53.17L98.5803 55.55C103.55 52.38 107.39 50.53 110.24 49.7C108.69 49.38 106.96 49.11 105.07 48.89C105.02 49.28 104.96 49.68 104.9 50.06C104.95 49.67 105 49.28 105.04 48.89C104.86 48.87 104.69 48.85 104.51 48.83C104.02 48.78 103.53 48.72 103.02 48.68C102.48 48.63 101.93 48.58 101.37 48.53C100.3 48.44 99.1903 48.37 98.0503 48.3C97.5103 48.27 96.9503 48.24 96.3903 48.21C96.1703 48.2 95.9403 48.19 95.7203 48.18C95.1503 48.16 94.5603 48.13 93.9803 48.11C93.7903 48.11 93.6003 48.1 93.4103 48.09C92.9903 48.08 92.5603 48.07 92.1303 48.06C91.5303 48.05 90.9303 48.03 90.3103 48.02C90.1003 48.02 89.9003 48.02 89.6903 48.02C88.4803 48 87.2403 47.99 85.9903 47.99C85.9403 47.99 85.8903 47.99 85.8303 47.99C85.6603 47.99 85.5003 47.99 85.3303 47.99C84.6903 47.99 84.0503 47.99 83.4003 47.99C82.3503 47.99 81.2903 48.01 80.2203 48.03C79.5203 48.04 78.8103 48.06 78.1103 48.07C77.7703 48.07 77.4403 48.08 77.1003 48.09C76.1603 48.11 75.2103 48.14 74.2603 48.17C74.1703 48.17 74.0903 48.17 74.0103 48.17C72.9703 48.2 71.9303 48.24 70.8803 48.28C75.4503 48.44 79.6603 48.63 83.4003 48.86C84.0603 48.9 84.7103 48.94 85.3503 48.99L86.0003 49.04C87.2703 49.13 88.5003 49.22 89.6703 49.32L90.3203 49.38C90.9503 49.44 91.5603 49.49 92.1603 49.55C92.5903 49.59 93.0003 49.64 93.4203 49.68L93.9803 49.74C94.5403 49.8 95.0903 49.87 95.6303 49.94C95.8903 49.97 96.1503 50.01 96.4003 50.04H103H101.35H96.4003C100.04 50.53 102.57 51.1 103.92 51.73L104.35 51.93L102.38 51.97C102.02 51.97 67.4603 51.53 46.3203 52.61" fill="#D79552"/>
<path d="M93.9797 50.35C93.4497 50.28 92.8996 50.22 92.3396 50.15L91.7796 50.09C91.3696 50.05 90.9496 50 90.5196 49.96C89.9196 49.9 89.2996 49.84 88.6796 49.79L88.0296 49.73C86.8596 49.63 85.6297 49.53 84.3596 49.45L83.7096 49.4C83.0696 49.36 82.4197 49.31 81.7597 49.27C77.6297 49.02 72.8597 48.92 67.7297 48.75C64.3897 48.61 61.0496 48.56 57.7096 48.5C55.5996 48.46 53.4796 48.44 51.3696 48.5C49.6896 48.54 48.0696 48.67 46.3896 48.75V52.04C66.2696 51.14 97.2597 51.5 101.66 51.57C100.14 50.98 97.5997 50.82 93.9697 50.36L93.9797 50.35Z" fill="#C06829"/>
<path d="M29.6396 63.47V63.67C35.1496 64.08 40.6896 64.29 46.2197 64.29C51.7497 64.29 57.2796 64.08 62.7496 63.67V63.47C51.7896 62.65 40.6396 62.65 29.6396 63.47Z" fill="#407E8F"/>
<path d="M32.79 66.47V66.67C37.26 67.08 41.76 67.29 46.25 67.29C50.74 67.29 55.23 67.08 59.68 66.67V66.47C50.8 65.64 41.76 65.64 32.79 66.47Z" fill="#407E8F"/>
<path d="M35.9492 69.36V69.52C39.3992 69.84 42.8692 70 46.3292 70C49.7892 70 53.2492 69.84 56.6892 69.52V69.36C49.8392 68.72 42.8592 68.72 35.9492 69.36Z" fill="#407E8F"/>
<path d="M54.2298 56.1599C53.3798 56.2499 52.5298 56.3499 51.6298 56.4599L51.0498 56.5299L51.3398 56.8199C51.3998 56.8899 51.4598 56.9499 51.5298 57.0099H55.0598C54.8798 56.7799 54.6998 56.5499 54.5198 56.3299C54.4498 56.2399 54.3098 56.1499 54.2398 56.1599H54.2298Z" fill="#D79552"/>
<path d="M59.8103 55.49L56.3203 55.91C56.4103 56.02 56.5003 56.13 56.5803 56.24C56.8003 56.51 56.9903 56.76 57.1603 57.01H60.8503L61.1703 56.95L60.9603 56.26C60.7803 55.68 60.397 55.4234 59.8103 55.49Z" fill="#D79552"/>
<path d="M55.0498 56.09C55.1298 56.19 55.2098 56.3 55.2898 56.4C55.4498 56.61 55.6098 56.81 55.7598 57.01H56.4398C56.2698 56.8 56.1098 56.58 55.9698 56.36C55.7398 56.01 55.4898 55.93 55.0598 56.09H55.0498Z" fill="#D79552"/>
<path d="M49.6904 56.7099C49.7904 56.8099 49.8904 56.9099 49.9904 57.0099H50.7604C50.4504 56.6599 50.1404 56.5699 49.6904 56.7099Z" fill="#D79552"/>
<path d="M61.5897 55.19C61.3597 55.26 61.2497 55.3 61.3197 55.56C61.3997 55.87 61.4997 56.17 61.5997 56.49C61.6397 56.6 61.6697 56.71 61.7097 56.83C61.8997 56.79 62.0797 56.74 62.2697 56.7L61.7897 55.12C61.7297 55.15 61.6597 55.17 61.5997 55.19H61.5897Z" fill="#D79552"/>
<path d="M62.96 56.73L62.71 56.8L62.67 56.72C62.67 56.72 62.63 56.63 62.62 56.58C62.49 56.13 62.35 55.68 62.21 55.23L62.06 54.75L48.64 56.18L49.47 57.02L50.64 58.21H50.39L46.17 57.85C46.17 54.03 46.13 31.08 46.13 30.49C46.13 30.31 46.13 30.14 46.13 29.96C46.13 29.44 46.13 28.9 46.23 28.39C46.31 27.94 46.59 27.53 46.9 27.2C47.06 27.02 47.39 26.89 47.62 26.98C47.82 27.05 47.96 27.44 47.98 27.69C48.01 28 48.09 28.2 48.25 28.29C48.31 28.32 48.38 28.34 48.47 28.33H48.62C48.89 28.36 49.13 28.32 49.4 28.27C50.46 28.09 52.56 27.49 53.6 26.84C53.63 26.82 53.62 26.8 53.62 26.79C53.62 26.78 53.61 26.75 53.57 26.75C53.36 26.74 52.86 26.77 52.3 26.8C51.88 26.82 51.42 26.85 50.99 26.86C50.94 26.86 49.69 26.98 49.6 26.29C49.57 26.02 49.41 25.3 49 25.21C48.88 25.18 48.74 25.17 48.58 25.17H48.47V25.15C48.27 25.16 48.06 25.19 47.85 25.24C47.8 25.25 47.74 25.27 47.69 25.28H47.64L46.03 24.08L45.98 27.68V28.54V30.15C45.98 30.81 45.98 54.55 45.98 57.83L43.67 57.64C42.9 57.52 42.13 57.39 41.36 57.24C41 57.17 40.63 57.09 40.27 57.02C39.29 56.81 38.31 56.58 37.35 56.31L31.65 54.73C30.49 54.41 29.33 54.09 28.17 53.77C25.88 53.13 23.58 52.5 21.29 51.86C21.16 51.82 21.03 51.79 20.91 51.75C20.51 51.64 20.11 51.54 19.68 51.44C19.54 51.41 19.4 51.37 19.25 51.33C19.32 51.58 19.42 51.81 19.55 52.03C19.77 52.42 20.08 52.78 20.51 53.14C20.89 53.46 21.31 53.75 21.79 53.99C22.31 54.27 22.9 54.5 23.58 54.7C25.08 55.15 26.35 55.93 27.4 57.01C28.19 57.82 28.86 58.79 29.38 59.95C29.54 60.31 29.71 60.44 30.06 60.48C30.52 60.53 30.99 60.61 31.44 60.69C31.63 60.72 31.82 60.76 32.01 60.79L57.85 60.76L62.63 57.01L63 56.72C63 56.72 62.98 56.72 62.97 56.72L62.96 56.73ZM51.94 58.2C51.72 58.2 51.49 58.2 51.27 58.2C51.14 58.2 51.01 58.2 50.89 58.2H50.84L50.81 58.16C50.52 57.81 50.21 57.5 49.88 57.18C49.82 57.12 49.77 57.06 49.71 57.01C49.62 56.92 49.53 56.83 49.44 56.74L49.33 56.63L49.47 56.57C50.09 56.32 50.53 56.42 50.94 56.9C50.97 56.94 51.01 56.97 51.04 57.01C51.3 57.31 51.58 57.59 51.88 57.88L52.19 58.19H51.95L51.94 58.2ZM55.86 57.99C55.26 58.05 54.76 58.09 54.29 58.12C53.71 58.16 53.11 58.18 52.46 58.2H52.42L52.39 58.17C52.02 57.8 51.64 57.42 51.24 57.02C51.22 57 51.21 56.99 51.19 56.97L50.61 56.38L51.6 56.26C52.5 56.15 53.35 56.05 54.21 55.96C54.37 55.95 54.57 56.07 54.67 56.2C54.88 56.46 55.09 56.73 55.31 57.01C55.41 57.14 55.51 57.27 55.62 57.41L56.05 57.97L55.87 57.99H55.86ZM56.18 57.93L55.81 57.44C55.7 57.3 55.61 57.15 55.51 57.01C55.39 56.85 55.26 56.69 55.13 56.52C55.02 56.38 54.91 56.25 54.81 56.11L54.73 56.01L54.85 55.96C55.27 55.77 55.75 55.65 56.14 56.25C56.31 56.51 56.5 56.76 56.7 57.01C56.75 57.07 56.79 57.13 56.84 57.19C56.95 57.33 57.07 57.48 57.18 57.63L57.29 57.77L56.18 57.93ZM60.75 57.24C60.32 57.33 59.91 57.41 59.49 57.49C59.33 57.52 59.17 57.54 59.02 57.56L57.46 57.73L57.05 57.23C57 57.16 56.95 57.08 56.9 57.01C56.75 56.8 56.6 56.59 56.41 56.37C56.29 56.22 56.17 56.07 56.04 55.9L55.93 55.76L59.78 55.29C60.79 55.17 60.84 55.2 61.15 56.2L61.4 57.01L61.43 57.1L60.76 57.24H60.75ZM62.42 56.87C62.23 56.92 62.04 56.96 61.84 57.01C61.8 57.01 61.76 57.03 61.72 57.04L61.57 57.08L61.55 57.02V56.99C61.5 56.85 61.45 56.7 61.41 56.57C61.31 56.25 61.21 55.94 61.13 55.63C61.01 55.17 61.32 55.08 61.54 55.01C61.63 54.98 61.72 54.95 61.79 54.91L61.9 54.84L62.52 56.87L62.42 56.9V56.87Z" fill="#88163D"/>
<path d="M114.92 49.46C112.47 49.46 108.19 50.21 99.9004 54.99L115.39 52.63L115.26 49.47C115.15 49.47 115.04 49.47 114.92 49.47V49.46Z" fill="#C06829"/>
<path d="M33.8201 53.75L44.9601 57.01L41.4301 56.94C40.1301 56.68 38.8401 56.38 37.5801 56.03L31.8801 54.45C30.9301 54.19 30.2901 54.07 29.3301 53.81L33.8201 53.74V53.75Z" fill="#D79552"/>
<path d="M44.7801 54.59C44.5401 53.85 44.2901 53.09 44.0601 52.32C43.8201 51.51 43.5801 50.69 43.3601 49.86V49.82C43.2301 49.38 43.1201 48.94 43.0101 48.49C41.5101 42.25 41.0301 35.62 44.1001 30.44C44.4401 29.87 44.8101 29.32 45.2301 28.79C45.4801 28.46 45.4401 28.39 45.4401 28.39C45.4301 28.37 45.4001 28.36 45.3401 28.36C45.1501 28.36 44.6501 28.51 43.4601 29.06C43.3101 29.13 43.2001 29.18 43.1301 29.21C43.1301 29.21 43.1201 29.21 43.1101 29.21C39.9201 30.82 37.6801 33.38 35.4101 36.13C35.2201 36.36 35.0301 36.59 34.8401 36.83C34.5501 37.19 34.2601 37.54 33.9601 37.9C33.9601 37.9 33.9601 37.91 33.9501 37.92C33.4601 38.51 32.9401 39.22 32.4301 39.9C32.0301 40.44 31.6201 41 31.2301 41.49C30.4901 42.45 29.8301 43.33 29.2101 44.19C29.2001 44.21 29.1801 44.23 29.1701 44.25C28.7701 44.81 28.3801 45.36 28.0001 45.93C27.7801 46.26 27.5601 46.59 27.3401 46.93C27.0301 47.42 26.5601 48.37 26.7401 49.39C26.7501 49.47 26.7601 49.54 26.7801 49.62C26.8301 49.82 26.8901 50 26.9701 50.17C26.9901 50.22 27.0201 50.27 27.0501 50.32C27.2201 50.64 27.4501 50.9 27.7001 51.13C28.3301 51.69 29.1501 51.99 29.8601 52.15C30.7101 52.39 31.8001 52.72 32.9501 53.07C33.2501 53.16 33.5601 53.26 33.8801 53.35C35.4401 53.82 37.0801 54.31 38.3601 54.62L44.4601 56.5C45.1901 56.8 45.2701 56.81 45.3201 56.77C45.5001 56.62 45.2101 55.86 45.0101 55.35C44.9001 55.06 44.8001 54.79 44.7501 54.59H44.7801ZM35.5901 37.94C35.4701 38.09 35.3501 38.25 35.2301 38.41C33.7301 40.37 32.1401 42.69 30.5501 45.37C30.5501 45.38 30.5301 45.4 30.5201 45.41C29.9901 46.31 29.4601 47.25 28.9301 48.23C28.6101 48.82 28.2901 49.43 27.9801 50.05C27.9401 50.12 27.9101 50.19 27.8701 50.26L27.7701 50.46L27.6101 50.07L27.5301 49.87C27.3701 49.48 27.4101 49.04 27.6301 48.68C27.7301 48.52 27.8501 48.33 27.9801 48.11C28.1301 47.86 28.3101 47.57 28.5101 47.25C28.8901 46.64 29.3401 45.91 29.8501 45.11C29.8601 45.09 29.8701 45.08 29.8801 45.06C31.1101 43.13 32.6901 40.76 34.4601 38.42C34.7801 37.99 35.1001 37.56 35.4401 37.15C37.9501 34.19 38.8901 32.91 43.0401 29.74L43.1601 29.91C43.1501 29.97 39.7901 32.53 35.5901 37.94Z" fill="#88163D"/>
<path d="M83.4098 42.25C80.0398 41.48 77.4698 38.7 77.8798 35.97C78.0998 34.55 78.3898 33.12 78.8298 31.76C81.8598 22.32 80.1798 13.64 74.6298 5.58998C74.1198 4.83998 73.2498 4.33998 72.5398 3.72998C72.4098 3.87998 72.2698 4.03998 72.1398 4.18998C73.0298 6.00998 73.9098 7.82998 74.9098 9.85998C73.6898 10.03 72.8598 10.15 71.9898 10.28C75.3598 18.93 73.9498 26.13 67.9798 31.63C62.4598 36.71 56.0398 37.79 49.7898 34.7C48.5098 34.07 47.3698 33.35 46.3398 32.55C46.3398 35.99 46.3398 39.42 46.3398 42.86C46.3398 44.69 46.3398 46.51 46.3398 48.34C47.0298 48.29 48.6598 48.21 48.8798 48.2C50.9898 48.12 51.2698 48.13 52.8298 48.08C52.8898 48.08 52.9498 48.08 53.0098 48.08C53.5398 48.09 54.3698 48.03 54.8998 48.04C55.1898 48.04 55.8798 48.04 56.1698 48.04C57.7398 48.06 59.3098 48.09 60.8798 48.12C62.7398 48.16 64.6098 48.2 66.4698 48.25C67.4598 48.28 68.4498 48.34 69.4298 48.34C69.9098 48.32 70.3898 48.3 70.8798 48.29C71.9298 48.25 72.9698 48.21 74.0098 48.18C74.0998 48.18 74.1798 48.18 74.2598 48.18C75.2098 48.15 76.1598 48.12 77.0998 48.1C77.4398 48.1 77.7698 48.09 78.1098 48.08C78.8198 48.06 79.5198 48.05 80.2198 48.04C81.2898 48.02 82.3498 48.01 83.3998 48C83.4098 46.56 83.4098 44.57 83.3998 42.25H83.4098ZM50.4498 45.4C53.6698 40.06 61.0398 40.2 64.1198 45.4H50.4498Z" fill="#317F86"/>
<path d="M5.08965 126.43H2.44965C2.38965 127.34 2.28965 128.79 2.20965 129.6C2.41965 129.25 2.90965 128.98 3.53965 128.98C4.94965 128.98 5.42965 130.04 5.42965 131.79V133.03C5.42965 134.77 4.99965 136.14 3.11965 136.14C1.39965 136.14 0.889648 134.97 0.889648 133.61V133.43H2.04965V133.71C2.04965 134.4 2.27965 135.15 3.11965 135.15C4.05965 135.15 4.22965 134.37 4.22965 133.22V131.84C4.22965 130.67 4.04965 129.99 3.18965 129.99C2.50965 129.99 2.21965 130.38 2.04965 131.15L0.999648 131.03C1.15965 129.56 1.36965 126.5 1.42965 125.39H5.22965L5.08965 126.43Z" fill="black"/>
<path d="M11.01 127.96V133.39C11.01 135.2 10.32 136.13 8.74004 136.13C7.29004 136.13 6.54004 135.22 6.54004 133.41V128.02C6.54004 126.02 7.48004 125.25 8.81004 125.25C10.14 125.25 11.01 126 11.01 127.95V127.96ZM7.70004 127.92V133.49C7.70004 134.55 8.03004 135.05 8.79004 135.05C9.48004 135.05 9.85004 134.65 9.85004 133.45V127.91C9.85004 126.77 9.44004 126.34 8.78004 126.34C8.12004 126.34 7.70004 126.71 7.70004 127.92Z" fill="black"/>
<path d="M11.5598 125.72H12.1198V124.53H12.7898V125.72H13.4698V126.32H12.7898V129.57C12.7898 129.82 12.8298 130.06 13.1398 130.06C13.2298 130.06 13.3798 130.06 13.4398 130.03V130.55C13.2898 130.61 13.0798 130.62 12.9098 130.62C12.4398 130.62 12.1098 130.43 12.1098 129.69V126.31H11.5498V125.71L11.5598 125.72Z" fill="black"/>
<path d="M14.64 123.93V126.16C14.77 125.88 15.05 125.65 15.53 125.65C16.25 125.65 16.47 126.19 16.47 126.89V130.57H15.79V127.06C15.79 126.66 15.73 126.26 15.28 126.26C14.76 126.26 14.64 126.66 14.64 127.36V130.56H13.96V123.92H14.64V123.93Z" fill="black"/>
<path d="M21.0799 125.1V136.01H19.9199V125.1H21.0799Z" fill="black"/>
<path d="M27.1695 127.78V133.28C27.1695 135.2 26.3795 136.16 24.7495 136.16C23.1195 136.16 22.4395 135.08 22.4395 133.3V127.79C22.4395 125.94 23.2795 124.96 24.8295 124.96C26.3795 124.96 27.1695 126.06 27.1695 127.78ZM23.6395 127.72V133.38C23.6395 134.61 24.0895 135.09 24.8195 135.09C25.5895 135.09 25.9995 134.62 25.9995 133.32V127.71C25.9995 126.55 25.5995 126 24.8195 126C24.0395 126 23.6495 126.52 23.6495 127.71L23.6395 127.72Z" fill="black"/>
<path d="M29.2596 132.93V133.56C29.2596 134.59 29.6096 135.14 30.3796 135.14C31.1496 135.14 31.4696 134.57 31.4696 133.38C31.4696 132.1 31.1896 131.61 30.0396 130.71C28.8696 129.8 28.2796 129.25 28.2796 127.64C28.2796 126.26 28.6896 124.93 30.4096 124.94C32.0296 124.94 32.4596 126.03 32.4596 127.41V127.92H31.3096V127.45C31.3096 126.54 31.1296 125.96 30.3896 125.96C29.6496 125.96 29.4496 126.62 29.4496 127.47C29.4496 128.48 29.6496 128.87 30.6496 129.63C32.1596 130.77 32.6396 131.41 32.6396 133.22C32.6396 134.75 32.1996 136.15 30.3596 136.15C28.5196 136.15 28.0996 135 28.0996 133.56V132.93H29.2596Z" fill="black"/>
<path d="M38.1292 132.88V133.25C38.1292 134.64 37.8792 136.15 35.9092 136.15C33.9392 136.15 33.6992 134.81 33.6992 133.21V127.66C33.6992 125.91 34.4492 124.95 35.9292 124.95C37.7592 124.95 38.0892 126.25 38.0892 127.68V128.11H36.9092V127.6C36.9092 126.74 36.7792 126.02 35.9092 126.02C35.0892 126.02 34.8892 126.67 34.8892 127.63V133.29C34.8892 134.38 35.1292 135.1 35.9492 135.1C36.7692 135.1 36.9592 134.36 36.9592 133.34V132.88H38.1492H38.1292Z" fill="black"/>
<path d="M43.8696 127.78V133.28C43.8696 135.2 43.0796 136.16 41.4496 136.16C39.8196 136.16 39.1396 135.08 39.1396 133.3V127.79C39.1396 125.94 39.9796 124.96 41.5296 124.96C43.0796 124.96 43.8696 126.06 43.8696 127.78ZM40.3396 127.72V133.38C40.3396 134.61 40.7896 135.09 41.5196 135.09C42.2896 135.09 42.6996 134.62 42.6996 133.32V127.71C42.6996 126.55 42.2996 126 41.5196 126C40.7396 126 40.3496 126.52 40.3496 127.71L40.3396 127.72Z" fill="black"/>
<path d="M48.4998 132.52L47.9798 136H46.7998L48.5898 125.09H50.2398L52.1098 136H50.8898L50.3298 132.52H48.4898H48.4998ZM50.1898 131.46C49.8098 129.06 49.5398 127.2 49.4298 126.17H49.3798C49.3398 127.01 48.9498 129.47 48.6598 131.46H50.1898Z" fill="black"/>
<path d="M53.1499 130.22C53.1499 128.55 53.1499 128.1 53.1299 127.69H54.2399C54.2599 127.88 54.2899 128.17 54.2899 128.52C54.5399 127.91 55.0299 127.56 55.8099 127.56C56.7199 127.56 57.4499 128.08 57.4499 129.61V136.01H56.2899V129.84C56.2899 129.04 56.0199 128.63 55.4199 128.63C54.7199 128.63 54.3199 128.98 54.3199 130.55V136.01H53.1599V130.23L53.1499 130.22Z" fill="black"/>
<path d="M58.9595 130.22C58.9595 128.55 58.9595 128.1 58.9395 127.69H60.0495C60.0695 127.88 60.0995 128.17 60.0995 128.52C60.3495 127.91 60.8395 127.56 61.6195 127.56C62.5295 127.56 63.2595 128.08 63.2595 129.61V136.01H62.0995V129.84C62.0995 129.04 61.8295 128.63 61.2295 128.63C60.5295 128.63 60.1295 128.98 60.1295 130.55V136.01H58.9695V130.23L58.9595 130.22Z" fill="black"/>
<path d="M68.9795 133.76C68.9795 134.84 68.9795 135.61 68.9995 136.01H67.8895C67.8695 135.86 67.8395 135.44 67.8395 135.15C67.5795 135.9 67.0595 136.14 66.3495 136.14C65.6395 136.14 64.7295 135.87 64.7295 134.02V127.7H65.8895V133.72C65.8895 134.71 66.1595 135.09 66.7695 135.09C67.3495 135.09 67.8095 134.74 67.8095 133.15V127.7H68.9695V133.77L68.9795 133.76Z" fill="black"/>
<path d="M74.3196 134.57C74.3196 135.14 74.3196 135.76 74.3496 136.01H73.2696C73.2296 135.81 73.1896 135.48 73.1796 135.33C72.9096 135.94 72.3996 136.14 71.8196 136.14C70.6196 136.14 70.1396 135.07 70.1396 133.79V133.64C70.1396 131.76 71.3096 131.09 72.7896 131.09H73.1497V129.77C73.1497 129.02 73.0197 128.54 72.3697 128.54C71.7197 128.54 71.5497 129.03 71.5497 129.68V129.9H70.3997V129.69C70.3997 128.53 70.8597 127.54 72.4097 127.54C73.8597 127.54 74.3096 128.45 74.3096 129.67V134.54L74.3196 134.57ZM73.1796 132.02H72.7696C71.8296 132.02 71.2696 132.41 71.2696 133.61V133.75C71.2696 134.49 71.4997 135.09 72.1497 135.09C72.9097 135.09 73.1796 134.48 73.1796 133.23V132.01V132.02Z" fill="black"/>
<path d="M75.8594 136.01V124.62H77.0194V136.01H75.8594Z" fill="black"/>
<path d="M86.1598 131.45C86.1598 129.45 86.1898 127.3 86.2298 126.13H86.2098C85.9398 127.96 85.1098 132.76 84.5198 136H83.3798C82.9398 133.19 82.0798 128.07 81.8198 126.12H81.7898C81.8198 127.38 81.8798 129.86 81.8798 131.73V136H80.7998V125.09H82.5198C83.1198 128.31 83.8298 132.31 83.9798 133.7H83.9998C84.1698 132.34 84.9998 128.12 85.5998 125.09H87.2798V136H86.1498V131.45H86.1598Z" fill="black"/>
<path d="M89.7496 132.09V133.45C89.7496 134.28 89.9096 135.14 90.7296 135.14C91.5496 135.14 91.6596 134.5 91.6596 133.7V133.63H92.7996V133.69C92.7996 134.65 92.5796 136.14 90.7296 136.14C88.9996 136.14 88.5996 135 88.5996 133.31V130.21C88.5996 128.95 89.0396 127.56 90.7496 127.56C92.3496 127.56 92.8196 128.75 92.8196 130.21V132.08H89.7396L89.7496 132.09ZM91.7096 131.14V130.1C91.7096 129.33 91.5896 128.56 90.7496 128.56C89.9596 128.56 89.7596 129.21 89.7596 130.11V131.14H91.7096Z" fill="black"/>
<path d="M95.0094 132.09V133.45C95.0094 134.28 95.1694 135.14 95.9894 135.14C96.8094 135.14 96.9194 134.5 96.9194 133.7V133.63H98.0594V133.69C98.0594 134.65 97.8394 136.14 95.9894 136.14C94.2594 136.14 93.8594 135 93.8594 133.31V130.21C93.8594 128.95 94.2994 127.56 96.0094 127.56C97.6094 127.56 98.0794 128.75 98.0794 130.21V132.08H94.9994L95.0094 132.09ZM96.9694 131.14V130.1C96.9694 129.33 96.8494 128.56 96.0094 128.56C95.2194 128.56 95.0194 129.21 95.0194 130.11V131.14H96.9694Z" fill="black"/>
<path d="M98.6992 127.69H99.6492V125.65H100.799V127.69H101.969V128.72H100.799V134.3C100.799 134.73 100.879 135.14 101.399 135.14C101.559 135.14 101.799 135.12 101.919 135.09V135.99C101.669 136.09 101.299 136.12 101.019 136.12C100.209 136.12 99.6492 135.79 99.6492 134.52V128.73H98.6992V127.7V127.69Z" fill="black"/>
<path d="M102.87 127.69H104.03V136H102.87V127.69ZM102.88 124.62H104.04V126.31H102.88V124.62Z" fill="black"/>
<path d="M105.57 130.22C105.57 128.55 105.57 128.1 105.55 127.69H106.66C106.68 127.88 106.71 128.17 106.71 128.52C106.96 127.91 107.45 127.56 108.23 127.56C109.14 127.56 109.87 128.08 109.87 129.61V136.01H108.71V129.84C108.71 129.04 108.44 128.63 107.84 128.63C107.14 128.63 106.74 128.98 106.74 130.55V136.01H105.58V130.23L105.57 130.22Z" fill="black"/>
<path d="M115.479 135.83C115.479 137.52 115.289 138.94 113.209 138.94C111.479 138.94 111.149 137.78 111.149 136.87V136.83H112.319V136.88C112.319 137.29 112.469 137.95 113.269 137.95C114.129 137.95 114.319 137.31 114.319 136.11V135.04C114.099 135.61 113.649 135.91 112.909 135.91C111.639 135.91 111.149 134.98 111.149 133.37V130.03C111.149 128.57 111.779 127.56 113.079 127.56C113.929 127.56 114.319 128 114.439 128.41C114.439 128.18 114.479 127.86 114.499 127.69H115.499C115.479 128.15 115.469 128.9 115.469 129.88V135.83H115.479ZM112.329 130.1V133.28C112.329 134.35 112.609 134.87 113.239 134.87C114.189 134.87 114.339 133.92 114.339 132.8V130.34C114.339 129.38 114.239 128.62 113.349 128.62C112.639 128.62 112.329 129.15 112.329 130.09V130.1Z" fill="black"/>
<path d="M7.76035 72.91V99.06H2.11035V72.91H7.77035H7.76035Z" fill="#407E8F"/>
<path d="M38.0507 85.9C38.0507 93.18 33.6807 99.45 25.1807 99.45C16.6807 99.45 12.6807 93.49 12.6807 85.99C12.6807 78.49 17.4307 72.53 25.5507 72.53C33.2007 72.53 38.0507 77.89 38.0507 85.9ZM18.5307 85.87C18.5307 90.98 20.7707 94.84 25.4107 94.84C30.4407 94.84 32.2207 90.63 32.2207 85.97C32.2207 81.02 30.1907 77.13 25.3207 77.13C20.4507 77.13 18.5307 80.78 18.5307 85.87Z" fill="#407E8F"/>
<path d="M46.8306 91.4C47.4306 94.03 49.3106 95.18 52.3406 95.18C55.3706 95.18 56.6506 93.99 56.6506 92.07C56.6506 89.94 55.3906 89.02 50.9206 87.98C43.8006 86.31 42.0406 83.72 42.0406 80.19C42.0406 75.63 45.4506 72.54 51.6406 72.54C58.5806 72.54 61.3506 76.27 61.7306 80.1H56.0306C55.7606 78.49 54.8706 76.74 51.5006 76.74C49.2006 76.74 47.8206 77.69 47.8206 79.55C47.8206 81.41 48.9306 82.11 53.1606 83.09C60.7706 84.88 62.4306 87.71 62.4306 91.4C62.4306 96.18 58.8206 99.45 51.9006 99.45C44.9806 99.45 41.7606 96.18 41.1406 91.41H46.8406L46.8306 91.4Z" fill="#407E8F"/>
<path d="M89.1306 91C88.0806 95.88 84.4006 99.43 77.8506 99.43C69.5606 99.43 65.6406 93.56 65.6406 86.12C65.6406 78.68 69.6906 72.53 78.1306 72.53C85.0906 72.53 88.4706 76.62 89.1106 80.99H83.4506C82.9006 78.97 81.5006 76.96 77.9506 76.96C73.2906 76.96 71.4906 81.16 71.4906 85.91C71.4906 90.33 73.0506 94.99 78.1106 94.99C81.8006 94.99 82.9706 92.52 83.4606 90.99H89.1506L89.1306 91Z" fill="#407E8F"/>
<path d="M117.94 85.9C117.94 93.18 113.57 99.45 105.07 99.45C96.5703 99.45 92.5703 93.49 92.5703 85.99C92.5703 78.49 97.3203 72.53 105.44 72.53C113.09 72.53 117.94 77.89 117.94 85.9ZM98.4103 85.87C98.4103 90.98 100.65 94.84 105.29 94.84C110.32 94.84 112.1 90.63 112.1 85.97C112.1 81.02 110.07 77.13 105.2 77.13C100.33 77.13 98.4103 80.78 98.4103 85.87Z" fill="#407E8F"/>
<path d="M13.4298 111.07C13.4298 114.96 11.1398 118.36 6.62977 118.36C2.11977 118.36 0.00976562 115.16 0.00976562 111.13C0.00976562 107.1 2.48977 103.9 6.81977 103.9C10.8798 103.9 13.4398 106.81 13.4398 111.07H13.4298ZM2.72977 111.07C2.72977 113.91 4.04977 116.19 6.72977 116.19C9.61977 116.19 10.6998 113.78 10.6998 111.11C10.6998 108.44 9.47976 106.08 6.69977 106.08C3.91977 106.08 2.72977 108.25 2.72977 111.08V111.07ZM10.3798 116.17L14.4198 118.97L12.8798 120.74L7.99977 117.34L10.3798 116.17Z" fill="#407E8F"/>
<path d="M18.3898 114.58L17.1498 118.16H14.5498L19.3998 104.11H22.6898L27.7498 118.16H24.9698L23.6798 114.58H18.3798H18.3898ZM23.0898 112.39C21.9798 109.18 21.3098 107.26 20.9798 106.06H20.9598C20.6098 107.38 19.8698 109.64 18.9798 112.39H23.0998H23.0898Z" fill="#407E8F"/>
<path d="M30.9694 106.29H26.6094V104.11H37.9694V106.29H33.6194V118.16H30.9794V106.29H30.9694Z" fill="#407E8F"/>
<path d="M40.7394 114.58L39.4994 118.16H36.8994L41.7494 104.11H45.0394L50.0994 118.16H47.3194L46.0294 114.58H40.7294H40.7394ZM45.4394 112.39C44.3294 109.18 43.6594 107.26 43.3294 106.06H43.3094C42.9594 107.38 42.2194 109.64 41.3294 112.39H45.4494H45.4394Z" fill="#407E8F"/>
<path d="M54.6298 112.34V118.16H52.0498V104.11H57.9898C60.9898 104.11 62.5998 105.76 62.5998 107.93C62.5998 109.8 61.5698 110.85 60.4398 111.25C61.2898 111.52 62.3198 112.29 62.3198 114.78V115.44C62.3198 116.39 62.3098 117.52 62.5198 118.15H60.0098C59.7598 117.54 59.7398 116.47 59.7398 115.04V114.8C59.7398 113.1 59.2898 112.33 56.9398 112.33H54.6398L54.6298 112.34ZM54.6298 110.21H57.3498C59.1798 110.21 59.9198 109.52 59.9198 108.2C59.9198 106.88 59.0998 106.23 57.4698 106.23H54.6298V110.21Z" fill="#407E8F"/>
<path d="M69.54 117.85V117.68C69.54 115.33 70.74 113.27 73.79 111.02C75.9 109.45 76.52 108.93 76.52 107.56C76.52 106.19 75.86 105.42 74.48 105.42C72.97 105.42 72.36 106.29 72.12 107.71H69.5C69.72 105.26 71.31 103.28 74.47 103.28C77.99 103.28 79.24 105.43 79.24 107.52C79.24 109.61 78.34 110.58 75.7 112.5C73.87 113.84 73.04 114.76 72.76 115.56H79.78L79.43 117.84H69.53L69.54 117.85Z" fill="#407E8F"/>
<path d="M92.19 110.6C92.19 114.4 91.02 118.1 86.86 118.1C82.7 118.1 81.54 114.56 81.54 110.69C81.54 106.82 82.89 103.28 86.93 103.28C90.97 103.28 92.19 106.67 92.19 110.6ZM84.34 110.67C84.34 113.33 84.7 115.92 86.89 115.92C89.08 115.92 89.38 113.48 89.38 110.62C89.38 107.76 89 105.47 86.93 105.47C84.86 105.47 84.34 107.56 84.34 110.67Z" fill="#407E8F"/>
<path d="M94.1894 117.85V117.68C94.1894 115.33 95.3894 113.27 98.4394 111.02C100.549 109.45 101.169 108.93 101.169 107.56C101.169 106.19 100.509 105.42 99.1294 105.42C97.6194 105.42 97.0094 106.29 96.7694 107.71H94.1494C94.3694 105.26 95.9594 103.28 99.1194 103.28C102.639 103.28 103.889 105.43 103.889 107.52C103.889 109.61 102.989 110.58 100.349 112.5C98.5194 113.84 97.6894 114.76 97.4094 115.56H104.429L104.079 117.84H94.1794L94.1894 117.85Z" fill="#407E8F"/>
<path d="M116.11 105.78H110.29C110.18 106.67 109.9 108.32 109.79 108.97C110.35 108.45 111.2 108.08 112.51 108.08C115.26 108.08 116.89 110.04 116.89 112.83C116.89 115.62 115.39 118.11 111.67 118.11C108.94 118.11 106.94 116.67 106.6 114.16H109.31C109.6 115.25 110.38 116 111.74 116C113.38 116 114.17 114.81 114.17 113.05C114.17 111.44 113.55 110.26 111.79 110.26C110.32 110.26 109.73 110.89 109.34 111.84L106.88 111.49C107.28 109.65 107.87 105.46 108.09 103.55H116.5L116.12 105.79L116.11 105.78Z" fill="#407E8F"/>
</g>
<defs>
<clipPath id="clip0_1021_9291">
<rect width="117.94" height="138.94" fill="white"/>
</clipPath>
</defs>
</svg>
