<svg width="337" height="138" viewBox="0 0 337 138" fill="none" xmlns="http://www.w3.org/2000/svg">
<path d="M22.1456 1.08582V75.8128H6V1.08582H22.1742H22.1456Z" fill="#407E8F"/>
<path d="M108.704 38.2064C108.704 59.0099 96.2162 76.9272 71.9264 76.9272C47.6366 76.9272 36.2061 59.8958 36.2061 38.4635C36.2061 17.0313 49.7798 -0.00012207 72.9837 -0.00012207C94.8446 -0.00012207 108.704 15.3168 108.704 38.2064ZM52.9232 38.1206C52.9232 52.7231 59.3243 63.7535 72.5837 63.7535C86.9575 63.7535 92.0441 51.7229 92.0441 38.4064C92.0441 24.2611 86.2431 13.145 72.3265 13.145C58.4098 13.145 52.9232 23.5753 52.9232 38.1206Z" fill="#407E8F"/>
<path d="M133.794 53.9234C135.509 61.439 140.881 64.7253 149.54 64.7253C158.198 64.7253 161.856 61.3247 161.856 55.838C161.856 49.7513 158.255 47.1223 145.482 44.1503C125.135 39.3781 120.106 31.9769 120.106 21.8894C120.106 8.85864 129.851 0.0285645 147.539 0.0285645C167.371 0.0285645 175.287 10.6875 176.373 21.6322H160.084C159.313 17.0314 156.769 12.0306 147.139 12.0306C140.567 12.0306 136.623 14.7454 136.623 20.0605C136.623 25.3757 139.795 27.3761 151.883 30.1765C173.629 35.2917 178.373 43.3788 178.373 53.9234C178.373 67.5829 168.057 76.9273 148.282 76.9273C128.507 76.9273 119.306 67.5829 117.534 53.952H133.823L133.794 53.9234Z" fill="#407E8F"/>
<path d="M254.672 52.7803C251.671 66.7255 241.155 76.8701 222.438 76.8701C198.748 76.8701 187.546 60.0958 187.546 38.8351C187.546 17.5743 199.119 -0.00012207 223.238 -0.00012207C243.127 -0.00012207 252.786 11.6876 254.614 24.1754H238.44C236.869 18.403 232.868 12.6592 222.723 12.6592C209.407 12.6592 204.263 24.6612 204.263 38.235C204.263 50.8657 208.721 64.1822 223.181 64.1822C233.725 64.1822 237.069 57.1239 238.469 52.7517H254.729L254.672 52.7803Z" fill="#407E8F"/>
<path d="M336.999 38.2064C336.999 59.0099 324.511 76.9272 300.221 76.9272C275.931 76.9272 264.501 59.8958 264.501 38.4635C264.501 17.0313 278.075 -0.00012207 301.279 -0.00012207C323.14 -0.00012207 336.999 15.3168 336.999 38.2064ZM281.19 38.1206C281.19 52.7231 287.591 63.7535 300.85 63.7535C315.224 63.7535 320.31 51.7229 320.31 38.4064C320.31 24.2611 314.509 13.145 300.593 13.145C286.676 13.145 281.19 23.5753 281.19 38.1206Z" fill="#407E8F"/>
<path d="M38.3494 110.133C38.3494 121.249 31.8054 130.965 18.9175 130.965C6.02959 130.965 0 121.821 0 110.304C0 98.7882 7.08692 89.6438 19.4604 89.6438C31.0624 89.6438 38.3779 97.9595 38.3779 110.133H38.3494ZM7.77275 110.133C7.77275 118.249 11.5448 124.764 19.2033 124.764C27.4618 124.764 30.548 117.877 30.548 110.247C30.548 102.617 27.0617 95.8734 19.1175 95.8734C11.1733 95.8734 7.77275 102.074 7.77275 110.162V110.133ZM29.6336 124.707L41.1784 132.708L36.7777 137.766L22.8324 128.05L29.6336 124.707Z" fill="#407E8F"/>
<path d="M52.5231 120.163L48.9796 130.393H41.5498L55.4093 90.2438H64.8109L79.2705 130.393H71.3263L67.6399 120.163H52.4945H52.5231ZM65.9539 113.905C62.782 104.732 60.8674 99.2453 59.9244 95.8161H59.8672C58.867 99.5882 56.7524 106.046 54.2091 113.905H65.9825H65.9539Z" fill="#407E8F"/>
<path d="M88.471 96.4734H76.0117V90.2438H108.474V96.4734H96.0437V130.393H88.4995V96.4734H88.471Z" fill="#407E8F"/>
<path d="M116.39 120.163L112.847 130.393H105.417L119.276 90.2438H128.678L143.138 130.393H135.193L131.507 120.163H116.362H116.39ZM129.821 113.905C126.649 104.732 124.735 99.2453 123.792 95.8161H123.734C122.734 99.5882 120.62 106.046 118.076 113.905H129.85H129.821Z" fill="#407E8F"/>
<path d="M156.084 113.762V130.393H148.711V90.2438H165.685C174.258 90.2438 178.859 94.9589 178.859 101.16C178.859 106.504 175.916 109.504 172.686 110.647C175.115 111.419 178.059 113.619 178.059 120.735V122.621C178.059 125.335 178.03 128.565 178.63 130.365H171.458C170.743 128.622 170.686 125.564 170.686 121.478V120.792C170.686 115.934 169.4 113.733 162.685 113.733H156.112L156.084 113.762ZM156.084 107.675H163.856C169.086 107.675 171.2 105.704 171.2 101.931C171.2 98.1594 168.857 96.302 164.199 96.302H156.084V107.675Z" fill="#407E8F"/>
<path d="M198.691 129.508V129.022C198.691 122.306 202.121 116.42 210.836 109.99C216.866 105.504 218.638 104.018 218.638 100.103C218.638 96.1878 216.752 93.9874 212.808 93.9874C208.493 93.9874 206.75 96.4735 206.064 100.531H198.577C199.206 93.5302 203.749 87.8721 212.78 87.8721C222.838 87.8721 226.41 94.016 226.41 99.9884C226.41 105.961 223.839 108.733 216.294 114.219C211.065 118.049 208.693 120.678 207.893 122.964H227.954L226.953 129.479H198.663L198.691 129.508Z" fill="#407E8F"/>
<path d="M263.417 108.79C263.417 119.649 260.074 130.222 248.186 130.222C236.298 130.222 232.983 120.106 232.983 109.047C232.983 97.9881 236.841 87.8721 248.386 87.8721C259.931 87.8721 263.417 97.5594 263.417 108.79ZM240.985 108.99C240.985 116.591 242.013 123.992 248.272 123.992C254.53 123.992 255.387 117.02 255.387 108.847C255.387 100.674 254.301 94.1303 248.386 94.1303C242.471 94.1303 240.985 100.103 240.985 108.99Z" fill="#407E8F"/>
<path d="M269.13 129.508V129.022C269.13 122.306 272.559 116.42 281.275 109.99C287.304 105.504 289.076 104.018 289.076 100.103C289.076 96.1878 287.19 93.9874 283.247 93.9874C278.932 93.9874 277.188 96.4735 276.503 100.531H269.016C269.644 93.5302 274.188 87.8721 283.218 87.8721C293.277 87.8721 296.849 94.016 296.849 99.9884C296.849 105.961 294.277 108.733 286.733 114.219C281.503 118.049 279.132 120.678 278.331 122.964H298.392L297.392 129.479H269.101L269.13 129.508Z" fill="#407E8F"/>
<path d="M331.77 95.0162H315.138C314.824 97.5595 314.024 102.275 313.71 104.132C315.31 102.646 317.739 101.589 321.482 101.589C329.341 101.589 333.999 107.19 333.999 115.162C333.999 123.135 329.712 130.251 319.082 130.251C311.281 130.251 305.565 126.136 304.594 118.963H312.338C313.167 122.078 315.396 124.221 319.282 124.221C323.968 124.221 326.226 120.821 326.226 115.791C326.226 111.19 324.454 107.818 319.425 107.818C315.224 107.818 313.538 109.619 312.424 112.333L305.394 111.333C306.537 106.075 308.223 94.1017 308.852 88.6437H332.884L331.798 95.0448L331.77 95.0162Z" fill="#407E8F"/>
</svg>
