<svg width="16" height="16" viewBox="0 0 16 16" fill="none" xmlns="http://www.w3.org/2000/svg">
<path d="M7.99992 1.33337C4.87634 1.33337 2.33325 3.87646 2.33325 7.00004C2.33325 8.4023 2.84769 9.68832 3.69263 10.6771L3.69523 10.6797L3.69718 10.6823C3.69718 10.6823 6.10783 13.433 6.96606 14.252C7.54077 14.7999 8.45841 14.7999 9.03312 14.252C10.0114 13.3189 12.3033 10.681 12.3033 10.681L12.3046 10.6791L12.3066 10.6771C13.1522 9.68831 13.6666 8.4023 13.6666 7.00004C13.6666 3.87646 11.1235 1.33337 7.99992 1.33337ZM7.99992 2.33337C10.583 2.33337 12.6666 4.41696 12.6666 7.00004C12.6666 8.15844 12.2444 9.2109 11.5461 10.0274C11.5416 10.0326 9.1966 12.7145 8.34302 13.5287C8.14506 13.7174 7.85412 13.7174 7.65617 13.5287C6.94278 12.848 4.46028 10.0356 4.45304 10.0274L4.45239 10.0267C3.75503 9.21032 3.33325 8.15812 3.33325 7.00004C3.33325 4.41696 5.41683 2.33337 7.99992 2.33337ZM7.99992 5.00004C7.37492 5.00004 6.84286 5.25242 6.50122 5.63676C6.15958 6.0211 5.99992 6.51393 5.99992 7.00004C5.99992 7.48615 6.15958 7.97898 6.50122 8.36332C6.84286 8.74766 7.37492 9.00004 7.99992 9.00004C8.62492 9.00004 9.15698 8.74766 9.49862 8.36332C9.84025 7.97898 9.99992 7.48615 9.99992 7.00004C9.99992 6.51393 9.84025 6.0211 9.49862 5.63676C9.15698 5.25242 8.62492 5.00004 7.99992 5.00004ZM7.99992 6.00004C8.37492 6.00004 8.59286 6.12266 8.75122 6.30082C8.90958 6.47898 8.99992 6.73615 8.99992 7.00004C8.99992 7.26393 8.90958 7.5211 8.75122 7.69926C8.59286 7.87742 8.37492 8.00004 7.99992 8.00004C7.62492 8.00004 7.40698 7.87742 7.24862 7.69926C7.09025 7.5211 6.99992 7.26393 6.99992 7.00004C6.99992 6.73615 7.09025 6.47898 7.24862 6.30082C7.40698 6.12266 7.62492 6.00004 7.99992 6.00004Z" fill="#88163D"/>
</svg>
