<svg width="24" height="25" viewBox="0 0 24 25" fill="none" xmlns="http://www.w3.org/2000/svg">
<path d="M7.68043 2.37988C4.23883 2.37988 1.44043 5.17828 1.44043 8.61988V17.2599C1.44043 20.7015 4.23883 23.4999 7.68043 23.4999H16.3204C19.762 23.4999 22.5604 20.7015 22.5604 17.2599V8.61988C22.5604 5.17828 19.762 2.37988 16.3204 2.37988H7.68043ZM17.7604 6.21988C18.2884 6.21988 18.7204 6.65188 18.7204 7.17988C18.7204 7.70788 18.2884 8.13988 17.7604 8.13988C17.2324 8.13988 16.8004 7.70788 16.8004 7.17988C16.8004 6.65188 17.2324 6.21988 17.7604 6.21988ZM12.0004 7.65988C14.914 7.65988 17.2804 10.0263 17.2804 12.9399C17.2804 15.8535 14.914 18.2199 12.0004 18.2199C9.08683 18.2199 6.72043 15.8535 6.72043 12.9399C6.72043 10.0263 9.08683 7.65988 12.0004 7.65988ZM12.0004 8.61988C9.61963 8.61988 7.68043 10.5591 7.68043 12.9399C7.68043 15.3207 9.61963 17.2599 12.0004 17.2599C14.3812 17.2599 16.3204 15.3207 16.3204 12.9399C16.3204 10.5591 14.3812 8.61988 12.0004 8.61988Z" fill="#88163D"/>
</svg>
