<svg width="53" height="53" viewBox="0 0 53 53" fill="none" xmlns="http://www.w3.org/2000/svg">
<path d="M5.70013 8.87598C4.74333 8.87598 3.9668 9.65251 3.9668 10.6093V38.3426C3.9668 39.1504 4.53154 39.7989 5.28034 39.9913L16.1001 43.1161V11.8382L6.38398 8.99108C6.15518 8.91828 5.9428 8.87598 5.70013 8.87598ZM33.4335 9.19759L19.5668 11.9939V43.1906L33.4335 40.4213V9.19759ZM36.9001 9.30931V40.5838L46.7483 43.4309C46.9234 43.4899 47.1043 43.5426 47.3001 43.5426C48.2569 43.5426 49.0335 42.7661 49.0335 41.8093V14.076C49.0335 13.2526 48.4437 12.6545 47.6793 12.4205L36.9001 9.30931Z" fill="white"/>
</svg>
