<svg width="53" height="53" viewBox="0 0 53 53" fill="none" xmlns="http://www.w3.org/2000/svg">
<g clip-path="url(#clip0_372_12858)">
<path d="M43.6634 14.2546C44.9461 12.9719 48.3781 14.7399 51.0994 12.0186C53.3181 9.79991 53.1794 6.05591 50.7874 3.66391C48.3954 1.27191 44.6514 1.13324 42.4328 3.35191C39.7114 6.07324 41.4794 9.50524 40.1968 10.7879L39.8674 11.1172C38.6021 12.3826 37.7701 11.8452 36.5048 10.9612C35.5861 10.3199 28.7568 5.72657 28.5314 5.57057C28.4968 5.55324 28.4621 5.53591 28.4274 5.51857L28.3928 5.48391C27.6821 5.05057 26.7981 5.11991 26.2434 5.67458L25.0301 6.88791C24.1461 7.77191 24.1981 9.26258 25.1514 10.2332L44.2181 29.2999C45.1888 30.2532 46.6794 30.3052 47.5634 29.4212L48.7768 28.2079C49.3314 27.6532 49.4008 26.7692 48.9674 26.0586H48.9501C48.9328 26.0066 48.9154 25.9719 48.8808 25.9372C48.7421 25.7292 44.1314 18.8652 43.4901 17.9466C42.6061 16.6812 42.0688 15.8492 43.3341 14.5839L43.6634 14.2546ZM20.4541 19.2639C19.7645 19.2639 19.1032 19.5378 18.6156 20.0254C18.128 20.513 17.8541 21.1743 17.8541 21.8639C17.8541 22.5535 18.128 23.2148 18.6156 23.7024C19.1032 24.19 19.7645 24.4639 20.4541 24.4639C21.1436 24.4639 21.805 24.19 22.2926 23.7024C22.7802 23.2148 23.0541 22.5535 23.0541 21.8639C23.0541 21.1743 22.7802 20.513 22.2926 20.0254C21.805 19.5378 21.1436 19.2639 20.4541 19.2639ZM37.7874 36.5972C37.0979 36.5972 36.4365 36.8712 35.9489 37.3588C35.4613 37.8464 35.1874 38.5077 35.1874 39.1972C35.1874 39.8868 35.4613 40.5481 35.9489 41.0357C36.4365 41.5233 37.0979 41.7972 37.7874 41.7972C38.477 41.7972 39.1383 41.5233 39.6259 41.0357C40.1135 40.5481 40.3874 39.8868 40.3874 39.1972C40.3874 38.5077 40.1135 37.8464 39.6259 37.3588C39.1383 36.8712 38.477 36.5972 37.7874 36.5972ZM37.7874 45.2639C37.0979 45.2639 36.4365 45.5378 35.9489 46.0254C35.4613 46.513 35.1874 47.1743 35.1874 47.8639C35.1874 48.5535 35.4613 49.2148 35.9489 49.7024C36.4365 50.19 37.0979 50.4639 37.7874 50.4639C38.477 50.4639 39.1383 50.19 39.6259 49.7024C40.1135 49.2148 40.3874 48.5535 40.3874 47.8639C40.3874 47.1743 40.1135 46.513 39.6259 46.0254C39.1383 45.5378 38.477 45.2639 37.7874 45.2639ZM29.1208 45.2639C28.4312 45.2639 27.7699 45.5378 27.2823 46.0254C26.7947 46.513 26.5208 47.1743 26.5208 47.8639C26.5208 48.5535 26.7947 49.2148 27.2823 49.7024C27.7699 50.19 28.4312 50.4639 29.1208 50.4639C29.8103 50.4639 30.4716 50.19 30.9592 49.7024C31.4468 49.2148 31.7208 48.5535 31.7208 47.8639C31.7208 47.1743 31.4468 46.513 30.9592 46.0254C30.4716 45.5378 29.8103 45.2639 29.1208 45.2639ZM20.4541 45.2639C19.7645 45.2639 19.1032 45.5378 18.6156 46.0254C18.128 46.513 17.8541 47.1743 17.8541 47.8639C17.8541 48.5535 18.128 49.2148 18.6156 49.7024C19.1032 50.19 19.7645 50.4639 20.4541 50.4639C21.1436 50.4639 21.805 50.19 22.2926 49.7024C22.7802 49.2148 23.0541 48.5535 23.0541 47.8639C23.0541 47.1743 22.7802 46.513 22.2926 46.0254C21.805 45.5378 21.1436 45.2639 20.4541 45.2639ZM11.7874 45.2639C11.0979 45.2639 10.4365 45.5378 9.94894 46.0254C9.46135 46.513 9.18742 47.1743 9.18742 47.8639C9.18742 48.5535 9.46135 49.2148 9.94894 49.7024C10.4365 50.19 11.0979 50.4639 11.7874 50.4639C12.477 50.4639 13.1383 50.19 13.6259 49.7024C14.1135 49.2148 14.3874 48.5535 14.3874 47.8639C14.3874 47.1743 14.1135 46.513 13.6259 46.0254C13.1383 45.5378 12.477 45.2639 11.7874 45.2639ZM11.7874 19.2639C11.0979 19.2639 10.4365 19.5378 9.94894 20.0254C9.46135 20.513 9.18742 21.1743 9.18742 21.8639C9.18742 22.5535 9.46135 23.2148 9.94894 23.7024C10.4365 24.19 11.0979 24.4639 11.7874 24.4639C12.477 24.4639 13.1383 24.19 13.6259 23.7024C14.1135 23.2148 14.3874 22.5535 14.3874 21.8639C14.3874 21.1743 14.1135 20.513 13.6259 20.0254C13.1383 19.5378 12.477 19.2639 11.7874 19.2639ZM3.12075 19.2639C2.43119 19.2639 1.76987 19.5378 1.28227 20.0254C0.79468 20.513 0.520752 21.1743 0.520752 21.8639C0.520752 22.5535 0.79468 23.2148 1.28227 23.7024C1.76987 24.19 2.43119 24.4639 3.12075 24.4639C3.81031 24.4639 4.47163 24.19 4.95923 23.7024C5.44682 23.2148 5.72075 22.5535 5.72075 21.8639C5.72075 21.1743 5.44682 20.513 4.95923 20.0254C4.47163 19.5378 3.81031 19.2639 3.12075 19.2639ZM3.12075 27.9306C2.43119 27.9306 1.76987 28.2045 1.28227 28.6921C0.79468 29.1797 0.520752 29.841 0.520752 30.5306C0.520752 31.2201 0.79468 31.8815 1.28227 32.3691C1.76987 32.8566 2.43119 33.1306 3.12075 33.1306C3.81031 33.1306 4.47163 32.8566 4.95923 32.3691C5.44682 31.8815 5.72075 31.2201 5.72075 30.5306C5.72075 29.841 5.44682 29.1797 4.95923 28.6921C4.47163 28.2045 3.81031 27.9306 3.12075 27.9306ZM3.12075 36.5972C2.43119 36.5972 1.76987 36.8712 1.28227 37.3588C0.79468 37.8464 0.520752 38.5077 0.520752 39.1972C0.520752 39.8868 0.79468 40.5481 1.28227 41.0357C1.76987 41.5233 2.43119 41.7972 3.12075 41.7972C3.81031 41.7972 4.47163 41.5233 4.95923 41.0357C5.44682 40.5481 5.72075 39.8868 5.72075 39.1972C5.72075 38.5077 5.44682 37.8464 4.95923 37.3588C4.47163 36.8712 3.81031 36.5972 3.12075 36.5972ZM3.12075 45.2639C2.43119 45.2639 1.76987 45.5378 1.28227 46.0254C0.79468 46.513 0.520752 47.1743 0.520752 47.8639C0.520752 48.5535 0.79468 49.2148 1.28227 49.7024C1.76987 50.19 2.43119 50.4639 3.12075 50.4639C3.81031 50.4639 4.47163 50.19 4.95923 49.7024C5.44682 49.2148 5.72075 48.5535 5.72075 47.8639C5.72075 47.1743 5.44682 46.513 4.95923 46.0254C4.47163 45.5378 3.81031 45.2639 3.12075 45.2639ZM41.6129 32.6227C42.2906 31.945 42.2906 30.8495 41.6129 30.1718L24.2796 12.8384C23.6018 12.1607 22.5064 12.1607 21.8286 12.8384C21.1509 13.5162 21.1509 14.6116 21.8286 15.2894L39.162 32.6227C39.5 32.9607 39.9437 33.1306 40.3874 33.1306C40.8312 33.1306 41.2732 32.9607 41.6129 32.6227Z" fill="white"/>
</g>
<defs>
<clipPath id="clip0_372_12858">
<rect width="52" height="52" fill="white" transform="translate(0.5 0.209351)"/>
</clipPath>
</defs>
</svg>
