<svg width="53" height="53" viewBox="0 0 53 53" fill="none" xmlns="http://www.w3.org/2000/svg">
<path d="M25.6875 3.45935V6.05872C24.7125 6.38372 24.0625 7.2781 24.0625 8.33435H28.9375C28.9375 7.2781 28.2875 6.38372 27.3125 6.05872V3.45935H25.6875ZM24.0625 9.95935V15.5659L28.9375 13.9409V9.95935H24.0625ZM25.6875 11.5844H27.3125V13.2094H25.6875V11.5844ZM28.9375 15.7278L22.4375 17.84V20.5219L28.9375 18.4906V15.7278ZM32.1875 19.2222L30.5625 19.7094L20.8125 22.715V27.8344L32.1875 24.4225V19.2222ZM28.125 22.1469H29.75V23.7719H28.125V22.1469ZM23.25 23.7719H24.875V25.3969H23.25V23.7719ZM33.8125 25.6412L19.1875 30.0275V34.3344H28.9375V27.8344H33.8125V25.6412ZM30.5625 29.4594V34.3344H39.5V29.4594H30.5625ZM23.25 31.0844H24.875V32.7094H23.25V31.0844ZM33 31.0844H37.0625V32.7094H33V31.0844ZM13.5 31.8969V34.3344H17.5625V31.8969H13.5ZM13.5 35.9594V47.3344H11.875V36.2847L7 38.1525V48.9594H2.9375V50.5844H50.0625V48.9594H46V38.1525L41.125 36.2847V47.3344H39.5V35.9594H13.5ZM15.125 38.3969H20.8125V40.0219H15.125V38.3969ZM22.4375 38.3969H30.5625V40.0219H22.4375V38.3969ZM32.1875 38.3969H37.875V40.0219H32.1875V38.3969ZM8.625 40.0219H10.25V42.4594H8.625V40.0219ZM42.75 40.0219H44.375V42.4594H42.75V40.0219ZM26.5 41.6469C28.775 41.6469 30.5625 43.4343 30.5625 45.7094V47.3344H28.9375V45.7094C28.9375 44.3281 27.8813 43.2719 26.5 43.2719C25.1187 43.2719 24.0625 44.3281 24.0625 45.7094V47.3344H22.4375V45.7094C22.4375 43.4343 24.225 41.6469 26.5 41.6469ZM8.625 44.0844H10.25V47.3344H8.625V44.0844ZM42.75 44.0844H44.375V47.3344H42.75V44.0844ZM15.125 44.8969H20.8125V46.5219H15.125V44.8969ZM32.1875 44.8969H37.875V46.5219H32.1875V44.8969Z" fill="white"/>
</svg>
