<svg width="24" height="25" viewBox="0 0 24 25" fill="none" xmlns="http://www.w3.org/2000/svg">
<path d="M5.27992 2.85999C3.42424 2.85999 1.91992 4.36431 1.91992 6.21999V19.66C1.91992 21.5157 3.42424 23.02 5.27992 23.02H18.7199C20.5756 23.02 22.0799 21.5157 22.0799 19.66V6.21999C22.0799 4.36431 20.5756 2.85999 18.7199 2.85999H5.27992ZM6.28117 7.17999H10.0912L12.7968 11.0247L16.0799 7.17999H17.2799L13.3387 11.7944L18.1987 18.7H14.3896L11.2499 14.2394L7.43992 18.7H6.23992L10.708 13.4697L6.28117 7.17999ZM8.11867 8.13999L14.8902 17.74H16.3612L9.58961 8.13999H8.11867Z" fill="#88163D"/>
</svg>
