<svg width="136" height="66" viewBox="0 0 136 66" fill="none" xmlns="http://www.w3.org/2000/svg">
<path d="M21.4575 32.6366V43.0504H24.1397V32.6366V22.2148H21.4575V32.6366Z" fill="white"/>
<path d="M60.6833 31.0012C57.017 30.2797 55.3823 29.1574 55.3823 27.3776C55.3823 25.2612 57.5725 24.5076 59.4533 24.5076C61.9609 24.5076 63.7305 25.7983 64.5638 28.2435L67.0159 26.9528C65.9525 23.738 63.1433 21.822 59.485 21.822C55.4537 21.822 52.5334 24.1709 52.5334 27.4097C52.5334 30.6485 54.7713 32.6286 59.366 33.4784C62.8894 34.1358 64.4606 35.3062 64.4606 37.2784C64.4606 39.018 62.8656 40.7817 59.8262 40.7817C56.7314 40.7817 54.8427 39.1623 54.2158 35.9716L51.605 36.9657C52.4303 40.9661 55.5807 43.4593 59.8342 43.4593C64.2384 43.4593 67.4365 40.7737 67.4365 37.0699C67.4206 33.9113 65.151 31.867 60.6833 31.0012Z" fill="white"/>
<path d="M103.829 21.814C97.9252 21.814 93.1162 26.6641 93.1162 32.6366C93.1162 38.6091 97.9172 43.4593 103.829 43.4593C109.741 43.4593 114.542 38.6091 114.542 32.6366C114.542 26.6641 109.741 21.814 103.829 21.814ZM103.829 40.7416C99.4012 40.7416 95.8064 37.102 95.8064 32.6366C95.8064 28.1713 99.4091 24.5317 103.829 24.5317C108.249 24.5317 111.852 28.1713 111.852 32.6366C111.852 37.102 108.257 40.7416 103.829 40.7416Z" fill="white"/>
<path d="M38.2731 21.814C32.369 21.814 27.5601 26.6641 27.5601 32.6366C27.5601 38.6091 32.3611 43.4593 38.2731 43.4593C44.1851 43.4593 48.9861 38.6091 48.9861 32.6366C48.9861 26.6641 44.1772 21.814 38.2731 21.814ZM38.2731 40.7416C33.845 40.7416 30.2502 37.102 30.2502 32.6366C30.2502 28.1713 33.853 24.5317 38.2731 24.5317C42.7011 24.5317 46.296 28.1713 46.296 32.6366C46.296 37.102 42.6932 40.7416 38.2731 40.7416Z" fill="white"/>
<path d="M80.8716 40.7416C76.4435 40.7416 72.8487 37.102 72.8487 32.6366C72.8487 28.1713 76.4515 24.5317 80.8716 24.5317C83.6411 24.5317 86.0377 25.8544 87.5216 28.2354L89.9737 26.9447C87.9978 23.7701 84.5775 21.814 80.8795 21.814C74.9755 21.814 70.1665 26.6641 70.1665 32.6366C70.1665 38.6091 74.9675 43.4593 80.8795 43.4593C85.1092 43.4593 88.95 40.8859 90.672 36.9657L88.0612 35.9716C86.7677 38.9218 84.0617 40.7416 80.8716 40.7416Z" fill="white"/>
<path d="M19.5294 14.4707C18.5533 14.4707 17.7598 15.2724 17.7598 16.2584C17.7598 17.2445 18.5533 18.0462 19.5294 18.0462C20.5055 18.0462 21.299 17.2445 21.299 16.2584C21.299 15.2644 20.5055 14.4707 19.5294 14.4707Z" fill="white"/>
<path d="M27.8379 16.4305C27.9342 15.448 27.2239 14.5727 26.2513 14.4754C25.2788 14.3781 24.4123 15.0957 24.316 16.0782C24.2197 17.0607 24.93 17.936 25.9026 18.0333C26.8751 18.1306 27.7416 17.413 27.8379 16.4305Z" fill="white"/>
<path d="M22.7989 12.0896C23.775 12.0896 24.5686 11.288 24.5686 10.3019C24.5686 9.31584 23.775 8.51416 22.7989 8.51416C21.8229 8.51416 21.0293 9.31584 21.0293 10.3019C21.0293 11.288 21.8229 12.0896 22.7989 12.0896Z" fill="white"/>
</svg>
