<svg width="35" height="8" viewBox="0 0 35 8" fill="none" xmlns="http://www.w3.org/2000/svg">
<path d="M0.945068 1.37745V1.57745C6.45507 1.98745 11.9951 2.19745 17.5251 2.19745C23.0551 2.19745 28.5851 1.98745 34.0551 1.57745V1.37745C23.0951 0.557451 11.9451 0.557451 0.945068 1.37745Z" fill="#407E8F"/>
<path d="M4.08496 4.36737V4.56738C8.55496 4.97738 13.055 5.18737 17.545 5.18737C22.035 5.18737 26.525 4.97738 30.975 4.56738V4.36737C22.095 3.53737 13.055 3.53737 4.08496 4.36737Z" fill="#407E8F"/>
<path d="M7.25513 7.26735V7.42736C10.7051 7.74736 14.1751 7.90735 17.6351 7.90735C21.0951 7.90735 24.5551 7.74736 27.9951 7.42736V7.26735C21.1451 6.62735 14.1651 6.62735 7.25513 7.26735Z" fill="#407E8F"/>
</svg>
