<svg width="24" height="25" viewBox="0 0 24 25" fill="none" xmlns="http://www.w3.org/2000/svg">
<path d="M21.5517 7.89989C21.3604 6.84426 20.4492 6.07551 19.3917 5.83551C17.8092 5.49989 14.8804 5.25989 11.7117 5.25989C8.5448 5.25989 5.56918 5.49989 3.9848 5.83551C2.92918 6.07551 2.01605 6.79551 1.8248 7.89989C1.63168 9.09989 1.44043 10.7799 1.44043 12.9399C1.44043 15.0999 1.63168 16.7799 1.87168 17.9799C2.0648 19.0355 2.97606 19.8043 4.03168 20.0443C5.71168 20.3799 8.59168 20.6199 11.7604 20.6199C14.9292 20.6199 17.8092 20.3799 19.4892 20.0443C20.5448 19.8043 21.4561 19.0843 21.6492 17.9799C21.8404 16.7799 22.0804 15.0511 22.1292 12.9399C22.0317 10.7799 21.7917 9.09989 21.5517 7.89989ZM9.12043 16.2999V9.57989L14.9761 12.9399L9.12043 16.2999Z" fill="#88163D"/>
</svg>
