<svg width="49" height="50" viewBox="0 0 49 50" fill="none" xmlns="http://www.w3.org/2000/svg">
<path d="M8.49994 4.28002V4.18002H8.26994V2.77002C8.26994 2.77002 8.30994 2.77002 8.31994 2.77002V2.62002C8.31994 2.62002 8.34994 2.62002 8.36994 2.62002V2.45002C8.36994 2.45002 8.32994 2.45002 8.30994 2.45002C8.26994 2.45002 8.22994 2.45002 8.17994 2.44002V1.98002C8.17994 1.88002 8.15994 1.79002 8.11994 1.71002C8.03994 1.55002 7.88994 1.43002 7.70994 1.38002C7.70994 1.37002 7.70994 1.36002 7.69994 1.34002C7.69994 1.34002 7.69994 1.32002 7.68994 1.31002C7.68994 1.30002 7.67994 1.29002 7.66994 1.28002C7.66994 1.28002 7.66994 1.26002 7.65994 1.26002C7.65994 1.26002 7.64994 1.24002 7.63994 1.23002C7.63994 1.23002 7.62994 1.22002 7.61994 1.21002L7.59994 1.19002C7.59994 1.19002 7.57994 1.18002 7.57994 1.17002C7.57994 1.17002 7.55994 1.16002 7.55994 1.15002C7.55994 1.15002 7.53994 1.14002 7.52994 1.13002C7.52994 1.13002 7.52994 1.13002 7.51994 1.13002V1.09002L7.48994 0.99002C7.48994 0.98002 7.48994 0.97002 7.47994 0.96002C7.47994 0.95002 7.45994 0.93002 7.43994 0.93002C7.43994 0.93002 7.43994 0.92002 7.44994 0.91002C7.44994 0.91002 7.44994 0.89002 7.45994 0.88002C7.45994 0.86002 7.45994 0.84002 7.45994 0.82002C7.45994 0.80002 7.45994 0.78002 7.45994 0.77002C7.45994 0.77002 7.45994 0.76002 7.45994 0.75002V0.73002C7.45994 0.73002 7.44994 0.72002 7.43994 0.71002C7.43994 0.71002 7.43994 0.71002 7.43994 0.70002C7.43994 0.70002 7.42994 0.70002 7.41994 0.70002C7.42994 0.70002 7.43994 0.70002 7.44994 0.70002C7.45994 0.70002 7.46994 0.68002 7.47994 0.67002C7.47994 0.67002 7.47994 0.65002 7.47994 0.64002V0.62002C7.47994 0.62002 7.47994 0.62002 7.46994 0.61002C7.46994 0.61002 7.45994 0.61002 7.44994 0.61002C7.44994 0.61002 7.44994 0.61002 7.43994 0.61002C7.45994 0.61002 7.46994 0.59002 7.46994 0.58002C7.46994 0.58002 7.46994 0.57002 7.46994 0.56002C7.46994 0.55002 7.46994 0.55002 7.46994 0.54002C7.46994 0.52002 7.43994 0.51002 7.41994 0.51002C7.53994 0.49002 7.62994 0.39002 7.62994 0.27002C7.62994 0.13002 7.51994 0.0200195 7.36994 0.0200195C7.43994 0.0500195 7.48994 0.10002 7.51994 0.16002C7.53994 0.21002 7.54994 0.26002 7.51994 0.30002C7.49994 0.36002 7.42994 0.41002 7.35994 0.42002C7.30994 0.42002 7.25994 0.42002 7.20994 0.40002C7.17994 0.40002 7.15994 0.38002 7.13994 0.36002C7.14994 0.39002 7.16994 0.42002 7.19994 0.44002C7.21994 0.46002 7.23994 0.47002 7.26994 0.49002C7.29994 0.51002 7.33994 0.51002 7.36994 0.51002C7.36994 0.51002 7.34994 0.51002 7.34994 0.52002C7.34994 0.52002 7.33994 0.54002 7.33994 0.55002C7.33994 0.55002 7.33994 0.56002 7.33994 0.57002C7.33994 0.57002 7.33994 0.57002 7.33994 0.58002C7.33994 0.58002 7.33994 0.58002 7.34994 0.58002C7.31994 0.59002 7.28994 0.62002 7.28994 0.65002C7.28994 0.69002 7.31994 0.71002 7.36994 0.72002C7.36994 0.72002 7.35994 0.72002 7.34994 0.72002C7.34994 0.72002 7.34994 0.72002 7.33994 0.73002C7.33994 0.73002 7.33994 0.73002 7.32994 0.74002C7.32994 0.75002 7.31994 0.76002 7.30994 0.78002C7.30994 0.80002 7.30994 0.82002 7.30994 0.84002C7.30994 0.89002 7.32994 0.94002 7.34994 0.96002C7.34994 0.96002 7.32994 0.96002 7.32994 0.98002C7.31994 0.99002 7.30994 1.01002 7.30994 1.02002L7.27994 1.15002C7.25994 1.16002 7.23994 1.18002 7.20994 1.19002C7.20994 1.19002 7.20994 1.19002 7.19994 1.20002C7.17994 1.22002 7.15994 1.24002 7.13994 1.26002C7.11994 1.28002 7.10994 1.31002 7.09994 1.34002C7.09994 1.34002 7.09994 1.35002 7.09994 1.36002C7.09994 1.37002 7.09994 1.38002 7.08994 1.39002C7.05994 1.39002 7.02994 1.40002 6.99994 1.42002C6.84994 1.48002 6.72994 1.60002 6.66994 1.74002C6.63994 1.82002 6.61994 1.90002 6.61994 1.99002V2.45002C6.61994 2.45002 6.54994 2.45002 6.51994 2.45002C6.48994 2.45002 6.45994 2.45002 6.42994 2.46002V2.55002V2.63002C6.44994 2.63002 6.46994 2.63002 6.48994 2.63002V2.78002C6.48994 2.78002 6.52994 2.78002 6.53994 2.78002V4.19002H6.28994V4.29002C6.25994 4.29002 6.21994 4.29002 6.18994 4.30002V4.85002C6.18994 4.85002 6.24994 4.85002 6.26994 4.84002L6.32994 4.97002L6.34994 5.20002C6.34994 5.20002 6.35994 5.20002 6.36994 5.20002V6.09002C6.46994 5.97002 6.59994 5.85002 6.76994 5.74002C6.86994 5.67002 6.98994 5.61002 7.11994 5.55002C7.40994 5.42002 7.73994 5.27002 7.99994 5.16002C8.03994 5.14002 8.07994 5.12002 8.11994 5.11002C8.23994 5.06002 8.33994 5.02002 8.39994 4.99002C8.39994 4.99002 8.42994 4.99002 8.44994 4.99002L8.50994 4.86002C8.50994 4.86002 8.57994 4.86002 8.60994 4.88002V4.33002C8.60994 4.33002 8.53994 4.33002 8.50994 4.32002L8.49994 4.28002ZM6.86994 4.18002H6.59994V3.39002C6.63994 3.27002 6.68994 3.20002 6.72994 3.15002C6.76994 3.19002 6.82994 3.27002 6.85994 3.38002V4.17002L6.86994 4.18002ZM7.08994 4.18002H6.92994V3.39002C6.94994 3.32002 6.97994 3.26002 7.00994 3.22002C7.03994 3.26002 7.06994 3.32002 7.08994 3.38002V4.17002V4.18002ZM7.41994 4.18002H7.14994V3.39002C7.18994 3.27002 7.23994 3.20002 7.27994 3.15002C7.32994 3.20002 7.37994 3.27002 7.40994 3.39002V4.18002H7.41994ZM7.62994 4.18002H7.46994V3.39002C7.48994 3.32002 7.51994 3.26002 7.54994 3.22002C7.56994 3.25002 7.58994 3.28002 7.59994 3.32002C7.59994 3.34002 7.61994 3.37002 7.62994 3.39002V4.18002ZM7.95994 4.18002H7.68994V3.39002C7.72994 3.27002 7.77994 3.20002 7.81994 3.15002C7.82994 3.16002 7.84994 3.18002 7.86994 3.20002C7.92994 3.28002 7.95994 3.38002 7.95994 3.48002V4.16002V4.18002ZM8.17994 4.18002H8.05994C8.05994 4.18002 8.05994 4.09002 8.05994 4.00002C8.03994 3.78002 8.01994 3.42002 8.11994 3.24002C8.14994 3.28002 8.16994 3.33002 8.18994 3.40002V4.19002L8.17994 4.18002Z" fill="#88163D"/>
<path d="M25.42 23.3499C25.42 23.3499 25.39 23.2599 25.38 23.2099C25.34 23.0799 25.3 22.9499 25.27 22.8299C25.24 22.7199 25.29 22.7099 25.38 22.6799C25.4 22.6799 25.43 22.6599 25.46 22.6499L25.66 23.2999C25.58 23.3199 25.51 23.3399 25.43 23.3499H25.42Z" fill="#88163D"/>
<path d="M14.5301 14.7099C15.4501 13.5899 16.3701 12.5599 17.6801 11.8999C16.5701 10.2899 16.2701 8.15988 16.5501 5.27988C16.2601 5.19988 15.9601 5.11988 15.5101 4.98988C16.0201 3.80988 16.4801 2.71988 16.9501 1.62988C16.5901 1.65988 16.2801 1.76988 16.1701 1.98988C15.3701 3.55988 14.4201 5.09988 13.8801 6.75988C13.2001 8.87988 13.8201 11.0299 14.3201 13.1399C14.4501 13.6899 14.3801 13.7999 14.5301 14.7199V14.7099Z" fill="#88163D"/>
<path d="M13.7701 15.6001C13.0401 15.6001 12.1201 15.6001 11.3201 15.6001V17.8501C11.5101 17.9301 11.5901 18.0301 11.8501 18.1501L13.7701 15.6001Z" fill="#88163D"/>
<path d="M18.8499 13.1599C18.6399 12.9799 18.5299 12.8299 18.3499 12.6299C17.1099 14.7399 17.3099 17.4399 17.9299 19.9899C18.2599 19.9599 18.5099 19.9499 18.8499 19.9199C18.8499 17.6799 18.8499 15.3899 18.8499 13.1499V13.1599Z" fill="#88163D"/>
<path d="M37.1899 6.53002L37.1799 6.52002V6.53002H37.1899Z" fill="#88163D"/>
<path d="M37.1401 6.5301H37.1601C37.1601 6.5301 37.1601 6.5101 37.1601 6.5001L36.1401 5.6001L36.1201 5.6301L37.1301 6.5301H37.1401Z" fill="#88163D"/>
<path d="M37.1799 6.51989L37.1999 3.63989C37.1999 3.74989 37.1799 4.87989 37.1599 6.50989L37.1799 6.52989V6.51989Z" fill="#88163D"/>
<path d="M37.1799 6.53L37.1599 6.5C37.1599 6.5 37.1599 6.52 37.1599 6.53H37.1799Z" fill="#88163D"/>
<path d="M37.1399 6.53003H35.1599V6.54003H37.1499L37.1399 6.53003Z" fill="#88163D"/>
<path d="M35.1499 6.55003L35.1699 6.53003H35.1499C35.1499 6.53003 35.1499 6.54003 35.1499 6.55003Z" fill="#88163D"/>
<path d="M35.1499 6.55003C35.1499 6.55003 35.1499 6.54003 35.1499 6.53003H35.1299V6.57003L35.1499 6.55003Z" fill="#88163D"/>
<path d="M37.1999 6.53003H37.1899L37.1999 6.54003V6.53003Z" fill="#88163D"/>
<path d="M37.1799 6.54003H37.1999L37.1899 6.53003H37.1799V6.54003Z" fill="#88163D"/>
<path d="M37.1601 6.54003V6.53003H37.1401L37.1501 6.54003H37.1601Z" fill="#88163D"/>
<path d="M37.1799 6.54003V6.53003H37.1599V6.54003H37.1799Z" fill="#88163D"/>
<path d="M38.05 11.53L37.99 11.5C37.99 11.67 37.99 11.84 37.99 12.01L38.05 11.52V11.53Z" fill="#88163D"/>
<path d="M38.05 15.84L37.96 15.8C37.96 16.07 37.96 16.34 37.96 16.6L38.06 15.85L38.05 15.84Z" fill="#88163D"/>
<path d="M37.27 6.54004H37.2V6.59004H37.27V6.54004Z" fill="#88163D"/>
<path d="M35.0999 3.63012L34.22 3.92012C34.22 3.92012 34.2399 5.27012 34.2599 7.19012L34.2 7.22012L34.27 7.75012C34.28 8.88012 34.3 10.1701 34.31 11.4801L34.2 11.5301L34.32 12.4301C34.33 13.5801 34.3399 14.7201 34.3499 15.7701L34.2099 15.8401L34.36 16.9901C34.36 17.1101 34.36 17.2301 34.36 17.3401C34.36 18.3001 34.36 19.1201 34.36 19.7101C34.63 19.7101 34.89 19.7101 35.16 19.7101C35.23 19.7101 35.2999 19.7101 35.3699 19.7101C35.3899 19.7101 35.41 19.7101 35.43 19.7101C35.95 19.7101 36.46 19.7101 36.95 19.7201C37.04 19.7201 37.1199 19.7201 37.2099 19.7201C37.4599 19.7201 37.7099 19.7201 37.9599 19.7401C37.9599 19.3701 37.9599 18.9001 37.9599 18.3601C37.9399 17.9401 37.93 17.4801 37.91 17.0101C37.89 16.6001 37.88 16.1801 37.86 15.7401C37.82 14.7701 37.78 13.7401 37.74 12.7001C37.72 12.2501 37.7 11.8001 37.68 11.3501C37.64 10.3401 37.5899 9.33012 37.5499 8.39012C37.5299 7.89012 37.5099 7.41012 37.4799 6.95012C37.42 5.62012 37.36 4.47012 37.31 3.65012L37.2099 3.62012C37.2099 3.62012 37.2099 3.62012 37.2099 3.63012L36.54 4.87012H35.7799L36.16 5.58012" fill="#88163D"/>
<path d="M36.1501 5.59011V5.58011L35.1201 4.86011" fill="#88163D"/>
<path d="M37.1799 6.57004L37.1599 6.55004C37.1599 6.55004 37.1599 6.58004 37.1599 6.59004H37.1999V6.54004H37.1799V6.57004Z" fill="#88163D"/>
<path d="M37.1499 6.54004L37.1599 6.55004V6.54004H37.1499Z" fill="#88163D"/>
<path d="M37.1599 6.55004L37.1799 6.57004V6.54004H37.1599V6.55004Z" fill="#88163D"/>
<path d="M37.54 8.39007C37.58 9.34007 37.62 10.3401 37.67 11.3501L38 11.5001C38.01 10.0101 38.03 8.55007 38.05 7.32007L37.91 8.39007H37.55H37.54Z" fill="#88163D"/>
<path d="M37.72 12.7C37.76 13.74 37.8 14.77 37.84 15.74L37.95 15.79C37.95 14.6 37.97 13.3 37.98 12.01L37.89 12.7H37.72Z" fill="#88163D"/>
<path d="M38.0401 7.20991C38.0601 5.26991 38.0801 3.90991 38.0801 3.90991L37.3101 3.65991C37.3601 4.46991 37.4201 5.61991 37.4801 6.95991L38.0401 7.20991Z" fill="#88163D"/>
<path d="M37.8899 17.0101C37.9099 17.4801 37.9299 17.9301 37.9399 18.3601C37.9399 17.8301 37.9399 17.2301 37.9399 16.5901L37.8799 17.0101H37.8899Z" fill="#88163D"/>
<path d="M37.54 8.38996H37.9L38.04 7.31996C38.04 7.31996 38.04 7.24996 38.04 7.20996L37.48 6.95996C37.5 7.41996 37.52 7.89996 37.55 8.39996L37.54 8.38996Z" fill="#88163D"/>
<path d="M37.7199 12.7001H37.8899L37.9799 12.0101C37.9799 11.8401 37.9799 11.6701 37.9799 11.5001L37.6499 11.3501C37.6699 11.8001 37.6899 12.2501 37.7099 12.7001H37.7199Z" fill="#88163D"/>
<path d="M37.8901 17.01L37.9501 16.59C37.9501 16.33 37.9501 16.07 37.9501 15.79L37.8401 15.74C37.8601 16.18 37.8701 16.6 37.8901 17.01Z" fill="#88163D"/>
<path d="M36.1499 5.57988L35.6199 4.87988H35.7799L35.1099 3.62988C35.1099 3.62988 35.1099 4.08988 35.1299 4.85988L36.1499 5.57988Z" fill="#88163D"/>
<path d="M36.1501 5.57988V5.58988L35.7701 4.87988H35.6201L36.1501 5.57988Z" fill="#88163D"/>
<path d="M37.3 3.66016C37.35 4.47016 37.4101 5.62016 37.4701 6.96016C37.4901 7.42016 37.5101 7.90016 37.5401 8.40016C37.5801 9.35016 37.62 10.3502 37.67 11.3602C37.69 11.8102 37.71 12.2602 37.73 12.7102C37.77 13.7502 37.81 14.7802 37.85 15.7502C37.87 16.1902 37.8801 16.6102 37.9001 17.0202C37.9201 17.4902 37.9401 17.9402 37.9501 18.3702C37.9501 17.8402 37.9501 17.2402 37.9501 16.6002C37.9501 16.3402 37.9501 16.0802 37.9501 15.8002C37.9501 14.6102 37.97 13.3102 37.98 12.0202C37.98 11.8502 37.98 11.6802 37.98 11.5102C37.99 10.0202 38.01 8.56016 38.03 7.33016C38.03 7.29016 38.03 7.26016 38.03 7.22016C38.05 5.28016 38.07 3.92016 38.07 3.92016L37.3 3.67016V3.66016Z" fill="#88163D"/>
<path d="M35.1001 3.63012C35.1001 3.63012 35.1001 4.09012 35.1201 4.86012L36.1401 5.58012L35.7601 4.87012L35.0901 3.62012L35.1001 3.63012Z" fill="#88163D"/>
<path d="M43.29 20.0201C43.48 18.5401 43.53 16.8901 43.55 15.0901C43.55 14.8301 43.55 14.5801 43.55 14.3201C43.53 16.3601 43.48 18.2401 43.29 19.9301C43.29 19.9801 43.28 20.0201 43.27 20.0701C43.27 20.0501 43.27 20.0301 43.27 20.0101L43.29 20.0201Z" fill="#88163D"/>
<path d="M44.2 6.93994H43V7.14994H43.1C43.14 7.46994 43.17 7.79994 43.21 8.12994C43.27 8.65994 43.33 9.20994 43.37 9.77994C43.48 11.1699 43.55 12.6699 43.54 14.2699C43.54 14.2899 43.54 14.3099 43.54 14.3399C43.54 14.5899 43.54 14.8499 43.54 15.1099C43.52 16.9099 43.47 18.5599 43.28 20.0399C43.28 20.0599 43.28 20.0799 43.28 20.0999C44.06 20.1899 44.77 20.2999 45.41 20.4299C46.18 20.2099 46.77 20.1299 47.2 20.1099C47.3 20.1099 47.4 20.1099 47.48 20.1099C47.28 18.3599 47.22 16.4099 47.2 14.2699C47.18 12.0199 47.32 9.96994 47.53 8.13994C47.56 7.80994 47.6 7.47994 47.64 7.15994H47.73V6.94994H44.2V6.93994Z" fill="#88163D"/>
<path d="M40.7599 1.84C40.7599 1.84 40.8299 1.84 40.8899 1.84H40.8999C40.8699 1.61 40.8099 0.18 40.8099 0.18L40.7199 0L40.6499 0.18L40.6099 1.84C40.6699 1.84 40.7199 1.84 40.7599 1.84Z" fill="#88163D"/>
<path d="M40.57 1.84009C40.57 1.84009 40.6 1.84009 40.62 1.84009C40.6 1.84009 40.59 1.84009 40.57 1.84009C40.56 1.84009 40.54 1.84009 40.53 1.84009C40.45 1.85009 40.35 1.88009 40.25 1.93009C40.35 1.88009 40.45 1.86009 40.53 1.84009C40.55 1.84009 40.56 1.84009 40.57 1.84009Z" fill="#88163D"/>
<path d="M38.7099 7.37988C38.4899 10.5999 38.4499 14.7899 38.4699 19.7499C38.5499 19.7499 38.6299 19.7499 38.7099 19.7499V7.37988Z" fill="#88163D"/>
<path d="M42.7499 6.48C42.5799 5.78 42.3799 5.24 42.1599 4.81C41.9999 4.49 41.8299 4.24 41.6499 4.04C41.2699 3.62 40.8699 3.45 40.4899 3.41C40.3299 3.4 40.1699 3.41 40.0199 3.44C39.8099 3.48 39.6199 3.55 39.4399 3.63V19.79C39.5299 19.79 39.6199 19.79 39.7199 19.8C39.9499 19.81 40.1799 19.82 40.3999 19.84C40.8699 19.87 41.3299 19.9 41.7699 19.93C41.9999 19.95 42.2299 19.97 42.4499 19.99C42.6599 20.01 42.8599 20.03 43.0599 20.05C43.0899 14.48 43.0399 9.86 42.7599 6.47L42.7499 6.48Z" fill="#88163D"/>
<g style="mix-blend-mode:overlay" opacity="0.55">
<path d="M40.12 2C40.09 2.02 40.07 2.03 40.04 2.05C40.07 2.03 40.09 2.01 40.12 2Z" fill="#88163D"/>
</g>
<g style="mix-blend-mode:overlay" opacity="0.55">
<path d="M42.59 4.89005C42.5 3.73005 42.25 3.00005 41.96 2.55005C42.25 3.00005 42.5 3.72005 42.59 4.89005Z" fill="#88163D"/>
</g>
<path d="M39.4299 3.63C39.6099 3.55 39.7999 3.48 40.0099 3.44C40.0299 3.11 40.0599 2.79 40.0799 2.48C40.0799 2.31 40.0999 2.15 40.1099 2C40.0799 2.02 40.0599 2.03 40.0299 2.05C40.0299 2.05 40.0199 2.06 40.0099 2.07C39.9899 2.08 39.9699 2.1 39.9499 2.11C39.9499 2.11 39.9299 2.12 39.9199 2.13C39.8999 2.15 39.8799 2.16 39.8599 2.18C39.8599 2.18 39.8399 2.2 39.8299 2.2C39.7999 2.23 39.7799 2.25 39.7499 2.28C39.7199 2.31 39.6999 2.34 39.6699 2.38C39.6699 2.39 39.6499 2.4 39.6399 2.41C39.6199 2.43 39.5999 2.46 39.5899 2.48C39.5899 2.49 39.5699 2.51 39.5599 2.52C39.5399 2.55 39.5299 2.57 39.5099 2.6C39.5099 2.62 39.4899 2.63 39.4799 2.65C39.4599 2.69 39.4399 2.73 39.4099 2.77C39.4099 2.77 39.4099 2.78 39.4099 2.79V3.61L39.4299 3.63Z" fill="#88163D"/>
<path d="M41.96 2.56006C42 2.85006 42.04 3.18006 42.06 3.56006C42.1 3.95006 42.13 4.37006 42.16 4.81006C42.38 5.24006 42.58 5.79006 42.75 6.48006C42.7 5.92006 42.65 5.39006 42.59 4.90006C42.5 3.74006 42.25 3.01006 41.96 2.56006Z" fill="#88163D"/>
<path d="M41.9601 2.55988C41.8401 2.36988 41.7201 2.23988 41.5901 2.12988C41.7101 2.22988 41.8401 2.36988 41.9601 2.55988Z" fill="#88163D"/>
<g style="mix-blend-mode:overlay" opacity="0.55">
<path d="M41.9601 2.55988C41.8401 2.36988 41.7201 2.23988 41.5901 2.12988C41.7101 2.22988 41.8401 2.36988 41.9601 2.55988Z" fill="#88163D"/>
</g>
<path d="M40.2401 1.93994C40.2401 1.93994 40.1601 1.97994 40.1201 1.99994C40.1601 1.96994 40.2001 1.94994 40.2401 1.93994Z" fill="#88163D"/>
<g style="mix-blend-mode:overlay" opacity="0.55">
<path d="M40.2401 1.93994C40.2401 1.93994 40.1601 1.97994 40.1201 1.99994C40.1601 1.96994 40.2001 1.94994 40.2401 1.93994Z" fill="#88163D"/>
</g>
<path d="M42.0601 3.55988C42.0401 3.18988 42.0001 2.85988 41.9601 2.55988C41.8401 2.36988 41.7201 2.23988 41.5901 2.12988C41.6101 2.72988 41.6301 3.35988 41.6501 4.02988C41.8301 4.22988 42.0001 4.47988 42.1601 4.79988C42.1301 4.35988 42.1001 3.94988 42.0601 3.54988V3.55988Z" fill="#88163D"/>
<path d="M40.08 2.4801C40.05 2.7901 40.03 3.1101 40.01 3.4401C40.16 3.4101 40.32 3.4001 40.48 3.4101C40.49 2.8701 40.5 2.3501 40.52 1.8501C40.44 1.8601 40.34 1.8901 40.24 1.9401C40.2 1.9601 40.16 1.9801 40.12 2.0001C40.11 2.1501 40.1 2.3101 40.09 2.4801H40.08Z" fill="#88163D"/>
<path d="M41.5899 2.13009C41.3299 1.91009 41.0699 1.85009 40.8999 1.84009C41.0699 1.85009 41.3199 1.91009 41.5899 2.13009Z" fill="#88163D"/>
<g style="mix-blend-mode:overlay" opacity="0.55">
<path d="M41.5899 2.13009C41.3299 1.91009 41.0699 1.85009 40.8999 1.84009C41.0699 1.85009 41.3199 1.91009 41.5899 2.13009Z" fill="#88163D"/>
</g>
<path d="M40.52 1.8501C40.51 2.3501 40.49 2.8701 40.48 3.4101C40.87 3.4401 41.27 3.6201 41.64 4.0401C41.62 3.3701 41.6 2.7301 41.58 2.1401C41.32 1.9201 41.06 1.8601 40.89 1.8501C40.89 1.8701 40.89 1.8801 40.89 1.8801C40.91 1.9501 40.59 1.9701 40.59 1.9701V1.8501C40.59 1.8501 40.56 1.8501 40.54 1.8501C40.53 1.8501 40.51 1.8501 40.5 1.8501H40.52Z" fill="#88163D"/>
<path d="M40.9101 1.87009C40.9101 1.87009 40.9101 1.86009 40.9101 1.84009H40.9001C40.8501 1.84009 40.8001 1.84009 40.7701 1.84009C40.7401 1.84009 40.6901 1.84009 40.6201 1.84009V1.96009C40.6201 1.96009 40.9401 1.94009 40.9101 1.87009Z" fill="#88163D"/>
<path d="M39.43 19.7899V3.62988C39.31 3.68988 39.2 3.74988 39.1 3.80988C39.03 4.11988 38.98 4.47988 38.94 4.89988C38.85 5.64988 38.77 6.47988 38.71 7.38988V19.7699C38.95 19.7699 39.19 19.7899 39.43 19.7999V19.7899Z" fill="#88163D"/>
<path d="M39.4299 3.63006V2.81006C39.3999 2.86006 39.3799 2.92006 39.3499 2.98006C39.3499 3.00006 39.3299 3.02006 39.3299 3.04006C39.3099 3.10006 39.2799 3.17006 39.2599 3.23006C39.2599 3.23006 39.2599 3.24006 39.2599 3.25006C39.2399 3.32006 39.2099 3.39006 39.1899 3.47006C39.1899 3.49006 39.1799 3.51006 39.1699 3.54006C39.1499 3.62006 39.1299 3.70006 39.1099 3.79006C39.2099 3.73006 39.3199 3.67006 39.4399 3.61006L39.4299 3.63006Z" fill="#88163D"/>
<g style="mix-blend-mode:overlay" opacity="0.55">
<path d="M39.4299 3.63006V2.81006C39.3999 2.86006 39.3799 2.92006 39.3499 2.98006C39.3499 3.00006 39.3299 3.02006 39.3299 3.04006C39.3099 3.10006 39.2799 3.17006 39.2599 3.23006C39.2599 3.23006 39.2599 3.24006 39.2599 3.25006C39.2399 3.32006 39.2099 3.39006 39.1899 3.47006C39.1899 3.49006 39.1799 3.51006 39.1699 3.54006C39.1499 3.62006 39.1299 3.70006 39.1099 3.79006C39.2099 3.73006 39.3199 3.67006 39.4399 3.61006L39.4299 3.63006Z" fill="#88163D"/>
</g>
<path d="M42.59 4.89008C42.5 3.73008 42.25 3.00008 41.96 2.55008C41.84 2.36008 41.72 2.23008 41.59 2.12008C41.33 1.90008 41.07 1.84008 40.9 1.83008H40.89C40.84 1.83008 40.79 1.83008 40.76 1.83008C40.73 1.83008 40.68 1.83008 40.61 1.83008C40.59 1.83008 40.58 1.83008 40.56 1.83008C40.55 1.83008 40.53 1.83008 40.52 1.83008C40.44 1.84008 40.34 1.87008 40.24 1.92008C40.2 1.94008 40.16 1.96008 40.12 1.98008C40.09 2.00008 40.07 2.01008 40.04 2.03008C40.04 2.03008 40.03 2.04008 40.02 2.05008C40 2.06008 39.98 2.08008 39.96 2.09008C39.96 2.09008 39.94 2.10008 39.93 2.11008C39.91 2.13008 39.89 2.14008 39.87 2.16008C39.87 2.16008 39.85 2.18008 39.84 2.18008C39.81 2.21008 39.79 2.23008 39.76 2.26008C39.73 2.29008 39.71 2.32008 39.68 2.36008C39.68 2.37008 39.66 2.38008 39.65 2.39008C39.63 2.41008 39.61 2.44008 39.6 2.46008C39.6 2.47008 39.58 2.49008 39.57 2.50008C39.55 2.53008 39.54 2.55008 39.52 2.58008C39.52 2.60008 39.5 2.61008 39.49 2.63008C39.47 2.67008 39.45 2.71008 39.42 2.75008C39.42 2.75008 39.42 2.76008 39.42 2.77008C39.39 2.82008 39.37 2.88008 39.34 2.94008C39.34 2.96008 39.32 2.98008 39.32 3.00008C39.3 3.06008 39.27 3.13008 39.25 3.19008C39.25 3.19008 39.25 3.20008 39.25 3.21008C39.23 3.28008 39.2 3.35008 39.18 3.43008C39.18 3.45008 39.17 3.47008 39.16 3.50008C39.14 3.58008 39.12 3.66008 39.1 3.75008C39.03 4.06008 38.98 4.42008 38.94 4.84008C38.85 5.59008 38.77 6.42008 38.71 7.33008V19.7101C38.95 19.7101 39.19 19.7301 39.43 19.7401V3.63008C39.61 3.55008 39.8 3.48008 40.01 3.44008C40.16 3.41008 40.32 3.40008 40.48 3.41008C40.87 3.44008 41.27 3.62008 41.64 4.04008C41.82 4.24008 41.99 4.49008 42.15 4.81008C42.37 5.24008 42.57 5.79008 42.74 6.48008C42.69 5.92008 42.64 5.39008 42.58 4.90008L42.59 4.89008Z" fill="#88163D"/>
<path d="M10.3401 15.8401L10.3101 15.8701C10.3101 15.8701 10.3401 15.8701 10.3501 15.8701V15.8401H10.3401Z" fill="#88163D"/>
<path d="M10.4899 16.2099L10.4699 16.1599L10.4199 16.2099C10.4199 16.2099 10.4699 16.2099 10.4899 16.2099Z" fill="#88163D"/>
<path d="M10.4401 15.8701C10.4401 15.8701 10.3801 15.8701 10.3501 15.8701L10.3801 15.9401L10.4501 15.8701H10.4401Z" fill="#88163D"/>
<path d="M6.53006 10.84C7.00006 10.69 7.45006 10.53 7.87006 10.38C7.91006 10.37 7.94006 10.35 7.98006 10.34C8.00006 10.34 8.02006 10.32 8.04006 10.32C8.04006 10.32 8.04006 10.32 8.05006 10.32C8.16006 10.28 8.27006 10.23 8.38006 10.19C8.71006 10.06 9.00006 9.91997 9.24006 9.79997C9.43006 9.69997 9.58006 9.60997 9.71006 9.51997C9.41006 9.42997 8.84006 9.25997 8.38006 9.16997V5.21997C8.38006 5.21997 8.36006 5.21997 8.34006 5.22997C8.25006 5.25997 8.02006 5.32997 7.63006 5.48997C7.50006 5.53997 7.36006 5.59997 7.20006 5.66997C7.17006 5.67997 7.13006 5.69997 7.10006 5.70997C6.97006 5.76997 6.85006 5.82997 6.75006 5.89997C6.71006 5.92997 6.66006 5.95997 6.62006 5.98997C6.61006 5.98997 6.60006 6.00997 6.59006 6.01997C6.56006 6.03997 6.54006 6.05997 6.51006 6.08997C6.49006 6.10997 6.48006 6.11997 6.46006 6.13997C6.45006 6.14997 6.44006 6.15997 6.43006 6.16997C6.40006 6.19997 6.38006 6.22997 6.35006 6.24997C6.11006 6.53997 6.06006 6.79997 6.06006 6.79997V11.02C6.20006 10.96 6.35006 10.9 6.53006 10.85C6.53006 10.85 6.54006 10.85 6.55006 10.85L6.53006 10.84Z" fill="#88163D"/>
<path d="M5.84006 16C6.52006 15.88 7.21006 15.78 7.89006 15.67C8.90006 15.52 9.88006 15.29 10.8601 15.01C11.0001 14.97 11.2001 14.92 11.2901 14.78C11.1201 14.67 10.8901 14.64 10.7001 14.59C10.4301 14.52 10.1501 14.45 9.88006 14.37C9.80006 14.35 9.88006 12.46 9.88006 12.25C9.88006 11.33 9.88006 10.42 9.88006 9.5C9.88006 9.5 9.86006 9.52 9.85006 9.53C9.77006 9.6 9.67006 9.68 9.55006 9.76C9.53006 9.77 9.51006 9.79 9.49006 9.8C9.47006 9.81 9.45006 9.82 9.43006 9.83C9.16006 9.99 8.81006 10.16 8.40006 10.33C8.30006 10.37 8.21006 10.41 8.11006 10.45C8.09006 10.45 8.08006 10.46 8.06006 10.47C8.02006 10.49 7.97006 10.5 7.93006 10.52C7.75006 10.59 7.57006 10.66 7.38006 10.72C7.12006 10.81 6.86006 10.9 6.59006 10.99C6.58006 10.99 6.57006 10.99 6.56006 11C6.56006 11 6.55006 11 6.54006 11C6.37006 11.06 6.21006 11.11 6.07006 11.17C5.90006 11.24 5.76006 11.31 5.63006 11.38C5.57006 11.41 5.52006 11.44 5.47006 11.48C4.90006 11.84 4.81006 12.15 4.81006 12.15V16.21C4.81006 16.21 4.85006 16.21 4.86006 16.2C5.19006 16.12 5.53006 16.05 5.86006 15.99L5.84006 16Z" fill="#88163D"/>
<path d="M5.88989 16.1599C5.88989 16.1599 5.92989 16.1599 5.93989 16.1599C5.94989 16.1599 5.95989 16.1599 5.97989 16.1599C5.94989 16.1599 5.91989 16.1699 5.88989 16.1799V16.1599Z" fill="#88163D"/>
<path d="M11.23 15.0299C11 15.1599 10.73 15.2299 10.48 15.3099C9.35999 15.6399 8.20999 15.8099 7.05999 15.9799C6.68999 16.0399 6.30999 16.0899 5.93999 16.1499C4.81999 16.3699 3.70999 16.7099 2.61999 17.0299C2.45999 17.0799 2.29999 17.1299 2.13999 17.1699C2.11999 17.1699 2.13999 17.7499 2.13999 17.7799V18.3199C2.23999 18.2999 2.34999 18.2799 2.45999 18.2599C2.64999 18.2199 2.84999 18.1799 3.05999 18.1499C5.13999 17.7799 6.75999 17.5099 10.83 17.6799C10.88 17.6799 10.99 17.7099 11.12 17.7599C11.18 17.7799 11.25 17.8099 11.32 17.8399V14.9299C11.32 14.9299 11.28 14.9899 11.23 15.0299ZM10.35 15.8699C10.35 15.8699 10.32 15.8699 10.31 15.8699L10.34 15.8399V15.8699C10.34 15.8699 10.42 15.8699 10.45 15.8699L10.38 15.9399L10.35 15.8699ZM10.42 16.2099L10.47 16.1599L10.49 16.2099C10.49 16.2099 10.44 16.2099 10.42 16.2099Z" fill="#88163D"/>
<path d="M11.0801 19.27C10.9501 19.48 10.8101 19.89 10.8801 20.33C2.0701 20.61 0.100098 19.71 0.100098 19.71V19.61V19.02C0.280098 18.95 0.460098 18.9 0.640098 18.85C1.1701 18.7 1.7101 18.57 2.2501 18.45C2.8101 18.33 3.3601 18.24 3.9201 18.15C4.4801 18.06 5.0401 17.98 5.6001 17.92C6.1601 17.86 6.7301 17.82 7.3001 17.8C7.8701 17.78 8.4401 17.78 9.0101 17.78C9.5801 17.78 10.1501 17.83 10.7201 17.83C10.9301 17.83 11.1301 17.89 11.3301 17.97C11.5501 18.06 11.5801 18.11 11.7901 18.21" fill="#88163D"/>
<path d="M0.100098 22.4401V23.4201H11.0101C10.6001 23.0101 10.1101 22.7301 9.5201 22.5501C9.1801 22.4501 9.0601 22.3901 8.7901 22.3601C5.0601 22.4801 0.560098 22.6201 0.110098 22.4301L0.100098 22.4401Z" fill="#88163D"/>
<path d="M18.7101 22.7601C18.8201 23.0501 18.8301 23.3001 18.7801 23.4201H18.8601V23.0001C18.8501 22.5001 18.8601 22.1401 18.8601 21.6401C18.6601 21.6501 18.5401 21.6601 18.3501 21.6701" fill="#88163D"/>
<path d="M43.28 20.0801C43.26 20.2401 43.24 20.4001 43.22 20.5601C43.24 20.4001 43.27 20.2401 43.29 20.0801H43.28Z" fill="#88163D"/>
<path d="M0.100088 19.9199V20.5599V20.7099V22.2299C0.560088 22.4199 4.93009 22.3099 8.66009 22.1899C8.51009 22.0999 8.37009 22.0099 8.24009 21.8999C8.05009 21.7399 7.91009 21.5699 7.81009 21.3899C7.75009 21.2799 7.71009 21.1699 7.68009 21.0499L7.61009 20.8799L7.92009 20.9599C8.00009 20.9799 8.09009 20.9999 8.17009 21.0199C8.35009 21.0599 8.51009 21.0999 8.68009 21.1499C8.80009 21.1799 8.93009 21.2199 9.05009 21.2499C10.0101 21.5199 10.8501 21.7499 11.8101 22.0099L13.6401 21.9699C13.5601 21.9499 13.6001 21.9599 13.5201 21.9299C13.0501 21.7899 12.5701 21.6699 12.2501 21.5499C11.9301 21.4299 11.5401 21.3299 11.2601 21.0599C11.1601 20.9599 11.0801 20.8499 11.0101 20.7199C11.0001 20.6999 10.9901 20.6799 10.9801 20.6599C10.9501 20.5999 10.9501 20.6099 10.9301 20.5299L8.85009 20.5799C8.36009 20.5799 7.86009 20.5799 7.37009 20.5799C6.44009 20.5799 5.51009 20.5599 4.57009 20.5499C3.76009 20.5499 3.03009 20.5299 2.15009 20.4199C1.86009 20.3899 1.64009 20.3399 1.39009 20.2999C0.940088 20.2199 0.520088 20.0799 0.0900879 19.9399L0.100088 19.9199Z" fill="#88163D"/>
<path d="M18.34 21.43C18.53 21.42 18.65 21.41 18.85 21.4C18.85 21.07 18.86 20.85 18.86 20.52C18.86 20.49 18.86 20.46 18.86 20.43C18.86 20.24 18.86 20.23 18.86 20.05C18.52 20.08 18.29 20.1 17.96 20.12" fill="#88163D"/>
<path d="M19.0801 23.42H20.2601L19.8501 23.01H19.9401L25.6201 22.39L25.7001 22.66C25.7601 22.85 25.8201 23.03 25.8701 23.22C25.8701 23.22 25.8701 23.23 25.8701 23.24H25.9001C25.9701 23.21 26.0401 23.19 26.1101 23.17L26.3201 23.11L25.9201 23.42H47.5401V21.84L40.5901 22.82C42.6401 21.52 44.2201 20.75 45.3901 20.41C44.7501 20.28 44.0401 20.17 43.2601 20.08C43.2401 20.24 43.2201 20.4 43.1901 20.56C43.2101 20.4 43.2301 20.24 43.2501 20.08C43.1801 20.08 43.1001 20.06 43.0301 20.06C42.8301 20.04 42.6201 20.02 42.4201 20C42.2001 19.98 41.9701 19.96 41.7401 19.94C41.3001 19.9 40.8401 19.87 40.3701 19.85C40.1501 19.84 39.9201 19.83 39.6901 19.81C39.6001 19.81 39.5101 19.81 39.4101 19.8C39.1701 19.79 38.9301 19.78 38.6901 19.77C38.6101 19.77 38.5301 19.77 38.4501 19.77C38.2801 19.77 38.1001 19.77 37.9201 19.76C37.6701 19.76 37.4201 19.75 37.1701 19.74C37.0901 19.74 37.0001 19.74 36.9101 19.74C36.4101 19.74 35.9001 19.73 35.3901 19.73C35.3701 19.73 35.3501 19.73 35.3301 19.73C35.2601 19.73 35.1901 19.73 35.1201 19.73C34.8601 19.73 34.5901 19.73 34.3201 19.73C33.8901 19.73 33.4501 19.73 33.0101 19.75C32.7201 19.75 32.4301 19.76 32.1401 19.77C32.0001 19.77 31.8601 19.77 31.7201 19.77C31.3301 19.77 30.9401 19.79 30.5501 19.8C30.5101 19.8 30.4801 19.8 30.4501 19.8C30.0201 19.81 29.5901 19.83 29.1601 19.84C31.0401 19.91 32.7801 19.99 34.3201 20.08C34.5901 20.1 34.8601 20.11 35.1201 20.13L35.3901 20.15C35.9101 20.19 36.4201 20.23 36.9001 20.27L37.1701 20.29C37.4301 20.31 37.6801 20.34 37.9301 20.36C38.1101 20.38 38.2801 20.4 38.4501 20.41L38.6801 20.44C38.9101 20.47 39.1401 20.49 39.3601 20.52C39.4701 20.53 39.5701 20.55 39.6801 20.56H42.4001H41.7201H39.6801C41.1801 20.76 42.2201 21 42.7801 21.26L42.9601 21.34L42.1501 21.36C42.0001 21.36 27.7601 21.18 19.0601 21.62" fill="#88163D"/>
<path d="M38.7101 20.68C38.4901 20.65 38.2701 20.63 38.0301 20.6L37.8001 20.57C37.6301 20.55 37.4601 20.53 37.2801 20.52C37.0301 20.5 36.7801 20.47 36.5201 20.45L36.2501 20.43C35.7701 20.39 35.2601 20.35 34.7401 20.31L34.4701 20.29C34.2001 20.27 33.9401 20.25 33.6701 20.24C31.9701 20.13 30.0101 20.1 27.8901 20.03C26.5201 19.97 25.1401 19.95 23.7601 19.93C22.8901 19.91 22.0201 19.91 21.1501 19.93C20.4601 19.95 19.7901 20 19.1001 20.03V21.38C27.2901 21.01 40.0501 21.16 41.8701 21.19C41.2401 20.95 40.2001 20.88 38.7001 20.69L38.7101 20.68Z" fill="#88163D"/>
<path d="M12.21 26.09V26.17C14.48 26.34 16.76 26.42 19.04 26.42C21.32 26.42 23.59 26.34 25.85 26.17V26.09C21.33 25.75 16.74 25.75 12.21 26.09Z" fill="#88163D"/>
<path d="M13.51 27.32V27.4C15.35 27.57 17.2 27.66 19.05 27.66C20.9 27.66 22.75 27.58 24.58 27.41V27.33C20.92 26.99 17.2 26.99 13.5 27.33L13.51 27.32Z" fill="#88163D"/>
<path d="M14.8101 28.5099V28.5699C16.2301 28.6999 17.6601 28.7699 19.0901 28.7699C20.5201 28.7699 21.9401 28.6999 23.3601 28.5699V28.5099C20.5401 28.2499 17.6601 28.2499 14.8201 28.5099H14.8101Z" fill="#88163D"/>
<path d="M22.34 23.0701C21.99 23.1101 21.64 23.1501 21.27 23.1901L21.03 23.2201L21.15 23.3401C21.15 23.3401 21.2 23.3901 21.23 23.4201H22.68C22.61 23.3201 22.53 23.2301 22.46 23.1401C22.43 23.1001 22.37 23.0701 22.34 23.0701Z" fill="#88163D"/>
<path d="M24.6399 22.8001L23.2 22.9701C23.2 22.9701 23.2699 23.0601 23.3099 23.1001C23.3999 23.2101 23.4799 23.3101 23.5499 23.4201H25.07L25.2 23.3901L25.11 23.1101C25.0366 22.8701 24.8799 22.7635 24.6399 22.7901V22.8001Z" fill="#88163D"/>
<path d="M22.6799 23.0501C22.6799 23.0501 22.7499 23.1301 22.7799 23.1801C22.8499 23.2701 22.9099 23.3501 22.9699 23.4301H23.2499C23.1799 23.3401 23.1199 23.2501 23.0599 23.1601C22.9699 23.0101 22.8599 22.9801 22.6799 23.0501Z" fill="#88163D"/>
<path d="M20.47 23.3C20.47 23.3 20.55 23.38 20.59 23.42H20.91C20.78 23.27 20.65 23.24 20.47 23.3Z" fill="#88163D"/>
<path d="M25.37 22.6701C25.27 22.7001 25.23 22.7101 25.26 22.8201C25.29 22.9501 25.33 23.0701 25.37 23.2001C25.38 23.2501 25.4 23.2901 25.41 23.3401C25.49 23.3201 25.56 23.3001 25.64 23.2901L25.44 22.6401C25.44 22.6401 25.39 22.6601 25.36 22.6701H25.37Z" fill="#88163D"/>
<path d="M25.9399 23.3099L25.8399 23.3399V23.3099C25.8399 23.3099 25.8099 23.2699 25.7999 23.2499C25.7499 23.0599 25.6899 22.8799 25.6299 22.6899L25.5699 22.4899L20.0399 23.0799L20.3799 23.4299L20.8599 23.9199H20.7599L19.0199 23.7699C19.0199 22.1999 18.9999 12.7399 18.9999 12.4999C18.9999 12.4299 18.9999 12.3499 18.9999 12.2799C18.9999 12.0699 18.9999 11.8399 19.0399 11.6299C19.0699 11.4399 19.1899 11.2699 19.3199 11.1399C19.3899 11.0699 19.5199 11.0099 19.6099 11.0499C19.6899 11.0799 19.7499 11.2399 19.7599 11.3399C19.7699 11.4699 19.8099 11.5499 19.8699 11.5899C19.8999 11.5999 19.9199 11.6099 19.9599 11.6099H20.0199C20.1299 11.6199 20.2299 11.6099 20.3399 11.5899C20.7799 11.5199 21.6399 11.2699 22.0699 10.9999C22.0799 10.9999 22.0699 10.9799 22.0699 10.9799C22.0699 10.9799 22.0699 10.9699 22.0499 10.9599C21.9599 10.9599 21.7599 10.9599 21.5199 10.9799C21.3499 10.9799 21.1599 10.9999 20.9799 11.0099C20.9599 11.0099 20.4399 11.0599 20.4099 10.7799C20.3999 10.6699 20.3299 10.3699 20.1599 10.3299C20.1099 10.3199 20.0499 10.3099 19.9899 10.3099H19.9499C19.8699 10.3099 19.7799 10.3299 19.6899 10.3499C19.6699 10.3499 19.6499 10.3599 19.6199 10.3699H19.5999L18.9399 9.87988L18.9199 11.3599V11.7199V12.3799C18.9199 12.6499 18.9199 22.4299 18.9199 23.7799L17.9699 23.6999C17.6499 23.6499 17.3299 23.5999 17.0199 23.5299C16.8699 23.4999 16.7199 23.4699 16.5699 23.4399C16.1599 23.3499 15.7599 23.2599 15.3699 23.1499L13.0199 22.4999C12.5399 22.3699 12.0699 22.2399 11.5899 22.0999C10.6499 21.8399 9.69992 21.5799 8.75992 21.3199C8.70992 21.3099 8.64992 21.2899 8.59992 21.2799C8.42992 21.2299 8.26992 21.1899 8.09992 21.1499C8.03992 21.1399 7.97992 21.1199 7.91992 21.1099C7.94992 21.2099 7.98992 21.3099 8.03992 21.3999C8.12992 21.5599 8.25992 21.7099 8.42992 21.8599C8.58992 21.9899 8.75992 22.1099 8.95992 22.2099C9.17992 22.3199 9.41992 22.4199 9.69992 22.4999C10.3199 22.6899 10.8399 23.0099 11.2699 23.4499C11.5899 23.7799 11.8699 24.1899 12.0899 24.6599C12.1599 24.8099 12.2299 24.8599 12.3699 24.8799C12.5599 24.8999 12.7499 24.9299 12.9399 24.9699C13.0199 24.9799 13.0999 24.9999 13.1699 25.0099H23.8099L25.7799 23.4499L25.9299 23.3299C25.9299 23.3299 25.9299 23.3299 25.9199 23.3299L25.9399 23.3099ZM21.3999 23.9099C21.3099 23.9099 21.2199 23.9099 21.1199 23.9099C21.0699 23.9099 21.0099 23.9099 20.9599 23.9099H20.9399L20.9299 23.8999C20.8099 23.7599 20.6799 23.6299 20.5499 23.4999C20.5299 23.4799 20.4999 23.4499 20.4799 23.4299C20.4399 23.3899 20.4099 23.3599 20.3699 23.3199L20.3299 23.2799L20.3899 23.2599C20.6499 23.1599 20.8299 23.1999 20.9999 23.3999C21.0099 23.4199 21.0299 23.4299 21.0399 23.4399C21.1499 23.5599 21.2599 23.6799 21.3799 23.7999L21.5099 23.9299H21.4099L21.3999 23.9099ZM23.0099 23.8299C22.7599 23.8499 22.5599 23.8699 22.3599 23.8799C22.1199 23.8999 21.8799 23.9099 21.6099 23.9099H21.5899L21.5799 23.8999C21.4299 23.7499 21.2699 23.5899 21.1099 23.4199C21.1099 23.4199 21.0999 23.4099 21.0899 23.3999L20.8499 23.1599L21.2599 23.1099C21.6299 23.0699 21.9799 23.0199 22.3299 22.9899C22.3999 22.9899 22.4799 23.0399 22.5199 23.0899C22.6099 23.1999 22.6899 23.3099 22.7799 23.4199C22.8199 23.4699 22.8599 23.5299 22.9099 23.5899L23.0899 23.8199H23.0099V23.8299ZM23.1399 23.7999L22.9899 23.5999C22.9399 23.5399 22.9099 23.4799 22.8599 23.4199C22.8099 23.3499 22.7599 23.2899 22.6999 23.2199C22.6599 23.1599 22.6099 23.1099 22.5699 23.0499L22.5399 23.0099L22.5899 22.9899C22.7599 22.9099 22.9599 22.8599 23.1199 23.1099C23.1899 23.2199 23.2699 23.3199 23.3499 23.4199C23.3699 23.4499 23.3899 23.4699 23.4099 23.4999C23.4599 23.5599 23.4999 23.6199 23.5499 23.6799L23.5899 23.7399L23.1299 23.8099L23.1399 23.7999ZM25.0299 23.5199C24.8499 23.5599 24.6799 23.5899 24.5099 23.6199C24.4499 23.6299 24.3799 23.6399 24.3099 23.6499L23.6699 23.7199L23.4999 23.5199C23.4999 23.5199 23.4599 23.4599 23.4399 23.4299C23.3799 23.3399 23.3099 23.2599 23.2399 23.1599C23.1899 23.0999 23.1399 23.0399 23.0899 22.9699L23.0499 22.9099L24.6399 22.7199C25.0599 22.6699 25.0799 22.6799 25.1999 23.0899L25.2999 23.4199V23.4599L25.0299 23.5199ZM25.7099 23.3699C25.6299 23.3899 25.5499 23.4099 25.4699 23.4299C25.4499 23.4299 25.4399 23.4299 25.4199 23.4399H25.3599V23.4299C25.3399 23.3599 25.3199 23.2999 25.3099 23.2399C25.2699 23.1099 25.2299 22.9799 25.1899 22.8499C25.1399 22.6599 25.2699 22.6199 25.3599 22.5899C25.3999 22.5799 25.4399 22.5699 25.4699 22.5499L25.5199 22.5199L25.7799 23.3599H25.7399L25.7099 23.3699Z" fill="#88163D"/>
<path d="M47.3399 20.3201C46.3299 20.3201 44.5699 20.6301 41.1499 22.6001L47.5299 21.6301L47.4799 20.3301C47.4799 20.3301 47.3899 20.3301 47.3399 20.3301V20.3201Z" fill="#88163D"/>
<path d="M13.9301 22.0801L18.5201 23.4201L17.0601 23.3901C16.5201 23.2801 15.9901 23.1601 15.4701 23.0201L13.1201 22.3701C12.7301 22.2601 12.4601 22.2101 12.0701 22.1101L13.9201 22.0801H13.9301Z" fill="#88163D"/>
<path d="M18.4499 22.4301C18.3499 22.1201 18.2499 21.8101 18.1499 21.4901C18.0499 21.1601 17.9499 20.8201 17.8599 20.4801V20.4601C17.8099 20.2801 17.7599 20.1001 17.7199 19.9101C17.0999 17.3401 16.8999 14.6101 18.1699 12.4801C18.3099 12.2501 18.4599 12.0201 18.6399 11.8001C18.7399 11.6701 18.7199 11.6301 18.7199 11.6301C18.7199 11.6301 18.6999 11.6201 18.6799 11.6201C18.5999 11.6201 18.3999 11.6801 17.8999 11.9101C17.8399 11.9401 17.7899 11.9601 17.7599 11.9701C16.4399 12.6301 15.5199 13.6901 14.5899 14.8201C14.5099 14.9201 14.4299 15.0101 14.3499 15.1101C14.2299 15.2601 14.1099 15.4001 13.9899 15.5501C13.7899 15.7901 13.5699 16.0801 13.3699 16.3701C13.2099 16.5901 13.0299 16.8201 12.8799 17.0201C12.5799 17.4201 12.2999 17.7801 12.0499 18.1301C12.0499 18.1301 12.0399 18.1501 12.0299 18.1501C11.8599 18.3801 11.7099 18.6101 11.5499 18.8401C11.4599 18.9801 11.3699 19.1101 11.2799 19.2501C11.1499 19.4501 10.9599 19.8401 11.0299 20.2601C11.0299 20.2901 11.0299 20.3201 11.0499 20.3501C11.0699 20.4301 11.0999 20.5101 11.1299 20.5701C11.1399 20.5901 11.1499 20.6101 11.1599 20.6301C11.2299 20.7601 11.3199 20.8701 11.4299 20.9601C11.6899 21.1901 12.0299 21.3101 12.3199 21.3801C12.6699 21.4801 13.1199 21.6101 13.5899 21.7601C13.7099 21.8001 13.8399 21.8401 13.9699 21.8801C14.6099 22.0701 15.2899 22.2701 15.8099 22.4001L18.3199 23.1701C18.6199 23.2901 18.6499 23.3001 18.6699 23.2801C18.7399 23.2201 18.6199 22.9001 18.5399 22.7001C18.4899 22.5801 18.4499 22.4701 18.4299 22.3901L18.4499 22.4301ZM14.6599 15.5701C14.6099 15.6301 14.5599 15.7001 14.5099 15.7601C13.8899 16.5701 13.2399 17.5201 12.5799 18.6301C12.5799 18.6301 12.5799 18.6401 12.5699 18.6501C12.3499 19.0201 12.1299 19.4101 11.9199 19.8101C11.7899 20.0501 11.6599 20.3001 11.5299 20.5601C11.5199 20.5901 11.4999 20.6201 11.4899 20.6501L11.4499 20.7301L11.3799 20.5701L11.3499 20.4901C11.2799 20.3301 11.2999 20.1501 11.3899 20.0001C11.4299 19.9301 11.4799 19.8601 11.5299 19.7701C11.5899 19.6701 11.6699 19.5501 11.7499 19.4101C11.9099 19.1601 12.0899 18.8601 12.2999 18.5301C12.2999 18.5301 12.2999 18.5201 12.3099 18.5101C12.8199 17.7201 13.4699 16.7401 14.1999 15.7801C14.3299 15.6001 14.4599 15.4301 14.5999 15.2601C15.6299 14.0401 16.0199 13.5101 17.7299 12.2101L17.7799 12.2801C17.7799 12.2801 16.3899 13.3601 14.6599 15.5901V15.5701Z" fill="#88163D"/>
<path d="M34.3601 17.34C32.9701 17.02 31.9101 15.88 32.0801 14.75C32.1701 14.16 32.2901 13.58 32.4701 13.01C33.7201 9.11996 33.0301 5.53996 30.7401 2.22996C30.5301 1.91996 30.1701 1.71996 29.8801 1.45996C29.8201 1.51996 29.7701 1.58996 29.7101 1.64996C30.0801 2.39996 30.4401 3.14996 30.8501 3.98996C30.3501 4.05996 30.0101 4.10996 29.6501 4.15996C31.0401 7.71996 30.4601 10.69 28.0001 12.95C25.7301 15.04 23.0801 15.49 20.5101 14.22C19.9801 13.96 19.5101 13.66 19.0901 13.33C19.0901 14.75 19.0901 16.16 19.0901 17.58C19.0901 18.33 19.0901 19.08 19.0901 19.84C19.3701 19.82 20.0501 19.79 20.1401 19.78C21.0101 19.75 21.1201 19.75 21.7701 19.73C21.8001 19.73 21.8201 19.73 21.8501 19.73C22.0701 19.73 22.4101 19.71 22.6301 19.71C22.7501 19.71 23.0301 19.71 23.1501 19.71C23.8001 19.71 24.4401 19.73 25.0901 19.74C25.8601 19.76 26.6201 19.77 27.3901 19.8C27.8001 19.81 28.2001 19.84 28.6101 19.84C28.8101 19.84 29.0101 19.83 29.2101 19.82C29.6401 19.8 30.0701 19.79 30.5001 19.78C30.5401 19.78 30.5701 19.78 30.6001 19.78C30.9901 19.77 31.3801 19.76 31.7701 19.75C31.9101 19.75 32.0501 19.75 32.1901 19.75C32.4801 19.75 32.7701 19.74 33.0601 19.73C33.5001 19.73 33.9401 19.72 34.3701 19.71C34.3701 19.12 34.3701 18.3 34.3701 17.34H34.3601ZM20.7801 18.64C22.1101 16.44 25.1401 16.5 26.4101 18.64H20.7801Z" fill="#88163D"/>
<path d="M3.20012 29.97V40.74H0.870117V29.97H3.20012Z" fill="#88163D"/>
<path d="M15.6802 35.3201C15.6802 38.3201 13.8802 40.9001 10.3802 40.9001C6.88022 40.9001 5.23022 38.4401 5.23022 35.3601C5.23022 32.2801 7.18022 29.8201 10.5302 29.8201C13.6802 29.8201 15.6802 32.0301 15.6802 35.3301V35.3201ZM7.63022 35.3101C7.63022 37.4101 8.55022 39.0001 10.4602 39.0001C12.5302 39.0001 13.2702 37.2701 13.2702 35.3501C13.2702 33.3101 12.4402 31.7101 10.4302 31.7101C8.42022 31.7101 7.63022 33.2101 7.63022 35.3101Z" fill="#88163D"/>
<path d="M19.2902 37.5901C19.5402 38.6701 20.3102 39.1501 21.5602 39.1501C22.8102 39.1501 23.3402 38.6601 23.3402 37.8701C23.3402 36.9901 22.8202 36.6101 20.9802 36.1801C18.0502 35.4901 17.3202 34.4301 17.3202 32.9701C17.3202 31.0901 18.7202 29.8201 21.2702 29.8201C24.1302 29.8201 25.2702 31.3601 25.4202 32.9301H23.0702C22.9602 32.2701 22.5902 31.5501 21.2002 31.5501C20.2502 31.5501 19.6802 31.9401 19.6802 32.7101C19.6802 33.4801 20.1402 33.7601 21.8802 34.1701C25.0102 34.9101 25.7002 36.0701 25.7002 37.5901C25.7002 39.5601 24.2102 40.9101 21.3602 40.9101C18.5102 40.9101 17.1802 39.5601 16.9302 37.6001H19.2802L19.2902 37.5901Z" fill="#88163D"/>
<path d="M36.71 37.4301C36.28 39.4401 34.76 40.9001 32.06 40.9001C28.64 40.9001 27.03 38.4801 27.03 35.4201C27.03 32.3601 28.7 29.8201 32.17 29.8201C35.04 29.8201 36.43 31.5001 36.69 33.3001H34.36C34.14 32.4701 33.56 31.6401 32.09 31.6401C30.17 31.6401 29.43 33.3701 29.43 35.3301C29.43 37.1501 30.07 39.0701 32.16 39.0701C33.68 39.0701 34.16 38.0501 34.36 37.4201H36.7L36.71 37.4301Z" fill="#88163D"/>
<path d="M48.5801 35.3201C48.5801 38.3201 46.7801 40.9001 43.2801 40.9001C39.7801 40.9001 38.1301 38.4401 38.1301 35.3601C38.1301 32.2801 40.0801 29.8201 43.4301 29.8201C46.5801 29.8201 48.5801 32.0301 48.5801 35.3301V35.3201ZM40.5401 35.3101C40.5401 37.4101 41.4601 39.0001 43.3701 39.0001C45.4401 39.0001 46.1801 37.2701 46.1801 35.3501C46.1801 33.3101 45.3501 31.7101 43.3401 31.7101C41.3301 31.7101 40.5401 33.2101 40.5401 35.3101Z" fill="#88163D"/>
<path d="M5.53 45.69C5.53 47.29 4.59 48.69 2.73 48.69C0.87 48.69 0 47.37 0 45.71C0 44.05 1.02 42.73 2.8 42.73C4.47 42.73 5.53 43.93 5.53 45.68V45.69ZM1.12 45.69C1.12 46.86 1.67 47.8 2.77 47.8C3.96 47.8 4.4 46.81 4.4 45.71C4.4 44.61 3.9 43.64 2.75 43.64C1.6 43.64 1.12 44.53 1.12 45.7V45.69ZM4.27 47.79L5.94 48.94L5.3 49.67L3.29 48.27L4.27 47.79Z" fill="#88163D"/>
<path d="M7.58 47.1401L7.07 48.6101H6L8 42.8201H9.36L11.44 48.6101H10.3L9.77 47.1401H7.59H7.58ZM9.51 46.2401C9.05 44.9201 8.77 44.1301 8.64 43.6301C8.5 44.1701 8.19 45.1101 7.82 46.2401H9.52H9.51Z" fill="#88163D"/>
<path d="M12.76 43.7201H10.96V42.8201H15.64V43.7201H13.85V48.6101H12.76V43.7201Z" fill="#88163D"/>
<path d="M16.78 47.1401L16.27 48.6101H15.2L17.2 42.8201H18.56L20.64 48.6101H19.5L18.97 47.1401H16.79H16.78ZM18.72 46.2401C18.26 44.9201 17.98 44.1301 17.85 43.6301C17.71 44.1701 17.4 45.1101 17.03 46.2401H18.73H18.72Z" fill="#88163D"/>
<path d="M22.4999 46.2101V48.6101H21.4399V42.8201H23.8899C25.1299 42.8201 25.7899 43.5001 25.7899 44.3901C25.7899 45.1601 25.3599 45.5901 24.8999 45.7601C25.2499 45.8701 25.6799 46.1901 25.6799 47.2201V47.4901C25.6799 47.8801 25.6799 48.3501 25.7599 48.6101H24.7199C24.6199 48.3601 24.6099 47.9201 24.6099 47.3301V47.2301C24.6099 46.5301 24.4299 46.2101 23.4599 46.2101H22.5099H22.4999ZM22.4999 45.3401H23.6199C24.3699 45.3401 24.6799 45.0501 24.6799 44.5101C24.6799 43.9701 24.3399 43.7001 23.6699 43.7001H22.4999V45.3401Z" fill="#88163D"/>
<path d="M28.6499 48.48V48.41C28.6499 47.44 29.1399 46.59 30.3999 45.67C31.2699 45.02 31.5199 44.81 31.5199 44.25C31.5199 43.69 31.2499 43.37 30.6799 43.37C30.0599 43.37 29.8099 43.73 29.7099 44.31H28.6299C28.7199 43.3 29.3799 42.49 30.6799 42.49C32.1299 42.49 32.6399 43.37 32.6399 44.24C32.6399 45.11 32.2699 45.5 31.1799 46.29C30.4199 46.84 30.0799 47.22 29.9699 47.55H32.8599L32.7199 48.49H28.6399L28.6499 48.48Z" fill="#88163D"/>
<path d="M37.9801 45.5C37.9801 47.07 37.5001 48.59 35.7901 48.59C34.0801 48.59 33.6001 47.13 33.6001 45.54C33.6001 43.95 34.1601 42.49 35.8201 42.49C37.4801 42.49 37.9901 43.89 37.9901 45.5H37.9801ZM34.7401 45.53C34.7401 46.63 34.8901 47.69 35.7901 47.69C36.6901 47.69 36.8101 46.69 36.8101 45.51C36.8101 44.33 36.6501 43.39 35.8001 43.39C34.9501 43.39 34.7301 44.25 34.7301 45.53H34.7401Z" fill="#88163D"/>
<path d="M38.8 48.48V48.41C38.8 47.44 39.29 46.59 40.55 45.67C41.42 45.02 41.67 44.81 41.67 44.25C41.67 43.69 41.4 43.37 40.83 43.37C40.21 43.37 39.96 43.73 39.86 44.31H38.78C38.87 43.3 39.53 42.49 40.83 42.49C42.28 42.49 42.79 43.37 42.79 44.24C42.79 45.11 42.42 45.5 41.33 46.29C40.57 46.84 40.23 47.22 40.12 47.55H43.01L42.87 48.49H38.79L38.8 48.48Z" fill="#88163D"/>
<path d="M47.8299 43.5101H45.4299C45.3899 43.8801 45.2699 44.5601 45.2199 44.8201C45.4499 44.6101 45.7999 44.4501 46.3399 44.4501C47.4699 44.4501 48.1399 45.2601 48.1399 46.4101C48.1399 47.5601 47.5199 48.5801 45.9899 48.5801C44.8599 48.5801 44.0399 47.9901 43.8999 46.9501H45.0099C45.1299 47.4001 45.4499 47.7101 46.0099 47.7101C46.6799 47.7101 47.0099 47.2201 47.0099 46.4901C47.0099 45.8301 46.7499 45.3401 46.0299 45.3401C45.4299 45.3401 45.1799 45.6001 45.0199 45.9901L44.0099 45.8501C44.1699 45.0901 44.4199 43.3701 44.5099 42.5801H47.9699L47.8099 43.5001L47.8299 43.5101Z" fill="#88163D"/>
</svg>
