<svg width="83" height="85" viewBox="0 0 83 85" fill="none" xmlns="http://www.w3.org/2000/svg">
<path d="M14.5214 7.44922V7.27837H14.1284V4.86935C14.1284 4.86935 14.1968 4.86935 14.2139 4.86935V4.61307C14.2139 4.61307 14.2651 4.61307 14.2993 4.61307V4.32262C14.2993 4.32262 14.231 4.32262 14.1968 4.32262C14.1284 4.32262 14.0601 4.32262 13.9747 4.30553V3.51961C13.9747 3.34876 13.9405 3.19499 13.8722 3.05831C13.7355 2.78494 13.4792 2.57992 13.1717 2.49449C13.1717 2.47741 13.1717 2.46032 13.1546 2.42615C13.1546 2.42615 13.1546 2.39198 13.1375 2.3749C13.1375 2.35781 13.1204 2.34073 13.1033 2.32364C13.1033 2.32364 13.1033 2.28947 13.0862 2.28947C13.0862 2.28947 13.0692 2.2553 13.0521 2.23821C13.0521 2.23821 13.035 2.22113 13.0179 2.20404L12.9837 2.16987C12.9837 2.16987 12.9496 2.15279 12.9496 2.1357C12.9496 2.1357 12.9154 2.11862 12.9154 2.10153C12.9154 2.10153 12.8812 2.08445 12.8641 2.06736C12.8641 2.06736 12.8641 2.06736 12.847 2.06736V1.99902L12.7958 1.82817C12.7958 1.81108 12.7958 1.794 12.7787 1.77691C12.7787 1.75983 12.7445 1.72566 12.7104 1.72566C12.7104 1.72566 12.7104 1.70857 12.7274 1.69149C12.7274 1.69149 12.7274 1.65732 12.7445 1.64023C12.7445 1.60606 12.7445 1.57189 12.7445 1.53772C12.7445 1.50355 12.7445 1.46938 12.7445 1.45229C12.7445 1.45229 12.7445 1.43521 12.7445 1.41812V1.38395C12.7445 1.38395 12.7274 1.36687 12.7104 1.34978C12.7104 1.34978 12.7104 1.34978 12.7104 1.3327C12.7104 1.3327 12.6933 1.3327 12.6762 1.3327C12.6933 1.3327 12.7104 1.3327 12.7274 1.3327C12.7445 1.3327 12.7616 1.29853 12.7787 1.28144C12.7787 1.28144 12.7787 1.24727 12.7787 1.23018V1.19601C12.7787 1.19601 12.7787 1.19601 12.7616 1.17893C12.7616 1.17893 12.7445 1.17893 12.7274 1.17893C12.7274 1.17893 12.7274 1.17893 12.7104 1.17893C12.7445 1.17893 12.7616 1.14476 12.7616 1.12767C12.7616 1.12767 12.7616 1.11059 12.7616 1.0935C12.7616 1.07642 12.7616 1.07642 12.7616 1.05933C12.7616 1.02516 12.7104 1.00808 12.6762 1.00808C12.8812 0.973906 13.035 0.803053 13.035 0.59803C13.035 0.358836 12.847 0.170898 12.5908 0.170898C12.7104 0.222154 12.7958 0.307581 12.847 0.410092C12.8812 0.495518 12.8983 0.580945 12.847 0.649286C12.8129 0.751797 12.6933 0.837224 12.5737 0.854309C12.4883 0.854309 12.4028 0.854309 12.3174 0.820138C12.2661 0.820138 12.232 0.785968 12.1978 0.751797C12.2149 0.803053 12.2491 0.854309 12.3003 0.888479C12.3345 0.92265 12.3687 0.939735 12.4199 0.973906C12.4712 1.00808 12.5395 1.00808 12.5908 1.00808C12.5908 1.00808 12.5566 1.00808 12.5566 1.02516C12.5566 1.02516 12.5395 1.05933 12.5395 1.07642C12.5395 1.07642 12.5395 1.0935 12.5395 1.11059C12.5395 1.11059 12.5395 1.11059 12.5395 1.12767C12.5395 1.12767 12.5395 1.12767 12.5566 1.12767C12.5053 1.14476 12.4541 1.19601 12.4541 1.24727C12.4541 1.31561 12.5053 1.34978 12.5908 1.36687C12.5908 1.36687 12.5737 1.36687 12.5566 1.36687C12.5566 1.36687 12.5566 1.36687 12.5395 1.38395C12.5395 1.38395 12.5395 1.38395 12.5224 1.40104C12.5224 1.41812 12.5053 1.43521 12.4883 1.46938C12.4883 1.50355 12.4883 1.53772 12.4883 1.57189C12.4883 1.65732 12.5224 1.74274 12.5566 1.77691C12.5566 1.77691 12.5224 1.77691 12.5224 1.81108C12.5053 1.82817 12.4883 1.86234 12.4883 1.87942L12.437 2.10153C12.4028 2.11862 12.3687 2.15279 12.3174 2.16987C12.3174 2.16987 12.3174 2.16987 12.3003 2.18696C12.2661 2.22113 12.232 2.2553 12.1978 2.28947C12.1636 2.32364 12.1466 2.3749 12.1295 2.42615C12.1295 2.42615 12.1295 2.44324 12.1295 2.46032C12.1295 2.47741 12.1295 2.49449 12.1124 2.51158C12.0611 2.51158 12.0099 2.52866 11.9586 2.56283C11.7023 2.66535 11.4973 2.87037 11.3948 3.10956C11.3435 3.24625 11.3094 3.38293 11.3094 3.53669V4.32262C11.3094 4.32262 11.1898 4.32262 11.1385 4.32262C11.0873 4.32262 11.036 4.32262 10.9848 4.3397V4.49347V4.63015C11.0189 4.63015 11.0531 4.63015 11.0873 4.63015V4.88643C11.0873 4.88643 11.1556 4.88643 11.1727 4.88643V7.29545H10.7456V7.4663C10.6943 7.4663 10.626 7.46631 10.5747 7.48339V8.42308C10.5747 8.42308 10.6772 8.42308 10.7114 8.40599L10.8139 8.6281L10.8481 9.02106C10.8481 9.02106 10.8652 9.02106 10.8822 9.02106V10.5417C11.0531 10.3366 11.2752 10.1316 11.5657 9.94367C11.7365 9.82407 11.9415 9.72156 12.1636 9.61905C12.6591 9.39694 13.2229 9.14066 13.6671 8.95272C13.7355 8.91855 13.8038 8.88438 13.8722 8.8673C14.0772 8.78187 14.248 8.71353 14.3505 8.66227C14.3505 8.66227 14.4018 8.66227 14.436 8.66227L14.5385 8.44017C14.5385 8.44017 14.6581 8.44017 14.7093 8.47434V7.53465C14.7093 7.53465 14.5897 7.53465 14.5385 7.51756L14.5214 7.44922ZM11.7365 7.27837H11.2752V5.92863C11.3435 5.72361 11.429 5.60401 11.4973 5.51859C11.5657 5.58693 11.6682 5.72361 11.7194 5.91155V7.26128L11.7365 7.27837ZM12.1124 7.27837H11.839V5.92863C11.8732 5.80903 11.9244 5.70652 11.9757 5.63818C12.027 5.70652 12.0782 5.80903 12.1124 5.91155V7.26128V7.27837ZM12.6762 7.27837H12.2149V5.92863C12.2832 5.72361 12.3687 5.60401 12.437 5.51859C12.5224 5.60401 12.6079 5.72361 12.6591 5.92863V7.27837H12.6762ZM13.035 7.27837H12.7616V5.92863C12.7958 5.80903 12.847 5.70652 12.8983 5.63818C12.9325 5.68944 12.9666 5.74069 12.9837 5.80903C12.9837 5.84321 13.0179 5.89446 13.035 5.92863V7.27837ZM13.5988 7.27837H13.1375V5.92863C13.2058 5.72361 13.2913 5.60401 13.3596 5.51859C13.3767 5.53567 13.4109 5.56984 13.445 5.60401C13.5475 5.74069 13.5988 5.91155 13.5988 6.0824V7.2442V7.27837ZM13.9747 7.27837H13.7697C13.7697 7.27837 13.7697 7.1246 13.7697 6.97083C13.7355 6.59496 13.7013 5.97989 13.8722 5.67235C13.9234 5.74069 13.9576 5.82612 13.9918 5.94572V7.29545L13.9747 7.27837Z" fill="white"/>
<path d="M43.4299 40.0309C43.4299 40.0309 43.3786 39.8772 43.3615 39.7917C43.2932 39.5696 43.2248 39.3475 43.1736 39.1425C43.1223 38.9546 43.2078 38.9375 43.3615 38.8862C43.3957 38.8862 43.447 38.852 43.4982 38.835L43.8399 39.9455C43.7032 39.9797 43.5836 40.0138 43.447 40.0309H43.4299Z" fill="white"/>
<path d="M24.8253 25.2689C26.3971 23.3554 27.969 21.5956 30.2071 20.468C28.3107 17.7172 27.7981 14.0781 28.2765 9.15751C27.781 9.02083 27.2685 8.88414 26.4996 8.66203C27.371 6.64597 28.1569 4.78368 28.9599 2.92139C28.3448 2.97264 27.8152 3.16058 27.6272 3.53646C26.2604 6.21884 24.6373 8.84997 23.7147 11.6861C22.5529 15.3082 23.6122 18.9815 24.4665 22.5865C24.6886 23.5262 24.569 23.7141 24.8253 25.286V25.2689Z" fill="white"/>
<path d="M23.5267 26.79C22.2795 26.79 20.7076 26.79 19.3408 26.79V30.6342C19.6654 30.7709 19.8021 30.9418 20.2463 31.1468L23.5267 26.79Z" fill="white"/>
<path d="M32.2044 22.6209C31.8456 22.3133 31.6576 22.057 31.3501 21.7153C29.2315 25.3203 29.5732 29.9333 30.6325 34.2901C31.1963 34.2388 31.6235 34.2217 32.2044 34.1705C32.2044 30.3434 32.2044 26.4309 32.2044 22.6038V22.6209Z" fill="white"/>
<path d="M63.5396 11.2935L63.5225 11.2764V11.2935H63.5396Z" fill="white"/>
<path d="M63.4546 11.2935H63.4888C63.4888 11.2935 63.4888 11.2593 63.4888 11.2423L61.7461 9.70459L61.7119 9.75585L63.4375 11.2935H63.4546Z" fill="white"/>
<path d="M63.5234 11.2765L63.5576 6.35596C63.5576 6.54389 63.5234 8.47453 63.4893 11.2594L63.5234 11.2936V11.2765Z" fill="white"/>
<path d="M63.5233 11.2931L63.4893 11.2419C63.4893 11.2419 63.4893 11.276 63.4893 11.2931H63.5233Z" fill="white"/>
<path d="M63.4547 11.2932H60.0718V11.3103H63.4717L63.4547 11.2932Z" fill="white"/>
<path d="M60.0537 11.327L60.0875 11.2932H60.0537C60.0537 11.2932 60.0537 11.3101 60.0537 11.327Z" fill="white"/>
<path d="M60.0546 11.3273C60.0546 11.3273 60.0546 11.3102 60.0546 11.2932H60.0205V11.3614L60.0546 11.3273Z" fill="white"/>
<path d="M63.5562 11.2932H63.5391L63.5562 11.3104V11.2932Z" fill="white"/>
<path d="M63.5225 11.3101H63.5562L63.5393 11.2932H63.5225V11.3101Z" fill="white"/>
<path d="M63.4879 11.3101V11.2932H63.4541L63.471 11.3101H63.4879Z" fill="white"/>
<path d="M63.523 11.3101V11.2932H63.4893V11.3101H63.523Z" fill="white"/>
<path d="M65.0097 19.8362L64.9072 19.7849C64.9072 20.0754 64.9072 20.3658 64.9072 20.6563L65.0097 19.8191V19.8362Z" fill="white"/>
<path d="M65.0092 27.1997L64.8555 27.1313C64.8555 27.5926 64.8555 28.054 64.8555 28.4982L65.0263 27.2168L65.0092 27.1997Z" fill="white"/>
<path d="M63.6753 11.3105H63.5557V11.396H63.6753V11.3105Z" fill="white"/>
<path d="M59.9678 6.33886L58.4643 6.83434C58.4643 6.83434 58.4985 9.14085 58.5327 12.4212L58.4302 12.4725L58.5498 13.378C58.5669 15.3086 58.601 17.5126 58.6181 19.7508L58.4302 19.8362L58.6352 21.3739C58.6523 23.3387 58.6694 25.2864 58.6865 27.0804L58.4473 27.2L58.7035 29.1648C58.7035 29.3698 58.7035 29.5748 58.7035 29.7628C58.7035 31.4029 58.7035 32.8039 58.7035 33.812C59.1648 33.812 59.6091 33.812 60.0704 33.812C60.19 33.812 60.3096 33.812 60.4291 33.812C60.4633 33.812 60.4975 33.812 60.5317 33.812C61.4201 33.812 62.2914 33.812 63.1286 33.829C63.2824 33.829 63.4191 33.829 63.5728 33.829C64 33.829 64.4271 33.829 64.8542 33.8632C64.8542 33.2311 64.8542 32.4281 64.8542 31.5055C64.8201 30.7879 64.803 30.0019 64.7688 29.1989C64.7346 28.4984 64.7176 27.7809 64.6834 27.0291C64.615 25.3718 64.5467 23.6121 64.4784 21.8352C64.4442 21.0664 64.41 20.2975 64.3758 19.5287C64.3075 17.8031 64.2221 16.0775 64.1537 14.4714C64.1196 13.6172 64.0854 12.7971 64.0341 12.0112C63.9316 9.73883 63.8291 7.77402 63.7437 6.37303L63.5728 6.32178C63.5728 6.32178 63.5728 6.32178 63.5728 6.33886L62.4281 8.45743H61.1296L61.7789 9.67049" fill="white"/>
<path d="M61.7637 9.68717V9.67008L60.0039 8.43994" fill="white"/>
<path d="M63.5234 11.3618L63.4893 11.3276C63.4893 11.3276 63.4893 11.3789 63.4893 11.396H63.5576V11.3105H63.5234V11.3618Z" fill="white"/>
<path d="M63.4707 11.3105L63.4878 11.3277V11.3105H63.4707Z" fill="white"/>
<path d="M63.4893 11.3276L63.5233 11.3617V11.3105H63.4893V11.3276Z" fill="white"/>
<path d="M64.1382 14.4712C64.2065 16.0943 64.2749 17.8028 64.3603 19.5284L64.9241 19.7847C64.9412 17.239 64.9754 14.7446 65.0095 12.6431L64.7703 14.4712H64.1553H64.1382Z" fill="white"/>
<path d="M64.4453 21.8346C64.5137 23.6115 64.582 25.3713 64.6503 27.0286L64.8383 27.114C64.8383 25.0808 64.8724 22.8598 64.8895 20.6558L64.7358 21.8346H64.4453Z" fill="white"/>
<path d="M64.9919 12.4556C65.026 9.14111 65.0602 6.81751 65.0602 6.81751L63.7446 6.39038C63.8301 7.77429 63.9326 9.73909 64.0351 12.0285L64.9919 12.4556Z" fill="white"/>
<path d="M64.7358 29.1988C64.77 30.0018 64.8042 30.7706 64.8213 31.5053C64.8213 30.5998 64.8213 29.5747 64.8213 28.4812L64.7188 29.1988H64.7358Z" fill="white"/>
<path d="M64.1372 14.4715H64.7523L64.9914 12.6434C64.9914 12.6434 64.9914 12.5238 64.9914 12.4555L64.0347 12.0283C64.0688 12.8142 64.103 13.6343 64.1543 14.4886L64.1372 14.4715Z" fill="white"/>
<path d="M64.4443 21.8353H64.7347L64.8885 20.6564C64.8885 20.366 64.8885 20.0755 64.8885 19.7851L64.3247 19.5288C64.3589 20.2976 64.393 21.0665 64.4272 21.8353H64.4443Z" fill="white"/>
<path d="M64.7358 29.1991L64.8383 28.4815C64.8383 28.0373 64.8383 27.5931 64.8383 27.1147L64.6504 27.0293C64.6846 27.781 64.7016 28.4986 64.7358 29.1991Z" fill="white"/>
<path d="M61.7617 9.67025L60.8562 8.47428H61.1296L59.9849 6.33862C59.9849 6.33862 59.9849 7.12455 60.019 8.44011L61.7617 9.67025Z" fill="white"/>
<path d="M61.7629 9.67033V9.68742L61.1137 8.47437H60.8574L61.7629 9.67033Z" fill="white"/>
<path d="M63.7275 6.39038C63.813 7.77429 63.9155 9.73909 64.018 12.0285C64.0522 12.8144 64.0863 13.6345 64.1376 14.4888C64.2059 16.1119 64.2743 17.8204 64.3597 19.546C64.3939 20.3149 64.428 21.0837 64.4622 21.8525C64.5305 23.6294 64.5989 25.3892 64.6672 27.0465C64.7014 27.7982 64.7185 28.5158 64.7527 29.2163C64.7868 30.0193 64.821 30.7881 64.8381 31.5228C64.8381 30.6173 64.8381 29.5922 64.8381 28.4987C64.8381 28.0545 64.8381 27.6103 64.8381 27.1319C64.8381 25.0987 64.8723 22.8777 64.8893 20.6737C64.8893 20.3832 64.8893 20.0928 64.8893 19.8023C64.9064 17.2566 64.9406 14.7622 64.9748 12.6607C64.9748 12.5923 64.9748 12.5411 64.9748 12.4727C65.0089 9.15819 65.0431 6.8346 65.0431 6.8346L63.7275 6.40747V6.39038Z" fill="white"/>
<path d="M59.9692 6.33886C59.9692 6.33886 59.9692 7.12478 60.0034 8.44035L61.7461 9.67049L61.0969 8.45743L59.9521 6.32178L59.9692 6.33886Z" fill="white"/>
<path d="M73.9614 34.3409C74.286 31.8123 74.3715 28.9932 74.4056 25.9179C74.4056 25.4736 74.4056 25.0465 74.4056 24.6023C74.3715 28.0877 74.286 31.2997 73.9614 34.1871C73.9614 34.2726 73.9443 34.3409 73.9272 34.4263C73.9272 34.3921 73.9272 34.358 73.9272 34.3238L73.9614 34.3409Z" fill="white"/>
<path d="M75.5165 11.9939H73.4663V12.3527H73.6372C73.7055 12.8994 73.7568 13.4632 73.8251 14.027C73.9276 14.9326 74.0301 15.8723 74.0985 16.8461C74.2864 19.221 74.406 21.7838 74.3889 24.5174C74.3889 24.5516 74.3889 24.5857 74.3889 24.637C74.3889 25.0641 74.3889 25.5083 74.3889 25.9526C74.3547 29.0279 74.2693 31.847 73.9447 34.3756C73.9447 34.4098 73.9447 34.4439 73.9447 34.4781C75.2773 34.6319 76.4904 34.8198 77.5839 35.0419C78.8994 34.666 79.9075 34.5294 80.6421 34.4952C80.813 34.4952 80.9838 34.4952 81.1205 34.4952C80.7788 31.5053 80.6763 28.1736 80.6421 24.5174C80.6079 20.6732 80.8471 17.1707 81.2059 14.0441C81.2572 13.4803 81.3255 12.9165 81.3939 12.3698H81.5476V12.011H75.5165V11.9939Z" fill="white"/>
<path d="M69.6381 3.28041C69.6381 3.28041 69.7577 3.28041 69.8602 3.28041H69.8773C69.8261 2.88745 69.7235 0.444253 69.7235 0.444253L69.5698 0.136719L69.4502 0.444253L69.3818 3.28041C69.4843 3.28041 69.5698 3.28041 69.6381 3.28041Z" fill="white"/>
<path d="M69.3148 3.28003C69.3148 3.28003 69.366 3.28003 69.4002 3.28003C69.366 3.28003 69.349 3.28003 69.3148 3.28003C69.2977 3.28003 69.2635 3.28003 69.2465 3.28003C69.1098 3.29711 68.9389 3.34837 68.7681 3.4338C68.9389 3.34837 69.1098 3.3142 69.2465 3.28003C69.2806 3.28003 69.2977 3.28003 69.3148 3.28003Z" fill="white"/>
<path d="M66.1356 12.7456C65.7597 18.2471 65.6914 25.4058 65.7255 33.8801C65.8622 33.8801 65.9989 33.8801 66.1356 33.8801V12.7456Z" fill="white"/>
<path d="M73.0385 11.2079C72.7481 10.0119 72.4064 9.08931 72.0305 8.35464C71.7571 7.80791 71.4667 7.38078 71.1591 7.03908C70.5099 6.3215 69.8265 6.03105 69.1773 5.96271C68.9039 5.94562 68.6305 5.96271 68.3742 6.01396C68.0155 6.0823 67.6908 6.2019 67.3833 6.33858V33.9484C67.5371 33.9484 67.6908 33.9484 67.8617 33.9655C68.2547 33.9825 68.6476 33.9996 69.0235 34.0338C69.8265 34.085 70.6124 34.1363 71.3642 34.1876C71.7571 34.2217 72.1501 34.2559 72.526 34.2901C72.8848 34.3242 73.2265 34.3584 73.5682 34.3926C73.6194 24.8761 73.534 16.9827 73.0556 11.1908L73.0385 11.2079Z" fill="white"/>
<g style="mix-blend-mode:overlay" opacity="0.55">
<path d="M68.5459 3.55396C68.4946 3.58813 68.4604 3.60521 68.4092 3.63938C68.4604 3.60521 68.4946 3.57104 68.5459 3.55396Z" fill="white"/>
</g>
<g style="mix-blend-mode:overlay" opacity="0.55">
<path d="M72.7663 8.49111C72.6125 6.50922 72.1854 5.262 71.6899 4.49316C72.1854 5.262 72.6125 6.49214 72.7663 8.49111Z" fill="white"/>
</g>
<path d="M67.3677 6.33885C67.6752 6.20217 67.9998 6.08257 68.3586 6.01423C68.3928 5.45042 68.444 4.90369 68.4782 4.37405C68.4782 4.0836 68.5124 3.81023 68.5295 3.55396C68.4782 3.58813 68.444 3.60521 68.3928 3.63938C68.3928 3.63938 68.3757 3.65647 68.3586 3.67355C68.3244 3.69064 68.2903 3.72481 68.2561 3.74189C68.2561 3.74189 68.2219 3.75898 68.2048 3.77606C68.1707 3.81023 68.1365 3.82732 68.1023 3.86149C68.1023 3.86149 68.0682 3.89566 68.0511 3.89566C67.9998 3.94692 67.9657 3.98109 67.9144 4.03234C67.8631 4.0836 67.829 4.13485 67.7777 4.2032C67.7777 4.22028 67.7435 4.23737 67.7265 4.25445C67.6923 4.28862 67.6581 4.33988 67.641 4.37405C67.641 4.39113 67.6069 4.4253 67.5898 4.44239C67.5556 4.49364 67.5385 4.52782 67.5043 4.57907C67.5043 4.61324 67.4702 4.63033 67.4531 4.6645C67.4189 4.73284 67.3848 4.80118 67.3335 4.86952C67.3335 4.86952 67.3335 4.88661 67.3335 4.90369V6.30468L67.3677 6.33885Z" fill="white"/>
<path d="M71.6899 4.51074C71.7583 5.00621 71.8266 5.57003 71.8608 6.21927C71.9291 6.88559 71.9804 7.60317 72.0316 8.35493C72.4075 9.08959 72.7492 10.0293 73.0397 11.2082C72.9543 10.2514 72.8688 9.34587 72.7663 8.50869C72.6125 6.5268 72.1854 5.27958 71.6899 4.51074Z" fill="white"/>
<path d="M71.6898 4.51054C71.4847 4.18592 71.2797 3.96382 71.0576 3.77588C71.2626 3.94673 71.4847 4.18592 71.6898 4.51054Z" fill="white"/>
<g style="mix-blend-mode:overlay" opacity="0.55">
<path d="M71.6898 4.51054C71.4847 4.18592 71.2797 3.96382 71.0576 3.77588C71.2626 3.94673 71.4847 4.18592 71.6898 4.51054Z" fill="white"/>
</g>
<path d="M68.7514 3.45117C68.7514 3.45117 68.6147 3.51951 68.5464 3.55368C68.6147 3.50243 68.6831 3.46826 68.7514 3.45117Z" fill="white"/>
<g style="mix-blend-mode:overlay" opacity="0.55">
<path d="M68.7514 3.45117C68.7514 3.45117 68.6147 3.51951 68.5464 3.55368C68.6147 3.50243 68.6831 3.46826 68.7514 3.45117Z" fill="white"/>
</g>
<path d="M71.8606 6.21907C71.8265 5.58692 71.7581 5.0231 71.6898 4.51054C71.4847 4.18592 71.2797 3.96382 71.0576 3.77588C71.0918 4.80099 71.126 5.87737 71.1601 7.02208C71.4677 7.36378 71.7581 7.79092 72.0315 8.33764C71.9802 7.58589 71.929 6.8854 71.8606 6.20199V6.21907Z" fill="white"/>
<path d="M68.4775 4.37422C68.4263 4.90387 68.3921 5.45059 68.3579 6.01441C68.6142 5.96315 68.8876 5.94607 69.1609 5.96315C69.178 5.04055 69.1951 4.15211 69.2293 3.29785C69.0926 3.31494 68.9217 3.36619 68.7509 3.45162C68.6825 3.48579 68.6142 3.51996 68.5458 3.55413C68.5288 3.81041 68.5117 4.08377 68.4946 4.37422H68.4775Z" fill="white"/>
<path d="M71.0568 3.7755C70.6126 3.39963 70.1684 3.29711 69.8779 3.28003C70.1684 3.29711 70.5955 3.39963 71.0568 3.7755Z" fill="white"/>
<g style="mix-blend-mode:overlay" opacity="0.55">
<path d="M71.0568 3.7755C70.6126 3.39963 70.1684 3.29711 69.8779 3.28003C70.1684 3.29711 70.5955 3.39963 71.0568 3.7755Z" fill="white"/>
</g>
<path d="M69.229 3.29785C69.2119 4.15211 69.1777 5.04055 69.1606 5.96315C69.827 6.01441 70.5104 6.32194 71.1425 7.03952C71.1084 5.89481 71.0742 4.80135 71.04 3.79332C70.5958 3.41745 70.1516 3.31494 69.8611 3.29785C69.8611 3.33202 69.8611 3.34911 69.8611 3.34911C69.8953 3.4687 69.3486 3.50287 69.3486 3.50287V3.29785C69.3486 3.29785 69.2973 3.29785 69.2632 3.29785C69.2461 3.29785 69.2119 3.29785 69.1948 3.29785H69.229Z" fill="white"/>
<path d="M69.8964 3.33129C69.8964 3.33129 69.8964 3.3142 69.8964 3.28003H69.8793C69.7938 3.28003 69.7084 3.28003 69.6572 3.28003C69.6059 3.28003 69.5205 3.28003 69.4009 3.28003V3.48505C69.4009 3.48505 69.9476 3.45088 69.8964 3.33129Z" fill="white"/>
<path d="M67.3669 33.9484V6.33862C67.1618 6.44113 66.9739 6.54365 66.803 6.64616C66.6834 7.1758 66.598 7.79087 66.5297 8.50845C66.3759 9.78985 66.2392 11.2079 66.1367 12.7627V33.9142C66.5468 33.9142 66.9568 33.9484 67.3669 33.9655V33.9484Z" fill="white"/>
<path d="M67.3661 6.33898V4.93799C67.3148 5.02341 67.2806 5.12593 67.2294 5.22844C67.2294 5.26261 67.1952 5.29678 67.1952 5.33095C67.161 5.43346 67.1098 5.55306 67.0756 5.65557C67.0756 5.65557 67.0756 5.67265 67.0756 5.68974C67.0414 5.80934 66.9902 5.92893 66.956 6.06562C66.956 6.09979 66.9389 6.13396 66.9218 6.18521C66.8877 6.32189 66.8535 6.45858 66.8193 6.61234C66.9902 6.50983 67.1781 6.40732 67.3831 6.30481L67.3661 6.33898Z" fill="white"/>
<g style="mix-blend-mode:overlay" opacity="0.55">
<path d="M67.3661 6.33898V4.93799C67.3148 5.02341 67.2806 5.12593 67.2294 5.22844C67.2294 5.26261 67.1952 5.29678 67.1952 5.33095C67.161 5.43346 67.1098 5.55306 67.0756 5.65557C67.0756 5.65557 67.0756 5.67265 67.0756 5.68974C67.0414 5.80934 66.9902 5.92893 66.956 6.06562C66.956 6.09979 66.9389 6.13396 66.9218 6.18521C66.8877 6.32189 66.8535 6.45858 66.8193 6.61234C66.9902 6.50983 67.1781 6.40732 67.3831 6.30481L67.3661 6.33898Z" fill="white"/>
</g>
<path d="M72.7658 8.49152C72.612 6.50963 72.1849 5.2624 71.6894 4.49357C71.4844 4.16895 71.2794 3.94684 71.0573 3.7589C70.6131 3.38302 70.1688 3.28051 69.8784 3.26343H69.8613C69.7759 3.26343 69.6905 3.26343 69.6392 3.26343C69.5879 3.26343 69.5025 3.26343 69.3829 3.26343C69.3488 3.26343 69.3317 3.26343 69.2975 3.26343C69.2804 3.26343 69.2462 3.26343 69.2292 3.26343C69.0925 3.28051 68.9216 3.33177 68.7508 3.4172C68.6824 3.45137 68.6141 3.48554 68.5457 3.51971C68.4945 3.55388 68.4603 3.57096 68.4091 3.60513C68.4091 3.60513 68.392 3.62222 68.3749 3.6393C68.3407 3.65639 68.3065 3.69056 68.2724 3.70764C68.2724 3.70764 68.2382 3.72473 68.2211 3.74182C68.187 3.77599 68.1528 3.79307 68.1186 3.82724C68.1186 3.82724 68.0844 3.86141 68.0674 3.86141C68.0161 3.91267 67.9819 3.94684 67.9307 3.99809C67.8794 4.04935 67.8452 4.10061 67.794 4.16895C67.794 4.18603 67.7598 4.20312 67.7427 4.2202C67.7086 4.25437 67.6744 4.30563 67.6573 4.3398C67.6573 4.35688 67.6231 4.39105 67.6061 4.40814C67.5719 4.4594 67.5548 4.49357 67.5206 4.54482C67.5206 4.57899 67.4865 4.59608 67.4694 4.63025C67.4352 4.69859 67.401 4.76693 67.3498 4.83527C67.3498 4.83527 67.3498 4.85236 67.3498 4.86944C67.2985 4.95487 67.2643 5.05738 67.2131 5.15989C67.2131 5.19406 67.1789 5.22823 67.1789 5.2624C67.1448 5.36491 67.0935 5.48451 67.0593 5.58702C67.0593 5.58702 67.0593 5.60411 67.0593 5.62119C67.0252 5.74079 66.9739 5.86039 66.9397 5.99707C66.9397 6.03124 66.9226 6.06541 66.9056 6.11667C66.8714 6.25335 66.8372 6.39003 66.803 6.5438C66.6834 7.07344 66.598 7.68851 66.5297 8.40609C66.3759 9.68749 66.2392 11.1056 66.1367 12.6603V33.8119C66.5468 33.8119 66.9568 33.846 67.3669 33.8631V6.33877C67.6744 6.20209 67.999 6.0825 68.3578 6.01415C68.6141 5.9629 68.8874 5.94581 69.1608 5.9629C69.8271 6.01415 70.5105 6.32169 71.1427 7.03927C71.4502 7.38098 71.7407 7.80811 72.0141 8.35484C72.3899 9.0895 72.7316 10.0292 73.0221 11.2081C72.9367 10.2513 72.8512 9.34578 72.7487 8.5086L72.7658 8.49152Z" fill="white"/>
<path d="M17.6649 27.1995L17.6138 27.2506C17.6138 27.2506 17.6649 27.2506 17.6819 27.2506V27.1995H17.6649Z" fill="white"/>
<path d="M17.9228 27.8323L17.8886 27.7468L17.8032 27.8323C17.8032 27.8323 17.8886 27.8323 17.9228 27.8323Z" fill="white"/>
<path d="M17.8364 27.2515C17.8364 27.2515 17.7339 27.2515 17.6826 27.2515L17.7339 27.3711L17.8535 27.2515H17.8364Z" fill="white"/>
<path d="M11.156 18.6576C11.959 18.4013 12.7279 18.1279 13.4455 17.8717C13.5138 17.8546 13.5651 17.8204 13.6334 17.8033C13.6676 17.8033 13.7017 17.7691 13.7359 17.7691C13.7359 17.7691 13.7359 17.7691 13.753 17.7691C13.9409 17.7008 14.1289 17.6154 14.3168 17.547C14.8806 17.3249 15.3761 17.0857 15.7861 16.8807C16.1108 16.7099 16.367 16.5561 16.5891 16.4023C16.0766 16.2486 15.1027 15.9581 14.3168 15.8043V9.05566C14.3168 9.05566 14.2826 9.05566 14.2485 9.07275C14.0947 9.124 13.7017 9.2436 13.0354 9.51697C12.8133 9.60239 12.5741 9.7049 12.3007 9.8245C12.2495 9.84159 12.1812 9.87576 12.1299 9.89284C11.9078 9.99535 11.7028 10.0979 11.5319 10.2175C11.4636 10.2687 11.3781 10.32 11.3098 10.3712C11.2927 10.3712 11.2756 10.4054 11.2585 10.4225C11.2073 10.4567 11.1731 10.4908 11.1219 10.5421C11.0877 10.5763 11.0706 10.5933 11.0364 10.6275C11.0194 10.6446 11.0023 10.6617 10.9852 10.6788C10.9339 10.73 10.8998 10.7813 10.8485 10.8154C10.4385 11.3109 10.353 11.7551 10.353 11.7551V18.9651C10.5922 18.8626 10.8485 18.7601 11.156 18.6747C11.156 18.6747 11.1731 18.6747 11.1902 18.6747L11.156 18.6576Z" fill="white"/>
<path d="M9.97658 27.4731C11.1384 27.2681 12.3173 27.0972 13.4791 26.9093C15.2047 26.653 16.879 26.26 18.5534 25.7817C18.7926 25.7133 19.1343 25.6279 19.288 25.3887C18.9976 25.2008 18.6046 25.1495 18.28 25.0641C17.8187 24.9445 17.3403 24.8249 16.879 24.6882C16.7423 24.654 16.879 21.4249 16.879 21.0661C16.879 19.4943 16.879 17.9395 16.879 16.3677C16.879 16.3677 16.8449 16.4018 16.8278 16.4189C16.6911 16.5385 16.5202 16.6752 16.3152 16.8119C16.281 16.829 16.2469 16.8631 16.2127 16.8802C16.1785 16.8973 16.1444 16.9144 16.1102 16.9315C15.6489 17.2049 15.0509 17.4953 14.3504 17.7858C14.1796 17.8541 14.0258 17.9224 13.8549 17.9908C13.8208 17.9908 13.8037 18.0079 13.7695 18.0249C13.7012 18.0591 13.6157 18.0762 13.5474 18.1104C13.2399 18.23 12.9323 18.3496 12.6077 18.4521C12.1635 18.6058 11.7193 18.7596 11.258 18.9134C11.2409 18.9134 11.2238 18.9134 11.2067 18.9305C11.2067 18.9305 11.1896 18.9305 11.1725 18.9305C10.8821 19.033 10.6087 19.1184 10.3695 19.2209C10.0791 19.3405 9.8399 19.4601 9.61779 19.5797C9.51528 19.631 9.42985 19.6822 9.34442 19.7506C8.37056 20.3656 8.2168 20.8953 8.2168 20.8953V27.8319C8.2168 27.8319 8.28514 27.8319 8.30222 27.8148C8.86604 27.6781 9.44694 27.5585 10.0107 27.456L9.97658 27.4731Z" fill="white"/>
<path d="M10.063 27.7468C10.063 27.7468 10.1313 27.7468 10.1484 27.7468C10.1655 27.7468 10.1826 27.7468 10.2168 27.7468C10.1655 27.7468 10.1142 27.7639 10.063 27.781V27.7468Z" fill="white"/>
<path d="M19.1863 25.8164C18.7934 26.0385 18.332 26.1581 17.9049 26.2947C15.9914 26.8586 14.0266 27.149 12.0618 27.4395C11.4296 27.542 10.7804 27.6274 10.1482 27.7299C8.23466 28.1058 6.3382 28.6867 4.4759 29.2334C4.20254 29.3188 3.92918 29.4043 3.65581 29.4726C3.62164 29.4726 3.65581 30.4636 3.65581 30.5148V31.4374C3.82666 31.4032 4.0146 31.3691 4.20254 31.3349C4.52716 31.2666 4.86887 31.1982 5.22766 31.147C8.78139 30.5148 11.5492 30.0535 18.5029 30.344C18.5883 30.344 18.7763 30.3952 18.9984 30.4806C19.1009 30.5148 19.2205 30.5661 19.3401 30.6173V25.6455C19.3401 25.6455 19.2717 25.748 19.1863 25.8164ZM17.6828 27.2515C17.6828 27.2515 17.6316 27.2515 17.6145 27.2515L17.6657 27.2003V27.2515C17.6657 27.2515 17.8024 27.2515 17.8537 27.2515L17.7341 27.3711L17.6828 27.2515ZM17.8024 27.8324L17.8878 27.747L17.922 27.8324C17.922 27.8324 17.8366 27.8324 17.8024 27.8324Z" fill="white"/>
<path d="M18.93 33.0596C18.7079 33.4184 18.4687 34.1189 18.5883 34.8707C3.53621 35.349 0.17041 33.8114 0.17041 33.8114V33.6405V32.6325C0.477945 32.5129 0.785479 32.4275 1.09301 32.342C1.99853 32.0858 2.92114 31.8637 3.84374 31.6586C4.80052 31.4536 5.74021 31.2998 6.69698 31.1461C7.65375 30.9923 8.61053 30.8556 9.5673 30.7531C10.5241 30.6506 11.4979 30.5823 12.4718 30.5481C13.4457 30.5139 14.4195 30.5139 15.3934 30.5139C16.3672 30.5139 17.3411 30.5993 18.315 30.5993C18.6737 30.5993 19.0155 30.7019 19.3572 30.8385C19.733 30.9923 19.7843 31.0777 20.1431 31.2486" fill="white"/>
<path d="M0.17041 38.4758V40.1501H18.8104C18.1099 39.4497 17.2728 38.9713 16.2647 38.6637C15.6838 38.4929 15.4788 38.3904 15.0175 38.3391C8.6447 38.5441 0.956332 38.7833 0.187495 38.4587L0.17041 38.4758Z" fill="white"/>
<path d="M31.9657 39.0229C32.1536 39.5184 32.1707 39.9455 32.0853 40.1505H32.2219V39.433C32.2048 38.5787 32.2219 37.9636 32.2219 37.1094C31.8802 37.1265 31.6752 37.1435 31.3506 37.1606" fill="white"/>
<path d="M73.9448 34.4441C73.9106 34.7175 73.8765 34.9908 73.8423 35.2642C73.8765 34.9908 73.9277 34.7175 73.9619 34.4441H73.9448Z" fill="white"/>
<path d="M0.170406 34.1704V35.2639V35.5201V38.1171C0.956328 38.4417 8.42259 38.2538 14.7954 38.0488C14.5391 37.895 14.2999 37.7412 14.0778 37.5533C13.7532 37.2799 13.514 36.9895 13.3431 36.6819C13.2406 36.494 13.1723 36.3061 13.121 36.101L13.0014 35.8106L13.5311 35.9473C13.6678 35.9814 13.8215 36.0156 13.9582 36.0498C14.2657 36.1181 14.5391 36.1865 14.8296 36.2719C15.0346 36.3232 15.2567 36.3915 15.4617 36.4427C17.1019 36.9041 18.5371 37.297 20.1772 37.7412L23.3039 37.6729C23.1672 37.6387 23.2355 37.6558 23.0988 37.6045C22.2958 37.3654 21.4757 37.1603 20.929 36.9553C20.3823 36.7503 19.7159 36.5794 19.2376 36.1181C19.0667 35.9473 18.93 35.7593 18.8104 35.5372C18.7933 35.5031 18.7763 35.4689 18.7592 35.4347C18.7079 35.3322 18.7079 35.3493 18.6737 35.2126L15.12 35.298C14.2828 35.298 13.4286 35.298 12.5914 35.298C11.0025 35.298 9.41353 35.2639 7.80752 35.2468C6.42361 35.2468 5.17639 35.2126 3.67288 35.0247C3.17741 34.9734 2.80154 34.888 2.3744 34.8197C1.60557 34.683 0.887987 34.4438 0.15332 34.2046L0.170406 34.1704Z" fill="white"/>
<path d="M31.3348 36.7503C31.6594 36.7333 31.8644 36.7162 32.2061 36.6991C32.2061 36.1353 32.2232 35.7594 32.2232 35.1956C32.2232 35.1443 32.2232 35.0931 32.2232 35.0418C32.2232 34.7172 32.2232 34.7001 32.2232 34.3926C31.6423 34.4438 31.2494 34.478 30.6855 34.5122" fill="white"/>
<path d="M32.5976 40.1504H34.6137L33.9132 39.4499H34.067L43.7714 38.3906L43.9081 38.8519C44.0106 39.1765 44.1131 39.4841 44.1985 39.8087C44.1985 39.8087 44.1985 39.8258 44.1985 39.8429H44.2498C44.3694 39.7916 44.489 39.7574 44.6086 39.7233L44.9674 39.6208L44.284 40.1504H81.2223V37.4509L69.348 39.1253C72.8505 36.9042 75.55 35.5886 77.549 35.0077C76.4555 34.7856 75.2425 34.5977 73.9098 34.4439C73.8756 34.7173 73.8415 34.9907 73.7902 35.264C73.8244 34.9907 73.8586 34.7173 73.8927 34.4439C73.7731 34.4439 73.6364 34.4098 73.5168 34.4098C73.1751 34.3756 72.8163 34.3414 72.4746 34.3072C72.0988 34.2731 71.7058 34.2389 71.3129 34.2047C70.5611 34.1364 69.7752 34.0851 68.9722 34.051C68.5963 34.0339 68.2033 34.0168 67.8104 33.9826C67.6566 33.9826 67.5028 33.9826 67.332 33.9655C66.9219 33.9485 66.5119 33.9314 66.1018 33.9143C65.9652 33.9143 65.8285 33.9143 65.6918 33.9143C65.4013 33.9143 65.0938 33.9143 64.7863 33.8972C64.3591 33.8972 63.932 33.8801 63.5049 33.863C63.3682 33.863 63.2144 33.863 63.0607 33.863C62.2064 33.863 61.3351 33.8459 60.4637 33.8459C60.4295 33.8459 60.3954 33.8459 60.3612 33.8459C60.2416 33.8459 60.122 33.8459 60.0024 33.8459C59.5582 33.8459 59.0969 33.8459 58.6356 33.8459C57.9009 33.8459 57.1492 33.8459 56.3974 33.8801C55.9019 33.8801 55.4065 33.8972 54.911 33.9143C54.6718 33.9143 54.4326 33.9143 54.1934 33.9143C53.5271 33.9143 52.8608 33.9485 52.1944 33.9655C52.1261 33.9655 52.0748 33.9655 52.0236 33.9655C51.2889 33.9826 50.5543 34.0168 49.8196 34.0339C53.0316 34.1535 56.0045 34.2902 58.6356 34.4439C59.0969 34.4781 59.5582 34.4952 60.0024 34.5294L60.4637 34.5635C61.3521 34.6319 62.2235 34.7002 63.0436 34.7685L63.5049 34.8027C63.9491 34.8369 64.3762 34.8881 64.8034 34.9223C65.1109 34.9565 65.4013 34.9907 65.6918 35.0077L66.0848 35.059C66.4777 35.1103 66.8707 35.1444 67.2466 35.1957C67.4345 35.2128 67.6053 35.2469 67.7933 35.264H72.4405H71.2787H67.7933C70.3561 35.6057 72.1329 36.0158 73.0897 36.46L73.3972 36.5967L72.0133 36.6308C71.7571 36.6308 47.4277 36.3233 32.5635 37.0751" fill="white"/>
<path d="M66.1365 35.4691C65.7606 35.4179 65.3848 35.3837 64.9747 35.3324L64.5818 35.2812C64.2913 35.247 64.0009 35.2129 63.6933 35.1958C63.2662 35.1616 62.8391 35.1103 62.3948 35.0762L61.9335 35.042C61.1135 34.9737 60.2421 34.9053 59.3537 34.837L58.8924 34.8028C58.4311 34.7686 57.9868 34.7345 57.5255 34.7174C54.6211 34.5294 51.2723 34.4782 47.6503 34.3586C45.3096 34.2561 42.9518 34.2219 40.5941 34.1877C39.1076 34.1536 37.6212 34.1536 36.1348 34.1877C34.9559 34.2219 33.8112 34.3073 32.6323 34.3586V36.6651C46.6252 36.0329 68.4259 36.2892 71.5355 36.3405C70.4591 35.9304 68.6822 35.8108 66.1194 35.4862L66.1365 35.4691Z" fill="white"/>
<path d="M20.8613 44.7123V44.849C24.7397 45.1394 28.6351 45.2761 32.5306 45.2761C36.426 45.2761 40.3044 45.1394 44.1656 44.849V44.7123C36.4431 44.1314 28.601 44.1314 20.8613 44.7123Z" fill="white"/>
<path d="M23.082 46.8143V46.951C26.2257 47.2415 29.3865 47.3952 32.5473 47.3952C35.708 47.3952 38.8688 47.2586 41.9954 46.9681V46.8314C35.7422 46.2505 29.3865 46.2505 23.0649 46.8314L23.082 46.8143Z" fill="white"/>
<path d="M25.3027 48.8468V48.9493C27.7288 49.1715 30.172 49.2911 32.6152 49.2911C35.0584 49.2911 37.4845 49.1715 39.9106 48.9493V48.8468C35.0926 48.4026 30.172 48.4026 25.3198 48.8468H25.3027Z" fill="white"/>
<path d="M38.1674 39.5522C37.5694 39.6206 36.9714 39.6889 36.3392 39.7573L35.9292 39.8085L36.1342 40.0135C36.1342 40.0135 36.2196 40.099 36.2709 40.1502H38.7483C38.6287 39.9794 38.492 39.8256 38.3724 39.6718C38.3211 39.6035 38.2186 39.5522 38.1674 39.5522Z" fill="white"/>
<path d="M42.0965 39.0915L39.6362 39.382C39.6362 39.382 39.7558 39.5358 39.8242 39.6041C39.9779 39.792 40.1146 39.9629 40.2342 40.1508H42.8312L43.0533 40.0996L42.8995 39.6212C42.7742 39.2111 42.5066 39.0289 42.0965 39.0745V39.0915Z" fill="white"/>
<path d="M38.7485 39.5187C38.7485 39.5187 38.8681 39.6554 38.9194 39.7408C39.039 39.8945 39.1415 40.0312 39.244 40.1679H39.7224C39.6028 40.0141 39.5003 39.8604 39.3978 39.7066C39.244 39.4503 39.0561 39.3991 38.7485 39.5187Z" fill="white"/>
<path d="M34.9731 39.9455C34.9731 39.9455 35.1098 40.0822 35.1782 40.1505H35.7249C35.5028 39.8942 35.2807 39.843 34.9731 39.9455Z" fill="white"/>
<path d="M43.3452 38.8691C43.1744 38.9204 43.106 38.9375 43.1573 39.1254C43.2085 39.3475 43.2769 39.5525 43.3452 39.7746C43.3623 39.8601 43.3965 39.9284 43.4136 40.0138C43.5502 39.9797 43.6698 39.9455 43.8065 39.9284L43.4648 38.8179C43.4648 38.8179 43.3794 38.852 43.3281 38.8691H43.3452Z" fill="white"/>
<path d="M44.3194 39.9624L44.1485 40.0136V39.9624C44.1485 39.9624 44.0973 39.894 44.0802 39.8598C43.9948 39.5352 43.8922 39.2277 43.7897 38.9031L43.6872 38.5614L34.2391 39.5694L34.82 40.1674L35.6401 41.0046H35.4692L32.4964 40.7483C32.4964 38.0659 32.4622 21.9032 32.4622 21.4932C32.4622 21.3736 32.4622 21.2369 32.4622 21.1173C32.4622 20.7585 32.4622 20.3656 32.5306 20.0068C32.5818 19.6821 32.7868 19.3917 33.0089 19.1696C33.1285 19.05 33.3506 18.9475 33.5044 19.0158C33.6411 19.0671 33.7436 19.3404 33.7607 19.5113C33.7778 19.7334 33.8461 19.8701 33.9486 19.9384C33.9999 19.9555 34.034 19.9726 34.1024 19.9726H34.2049C34.3928 19.9897 34.5637 19.9726 34.7516 19.9384C35.5034 19.8188 36.9727 19.3917 37.7074 18.9304C37.7245 18.9304 37.7074 18.8962 37.7074 18.8962C37.7074 18.8962 37.7074 18.8791 37.6732 18.8621C37.5194 18.8621 37.1777 18.8621 36.7677 18.8962C36.4772 18.8962 36.1526 18.9304 35.8451 18.9475C35.8109 18.9475 34.9225 19.0329 34.8712 18.5545C34.8541 18.3666 34.7345 17.854 34.4441 17.7857C34.3587 17.7686 34.2562 17.7515 34.1536 17.7515H34.0853C33.9486 17.7515 33.7949 17.7857 33.6411 17.8199C33.6069 17.8199 33.5728 17.8369 33.5215 17.854H33.4873L32.3597 17.0168L32.3255 19.5455V20.1605V21.2882C32.3255 21.7495 32.3255 38.4588 32.3255 40.7654L30.7024 40.6287C30.1557 40.5432 29.609 40.4578 29.0793 40.3382C28.823 40.287 28.5668 40.2357 28.3105 40.1845C27.61 40.0307 26.9266 39.8769 26.2603 39.689L22.2452 38.5784C21.4251 38.3563 20.6221 38.1342 19.802 37.895C18.196 37.4508 16.5729 37.0066 14.9669 36.5624C14.8815 36.5453 14.779 36.5111 14.6935 36.494C14.4031 36.4086 14.1297 36.3403 13.8393 36.2719C13.7368 36.2548 13.6342 36.2207 13.5317 36.2036C13.583 36.3744 13.6513 36.5453 13.7368 36.6991C13.8905 36.9724 14.1126 37.2287 14.4031 37.485C14.6765 37.7071 14.9669 37.9121 15.3086 38.083C15.6845 38.2709 16.0945 38.4418 16.5729 38.5784C17.6322 38.9031 18.5206 39.4498 19.2553 40.2015C19.802 40.7654 20.2804 41.4659 20.6563 42.2689C20.7759 42.5251 20.8955 42.6106 21.1347 42.6447C21.4593 42.6789 21.7839 42.7302 22.1085 42.7985C22.2452 42.8156 22.3819 42.8498 22.5015 42.8668H40.6802L44.046 40.2015L44.3023 39.9965C44.3023 39.9965 44.3023 39.9965 44.2852 39.9965L44.3194 39.9624ZM36.5627 40.9875C36.4089 40.9875 36.2551 40.9875 36.0843 40.9875C35.9989 40.9875 35.8963 40.9875 35.8109 40.9875H35.7767L35.7597 40.9704C35.5546 40.7312 35.3325 40.5091 35.1104 40.287C35.0763 40.2528 35.025 40.2015 34.9908 40.1674C34.9225 40.099 34.8712 40.0478 34.8029 39.9794L34.7345 39.9111L34.8371 39.8769C35.2813 39.7061 35.5888 39.7744 35.8793 40.1161C35.8963 40.1503 35.9305 40.1674 35.9476 40.1845C36.1355 40.3895 36.3235 40.5945 36.5285 40.7995L36.7506 41.0216H36.5798L36.5627 40.9875ZM39.3134 40.8508C38.8863 40.885 38.5446 40.9191 38.2029 40.9362C37.7928 40.9704 37.3828 40.9875 36.9215 40.9875H36.8873L36.8702 40.9704C36.6139 40.7141 36.3406 40.4407 36.0672 40.1503C36.0672 40.1503 36.0501 40.1332 36.033 40.1161L35.623 39.7061L36.3235 39.6206C36.9556 39.5523 37.5536 39.4669 38.1516 39.4156C38.2712 39.4156 38.4079 39.501 38.4762 39.5865C38.63 39.7744 38.7667 39.9624 38.9204 40.1503C38.9888 40.2357 39.0571 40.3382 39.1425 40.4407L39.4501 40.8337H39.3134V40.8508ZM39.5355 40.7995L39.2792 40.4578C39.1938 40.3553 39.1425 40.2528 39.0571 40.1503C38.9717 40.0307 38.8863 39.9282 38.7838 39.8086C38.7154 39.7061 38.63 39.6206 38.5616 39.5181L38.5104 39.4498L38.5958 39.4156C38.8863 39.2789 39.228 39.1935 39.5013 39.6206C39.6209 39.8086 39.7576 39.9794 39.8943 40.1503C39.9285 40.2015 39.9626 40.2357 39.9968 40.287C40.0822 40.3895 40.1506 40.492 40.236 40.5945L40.3043 40.697L39.5184 40.8166L39.5355 40.7995ZM42.7646 40.3211C42.4571 40.3895 42.1666 40.4407 41.8762 40.492C41.7737 40.5091 41.6541 40.5262 41.5345 40.5432L40.441 40.6628L40.1506 40.3211C40.1506 40.3211 40.0822 40.2186 40.0481 40.1674C39.9456 40.0136 39.826 39.8769 39.7064 39.7061C39.6209 39.6036 39.5355 39.501 39.4501 39.3815L39.3817 39.2789L42.0983 38.9543C42.8159 38.8689 42.85 38.886 43.0551 39.5865L43.2259 40.1503V40.2186L42.7646 40.3211ZM43.9264 40.0649C43.7897 40.099 43.6531 40.1332 43.5164 40.1674C43.4822 40.1674 43.4651 40.1674 43.4309 40.1845H43.3284V40.1674C43.2943 40.0478 43.2601 39.9453 43.243 39.8428C43.1747 39.6206 43.1063 39.3985 43.038 39.1764C42.9526 38.8518 43.1747 38.7835 43.3284 38.7322C43.3968 38.7151 43.4651 38.698 43.5164 38.6639L43.6018 38.6126L44.046 40.0478H43.9777L43.9264 40.0649Z" fill="white"/>
<path d="M80.8805 34.8538C79.1549 34.8538 76.1478 35.3834 70.3047 38.7492L81.2051 37.0919L81.1197 34.8708C81.1197 34.8708 80.9659 34.8708 80.8805 34.8708V34.8538Z" fill="white"/>
<path d="M23.8004 37.8611L31.6426 40.1505L29.1481 40.0993C28.2255 39.9113 27.32 39.7063 26.4315 39.4671L22.4165 38.3566C21.7502 38.1686 21.2889 38.0832 20.6226 37.9123L23.7833 37.8611H23.8004Z" fill="white"/>
<path d="M31.5218 38.4594C31.3509 37.9298 31.1801 37.4001 31.0092 36.8534C30.8384 36.2896 30.6675 35.7087 30.5138 35.1278V35.0936C30.4283 34.7861 30.3429 34.4785 30.2746 34.1539C29.2153 29.763 28.8736 25.0987 31.0434 21.4596C31.2826 21.0666 31.5389 20.6736 31.8464 20.2978C32.0173 20.0757 31.9831 20.0073 31.9831 20.0073C31.9831 20.0073 31.9489 19.9902 31.9148 19.9902C31.7781 19.9902 31.4364 20.0927 30.5821 20.4857C30.4796 20.537 30.3942 20.5711 30.3429 20.5882C28.0877 21.7158 26.5158 23.5269 24.9269 25.4575C24.7902 25.6284 24.6535 25.7821 24.5168 25.953C24.3118 26.2093 24.1068 26.4485 23.9018 26.7047C23.5601 27.1148 23.1842 27.6103 22.8425 28.1057C22.5691 28.4816 22.2616 28.8746 22.0053 29.2163C21.4927 29.8997 21.0144 30.5148 20.5872 31.1127C20.5872 31.1127 20.5701 31.1469 20.5531 31.1469C20.2626 31.5399 20.0063 31.9328 19.733 32.3258C19.5792 32.565 19.4254 32.7871 19.2717 33.0263C19.0496 33.368 18.7249 34.0343 18.8445 34.7519C18.8445 34.8032 18.8445 34.8544 18.8787 34.9057C18.9129 35.0423 18.9641 35.179 19.0154 35.2815C19.0325 35.3157 19.0496 35.3499 19.0666 35.3841C19.1862 35.6062 19.34 35.7941 19.5279 35.9479C19.9722 36.3408 20.5531 36.5459 21.0485 36.6654C21.6465 36.8363 22.4154 37.0584 23.2184 37.3147C23.4234 37.383 23.6455 37.4514 23.8676 37.5197C24.9611 37.8443 26.1229 38.186 27.0113 38.4081L31.2997 39.7237C31.8122 39.9287 31.8635 39.9458 31.8977 39.9116C32.0173 39.8091 31.8122 39.2624 31.6756 38.9207C31.5901 38.7157 31.5218 38.5277 31.4876 38.3911L31.5218 38.4594ZM25.0465 26.7389C24.9611 26.8414 24.8756 26.961 24.7902 27.0635C23.7309 28.4474 22.6204 30.0705 21.4927 31.967C21.4927 31.967 21.4927 31.9841 21.4757 32.0012C21.0998 32.6333 20.7239 33.2997 20.3651 33.9831C20.143 34.3931 19.9209 34.8202 19.6988 35.2645C19.6817 35.3157 19.6475 35.367 19.6305 35.4182L19.5621 35.5549L19.4425 35.2815L19.3913 35.1449C19.2717 34.8715 19.3058 34.564 19.4596 34.3077C19.5279 34.1881 19.6134 34.0685 19.6988 33.9147C19.8013 33.7439 19.938 33.5388 20.0747 33.2997C20.348 32.8725 20.6556 32.36 21.0144 31.7961C21.0144 31.7961 21.0144 31.7791 21.0314 31.762C21.9028 30.4122 23.0133 28.7379 24.2606 27.0977C24.4827 26.7902 24.7048 26.4997 24.944 26.2093C26.7038 24.1249 27.3701 23.2193 30.2917 20.9983L30.3771 21.1179C30.3771 21.1179 28.0022 22.9631 25.0465 26.7731V26.7389Z" fill="white"/>
<path d="M58.7049 29.7627C56.3301 29.216 54.519 27.2683 54.8095 25.3377C54.9632 24.3296 55.1683 23.3387 55.4758 22.3648C57.6115 15.7187 56.4326 9.60213 52.5201 3.94691C52.1613 3.41727 51.5462 3.07556 51.0507 2.63135C50.9482 2.73386 50.8628 2.85346 50.7603 2.95597C51.3924 4.23736 52.0075 5.51876 52.708 6.95392C51.8537 7.07352 51.2728 7.15894 50.6578 7.24437C53.0326 13.3267 52.0417 18.401 47.8387 22.2623C43.9603 25.8331 39.4327 26.602 35.0418 24.4321C34.1363 23.9879 33.3333 23.4754 32.6157 22.9116C32.6157 25.3377 32.6157 27.7467 32.6157 30.1728C32.6157 31.4542 32.6157 32.7356 32.6157 34.0341C33.0941 33.9999 34.2559 33.9486 34.4097 33.9315C35.8961 33.8803 36.084 33.8803 37.1946 33.8461C37.2458 33.8461 37.28 33.8461 37.3313 33.8461C37.7071 33.8461 38.288 33.8119 38.6639 33.8119C38.8689 33.8119 39.3473 33.8119 39.5523 33.8119C40.6629 33.8119 41.7563 33.8461 42.8669 33.8632C44.1824 33.8974 45.4809 33.9145 46.7965 33.9657C47.497 33.9828 48.1804 34.0341 48.8809 34.0341C49.2226 34.0341 49.5643 34.017 49.906 33.9999C50.6407 33.9657 51.3753 33.9486 52.11 33.9315C52.1783 33.9315 52.2296 33.9315 52.2809 33.9315C52.9472 33.9145 53.6135 33.8974 54.2798 33.8803C54.519 33.8803 54.7582 33.8803 54.9974 33.8803C55.4929 33.8803 55.9884 33.8632 56.4838 33.8461C57.2356 33.8461 57.9873 33.829 58.722 33.8119C58.722 32.8039 58.722 31.4029 58.722 29.7627H58.7049ZM35.5031 31.9838C37.7755 28.2251 42.9523 28.3276 45.1221 31.9838H35.5031Z" fill="white"/>
<path d="M5.46719 51.3411V69.7419H1.48633V51.3411H5.46719Z" fill="white"/>
<path d="M26.7906 60.4819C26.7906 65.6074 23.7153 70.0154 17.7354 70.0154C11.7556 70.0154 8.93652 65.8125 8.93652 60.5502C8.93652 55.2879 12.2681 51.085 17.9917 51.085C23.3736 51.085 26.7906 54.8608 26.7906 60.4989V60.4819ZM13.037 60.4648C13.037 64.0527 14.6088 66.7692 17.8721 66.7692C21.4088 66.7692 22.6731 63.8135 22.6731 60.5331C22.6731 57.0477 21.255 54.3141 17.8209 54.3141C14.3867 54.3141 13.037 56.8769 13.037 60.4648Z" fill="white"/>
<path d="M32.9564 64.3602C33.3836 66.2054 34.6991 67.0255 36.8348 67.0255C38.9704 67.0255 39.876 66.1883 39.876 64.8386C39.876 63.3351 38.9875 62.6859 35.8438 61.9512C30.8379 60.7723 29.5906 58.9613 29.5906 56.4668C29.5906 53.2548 31.9826 51.085 36.3393 51.085C41.2257 51.085 43.1734 53.7161 43.4297 56.3985H39.4147C39.2267 55.2709 38.5946 54.0407 36.2197 54.0407C34.5966 54.0407 33.6228 54.707 33.6228 56.0226C33.6228 57.3382 34.4087 57.8166 37.3815 58.5171C42.7292 59.7814 43.9081 61.7633 43.9081 64.3602C43.9081 67.726 41.3624 70.0325 36.4931 70.0325C31.6238 70.0325 29.3514 67.726 28.9243 64.3773H32.9394L32.9564 64.3602Z" fill="white"/>
<path d="M62.7207 64.0868C61.986 67.521 59.389 70.0154 54.776 70.0154C48.9329 70.0154 46.1821 65.8808 46.1821 60.6527C46.1821 55.4246 49.0354 51.085 54.9639 51.085C59.8674 51.085 62.2423 53.9553 62.6865 57.0306H58.7056C58.3297 55.6126 57.3388 54.1945 54.8273 54.1945C51.5469 54.1945 50.2826 57.1502 50.2826 60.4989C50.2826 63.6085 51.376 66.8888 54.9469 66.8888C57.5438 66.8888 58.3639 65.1461 58.7056 64.0698H62.7036L62.7207 64.0868Z" fill="white"/>
<path d="M83.0001 60.4819C83.0001 65.6074 79.9247 70.0154 73.9449 70.0154C67.9651 70.0154 65.146 65.8125 65.146 60.5502C65.146 55.2879 68.4776 51.085 74.2012 51.085C79.583 51.085 83.0001 54.8608 83.0001 60.4989V60.4819ZM69.2635 60.4648C69.2635 64.0527 70.8354 66.7692 74.0987 66.7692C77.6353 66.7692 78.8996 63.8135 78.8996 60.5331C78.8996 57.0477 77.4816 54.3141 74.0474 54.3141C70.6133 54.3141 69.2635 56.8769 69.2635 60.4648Z" fill="white"/>
<path d="M9.44815 78.2003C9.44815 80.9339 7.84213 83.3259 4.66428 83.3259C1.48642 83.3259 0 81.0706 0 78.2345C0 75.3983 1.7427 73.1431 4.78387 73.1431C7.63711 73.1431 9.44815 75.1933 9.44815 78.1832V78.2003ZM1.91355 78.2003C1.91355 80.1993 2.85324 81.8053 4.73262 81.8053C6.76576 81.8053 7.51752 80.1139 7.51752 78.2345C7.51752 76.3551 6.66325 74.6978 4.69845 74.6978C2.73364 74.6978 1.91355 76.2184 1.91355 78.2174V78.2003ZM7.29541 81.7882L10.1486 83.753L9.05519 85.0002L5.62105 82.6083L7.29541 81.7882Z" fill="white"/>
<path d="M12.9509 80.6772L12.0796 83.1887H10.2515L13.6685 73.2964H15.9921L19.5458 83.1887H17.5981L16.6926 80.6772H12.968H12.9509ZM16.2484 79.1395C15.4625 76.8843 14.9841 75.5346 14.762 74.6803C14.5228 75.6029 13.9931 77.2089 13.361 79.1395H16.2655H16.2484Z" fill="white"/>
<path d="M21.8004 74.8341H18.7251V73.2964H26.721V74.8341H23.6627V83.1887H21.8004V74.8341Z" fill="white"/>
<path d="M28.6697 80.6772L27.7983 83.1887H25.9702L29.3873 73.2964H31.7109L35.2646 83.1887H33.3169L32.4114 80.6772H28.6868H28.6697ZM31.9842 79.1395C31.1983 76.8843 30.7199 75.5346 30.4978 74.6803C30.2586 75.6029 29.729 77.2089 29.0968 79.1395H32.0013H31.9842Z" fill="white"/>
<path d="M38.4424 79.0883V83.1887H36.6313V73.2964H40.8172C42.9358 73.2964 44.0634 74.4582 44.0634 75.9788C44.0634 77.2943 43.3288 78.029 42.5428 78.3195C43.1408 78.5074 43.8755 79.0541 43.8755 80.8139V81.2752C43.8755 81.9415 43.8755 82.7445 44.0122 83.1887H42.2353C42.0645 82.7616 42.0474 82.0099 42.0474 81.0018V80.831C42.0474 79.635 41.7398 79.0883 40.0826 79.0883H38.4595H38.4424ZM38.4424 77.6019H40.3559C41.6373 77.6019 42.167 77.1064 42.167 76.1838C42.167 75.2612 41.5861 74.7999 40.4414 74.7999H38.4424V77.6019Z" fill="white"/>
<path d="M48.9487 82.9665V82.8469C48.9487 81.1896 49.7859 79.7374 51.9386 78.1655C53.4251 77.055 53.8522 76.6962 53.8522 75.7394C53.8522 74.7827 53.3909 74.2359 52.417 74.2359C51.3577 74.2359 50.9306 74.851 50.7598 75.8419H48.9146C49.0683 74.1163 50.1959 72.7324 52.417 72.7324C54.8944 72.7324 55.7657 74.2359 55.7657 75.7223C55.7657 77.2088 55.1336 77.8751 53.2713 79.2248C51.9728 80.1645 51.3919 80.8138 51.204 81.3776H56.1416L55.9024 82.9836H48.9316L48.9487 82.9665Z" fill="white"/>
<path d="M64.8896 77.8751C64.8896 80.5575 64.0695 83.1544 61.1479 83.1544C58.2263 83.1544 57.4062 80.66 57.4062 77.9434C57.4062 75.2269 58.363 72.7324 61.1992 72.7324C64.0353 72.7324 64.9067 75.1244 64.9067 77.8751H64.8896ZM59.354 77.9263C59.354 79.8057 59.6103 81.6168 61.1479 81.6168C62.6856 81.6168 62.8906 79.9082 62.8906 77.8922C62.8906 75.8761 62.6173 74.2701 61.165 74.2701C59.7128 74.2701 59.3369 75.7394 59.3369 77.9263H59.354Z" fill="white"/>
<path d="M66.2915 82.9665V82.8469C66.2915 81.1896 67.1287 79.7374 69.2814 78.1655C70.7678 77.055 71.195 76.6962 71.195 75.7394C71.195 74.7827 70.7337 74.2359 69.7598 74.2359C68.7005 74.2359 68.2734 74.851 68.1025 75.8419H66.2573C66.4111 74.1163 67.5387 72.7324 69.7598 72.7324C72.2372 72.7324 73.1085 74.2359 73.1085 75.7223C73.1085 77.2088 72.4764 77.8751 70.6141 79.2248C69.3156 80.1645 68.7347 80.8138 68.5467 81.3776H73.4844L73.2452 82.9836H66.2744L66.2915 82.9665Z" fill="white"/>
<path d="M81.7194 74.4747H77.6189C77.5506 75.1068 77.3456 76.2686 77.2601 76.7128C77.6531 76.3541 78.2511 76.0807 79.1737 76.0807C81.1043 76.0807 82.249 77.4646 82.249 79.4294C82.249 81.3942 81.1897 83.1369 78.5757 83.1369C76.6451 83.1369 75.2441 82.1289 75.0049 80.352H76.9013C77.1064 81.1208 77.6531 81.6505 78.6099 81.6505C79.7546 81.6505 80.3184 80.8133 80.3184 79.5661C80.3184 78.4385 79.8742 77.6013 78.644 77.6013C77.6189 77.6013 77.1918 78.0455 76.9184 78.7118L75.1928 78.4726C75.4662 77.1741 75.8933 74.2355 76.0471 72.8857H81.9586L81.6852 74.4576L81.7194 74.4747Z" fill="white"/>
</svg>
